<?xml version="1.0" encoding="utf-8"?>
<!-- Generator: Adobe Illustrator 24.1.1, SVG Export Plug-In . SVG Version: 6.00 Build 0)  -->
<svg version="1.1" id="Layer_1" xmlns="http://www.w3.org/2000/svg" xmlns:xlink="http://www.w3.org/1999/xlink" x="0px" y="0px"
	 viewBox="0 0 1280 896" style="enable-background:new 0 0 1280 896;" xml:space="preserve">
<style type="text/css">
	.st0{fill:#FEFEFE;}
	.st1{fill:#1A1A1A;}
	.st2{fill:#1E1E1E;}
	.st3{fill:#2D2D2D;}
	.st4{fill:#434343;}
	.st5{fill:#404040;}
	.st6{fill:#FDFDFD;}
	.st7{fill:#FBFBFB;}
	.st8{fill:#FCFCFC;}
	.st9{fill:#FAFAFA;}
	.st10{fill:#F8F8F8;}
	.st11{fill:#F7F7F7;}
	.st12{fill:#F9F9F9;}
	.st13{fill:#F5F5F5;}
	.st14{fill:#EAEAEA;}
	.st15{fill:#E8E8E8;}
	.st16{fill:#F1F1F1;}
	.st17{fill:#F2F2F2;}
	.st18{fill:#DBDBDB;}
	.st19{fill:#313131;}
	.st20{fill:#F4F4F4;}
	.st21{fill:#EEEEEE;}
	.st22{fill:#DEDEDE;}
	.st23{fill:#272727;}
	.st24{fill:#DCDCDC;}
	.st25{fill:#E1E1E1;}
	.st26{fill:#EFEFEF;}
	.st27{fill:#ECECEC;}
	.st28{fill:#B5B5B5;}
	.st29{fill:#191919;}
	.st30{fill:#040404;}
	.st31{fill:#030303;}
	.st32{fill:#232323;}
	.st33{fill:#0C0C0C;}
</style>
<g>
	<g>
		<path class="st0" d="M639.5,895.9c-211.6,0-423.2,0-634.8,0.1C1,896,0,895.3,0,891.4C0.1,595.9,0.1,300.3,0,4.7C0,0.4,1.2,0,5,0
			c423.4,0.1,846.7,0.1,1270.1,0c4,0,4.9,0.7,4.9,4.8c-0.1,295.4-0.1,590.8,0,886.2c0,4.5-1.3,5-5.2,5
			C1063,895.9,851.2,895.9,639.5,895.9z"/>
		<path d="M1115.9,431.2c12.3-2.5,23.2,1.9,34.9,7.4c-4.2,0.9-6.7-1-9.3-1.8c-15.9-5-30.5-2.4-42.9,8.3
			c-9.9,8.5-21.3,12.2-33.8,13.9c-8.1,1.1-16.1,2.5-23.8,5.2c-7.4,2.6-12.7,7.6-16.6,14.5c-4,7-6.8,14.8-14.2,19.5
			c-9.8,6.2-20.5,7.3-31.6,6.1c-7.2-0.8-14-0.2-20.4,3.5c-2.7,1.6-4.3,3.8-4.4,7.1c0,2-0.1,4.2,2,5.1c2.1,0.9,2.4-1.7,3.4-2.6
			c4.9-4.4,11-4.8,17-5.6c7.4-1,15,0.1,22.3,1.3c14.3,2.4,23.5-2.8,27.3-16.9c1.2-4.5,2.6-9.1,3.7-13.7
			c2.6-10.8,10.2-14.1,21.3-12.4c10.1,1.5,20.5,3.6,30.4-1.5c5.1-2.7,8.5-7.1,12.2-11.3c6.3-7.1,14.3-11.1,23.6-12.7
			c3.2-0.6,6.2,0.9,9.9,1.3c-4.5,2.1-8.9,1.5-13,2.9c-8.8,3-15.9,8-21.3,15.7c-4.9,6.9-12.2,10.4-20.5,11.1
			c-7.9,0.6-15.8,0-23.7-1.7c-6.9-1.5-12.8,2.3-14.8,9.4c-0.9,3.3-1.7,6.7-1.8,10c-0.5,14.7-10.9,25.1-25.5,26.4
			c-10.8,0.9-21.5-0.5-32.2-0.9c-3.6-0.1-7.4,0-10.8,1.1c-3.1,1-6.5,2.9-5.2,7.8c10.1-8.3,20.7-2.9,31.1-1.7
			c8.7,1,16.8,4.9,25.6,6.1c6.8,0.9,13.2-0.6,18.8-4.1c3.1-1.9,5.1-5.2,5.1-9.1c0-5.4,0.2-10.9-0.7-16.3c-1.1-6.5,0.7-13.1,9.2-16.2
			c8.9-3.2,17.6-1.8,26.2,0.3c13.3,3.3,22.7-1.7,30.2-12.2c1.8-2.5,3.7-5,5.9-7.2c5.9-5.7,13-5.3,20.4-3.7
			c-6.4,0.6-12.1,2.3-16.9,6.8c-3.3,3-5.8,6.6-8.4,10.2c-4.3,6-8.3,12.5-16,14.4c-6.3,1.5-12.7,0.8-19-1c-3.3-0.9-6.5-2-9.9-2.6
			c-9.2-1.7-14.8,2.6-15.2,12.1c-0.3,7.1,1.3,14.3-1,21.3c-2.9,9-10.9,14.5-20.4,14.9c-8.5,0.4-16.6-1.5-24.7-3.6
			c-2-0.5-3.8-0.7-6.2,0c8,10.6,18.1,17.5,30.5,20.4c12.7,2.9,21-2.5,26-14.9c2.6-6.4,3.9-13.1,5.8-19.6
			c3.8-12.8,10.4-16.3,23.3-12.8c5.2,1.4,10.3,3,15.4,4.4c12,3.2,20.3-1.6,26.8-11.7c11-17.2,27.3-25.3,47.6-25.1
			c10.1,0.1,19,4.2,26.6,11c-8.8-4.6-17.9-7.4-28.1-7.3c-10.1,0.1-18.3,4.2-26,10c-8,6-14.3,13.5-19.9,21.7
			c-4.9,7.1-12.9,7.9-20.6,8.4c-7.8,0.5-15.3-1.5-22.8-3.3c-10-2.3-14-0.9-17.9,8.4c-2.2,5.4-3.9,10.9-4.7,16.8
			c-0.9,7.3-6.2,12.2-12.2,15.8c-12.9,7.8-29.8,5.5-40.6-5.2c-7.1-7-13.5-14.7-22.4-19.5c-3.9-2.1-7.9-3.8-12.3-4.1
			c-2-0.1-3.3,1.3-1.9,2.6c4.4,4.3,2.9,9.1,1.6,13.8c-1.2,4.2-0.5,8.2,0.2,12.1c0.8,4.8,1.4,9.5-0.1,14.3c4.4-3.5,5.2-8.5,5.9-13.5
			c0.4-2.6,0.8-5.2,1.7-7.6c3.4-8.8,15.6-7.3,20.3-0.8c3.1,4.2,6,8.6,9,12.9c5,7.3,12.1,10.2,20.7,11.4c17.8,2.3,31.3-5.8,44.3-16.4
			c7.6-6.2,14.1-13.6,21.5-20c11.7-10.1,24-11.9,37.9-5.8c11.6,5.1,22.4,11.6,34.2,16.2c14.9,5.9,30,8.9,46.2,7
			c9.9-1.2,20.1-0.8,29.9-3.2c8.7-2.1,16.3-6.3,23.4-11.6c0.7-0.6,1.2-1.7,3.1-1.1c-6.2,6.2-13.6,10-21.1,13.6
			c-17.8,8.6-36.9,10.6-56.2,8.9c-16-1.5-30.8-7.7-44.9-15.3c-9-4.8-18.5-8.7-28.6-10.3c-8.9-1.4-15.9,3.1-21.9,9
			c-11,10.8-22.4,21.1-36.1,28.3c-15.6,8.2-31.3,10-47-0.3c-7.4-4.8-12.7-11.5-17.6-18.5c-2.1-3.1-4.7-5.4-8.6-4.6
			c-4.2,0.8-6.8,4.2-6.9,8c-0.4,9.9-6.1,17.1-11.3,24.4c-4.7,6.5-8.2,12.8-7,21.4c2.5,17-4.2,31.7-12.9,45.8
			c-5.5,8.9-10.2,18.3-12.1,28.9c-1.1,6.3-10.6,11.7-17.4,9.9c-1.8-0.5-3.5-0.6-5.6-0.3c2.2,5.5,7.6,7.2,11.5,10.3
			c5.1,4.1,9.3,8.7,12.6,14.2c4.3,7.2,8.1,14.9,15.3,20c4,2.8,8.1,5.3,12.8,6.8c2.7,0.9,4.7,1.3,5.2-3c0.6-5.5,2.6-10.9,4-16.7
			c-6.2,1.4-11.8,6.3-17.1-0.5c5.5,1.1,10.1-0.3,14-4.1c1.6-1.6,3.2-3.3,5.5-2c2.5,1.4,3,4.1,2.2,6.6c-1.3,4-3.1,7.9-4.8,11.7
			c-1,2.3-1.2,3.6,1.9,4.5c9.1,2.7,17.9,5.3,26.6-1.2c2.9-2.2,5.8-1.7,9.4-0.1c8.8,3.9,18.2,5.5,27.1-0.5c4.3-2.9,9.2-3.5,13.7-2.4
			c15.4,3.8,31.1,4.1,47,3.8c-2.2,1.9-2.2,2.1-10.2,3c-12.2,1.3-24.3,2-36.5-0.8c-4.6-1-9.1,0.6-13.2,2.8c-9,4.6-18,4.1-27,0.3
			c-1.7-0.7-3.4-2.1-5.5-0.7c1.9,4.7,7.6,7.6,13.1,6.4c6.9-1.5,13.8-2.5,21-2c6.5,0.5,12.3,2.6,18.2,5c14.3,5.8,29,7.5,44.4,6.4
			c12.2-0.8,24.4-2,36.4-3.6c14.1-1.8,28.2-3.6,42.4-3.4c14.7,0.1,29.4,1.6,42.1,10.5c1.5,1,2.6,2.5,4.2,3.4c0.1,0.8,0,1.4-1,0.8
			c-13.3-9.5-27.9-12.1-44.1-9.3c-17.2,3-34.3,6.4-51.7,8.5c-12.2,1.4-24.4,1.9-36.7,1.8c-13.2-0.2-25.8-3.4-38.3-7.3
			c-7.5-2.3-15.3-3.3-23-4.5c-1.9-0.3-4.7,0.2-6.1,1.4c-6.9,6.3-13.2,3-19.6-0.8c-1.8-1.1-3.4-2.6-5.1-3.8c-7.7-5.3-7.7-5.3-23.4-5
			c6.9,4.9,13.3,9.5,18.9,15.1c5.1,5.1,9.2,10.7,11.9,17.2c1.1,2.6,2.3,3.6,5.3,3.6c8.9,0,17.6-1.9,26.4-2.7
			c13.1-1.2,26.3-3.4,39.2,0.8c6.1,2,11.8,5.1,17.7,7.9c11.2,5.3,23.2,6.2,35.4,6c9.4-0.1,18.4,2.2,27.2,5.2c0.1,0.8,0.1,1.4-1,0.8
			c-6.8-1-13.6-2-20.5-2.8c-7.2-0.9-14.3,0.5-21.1,2c-13.9,3.1-27.1,1.3-39.9-3.7c-10.2-4-20.5-7.6-31.5-8.2
			c-4.1-0.2-8.2,0.5-12.4,0.7c-0.7,0-1.4,0-1.4,0.9c0,1.2,0.9,1.7,1.8,2.1c5.5,2.4,11.3,3.7,17.2,5c5.4,1.2,10.9,1.9,16.1,3.7
			c6.6,2.3,11.4,6.6,15.5,12.3c10.6,14.8,24.5,26.4,39.1,37.1c3.3,2.4,8,2.1,11.8,5.3c-3.5,1.2-6.3-0.1-9.1-0.3
			c-13.2-1-26.2,0.5-39.3,2.3c-25.3,3.5-50.8,6.8-75.7-2.5c-8.8-3.3-17.1-7.9-25.7-11.6c-5.1-2.2-10.5-2.7-16-2.2
			c-2.7,0.2-5.5,0.9-6.7,3.6c-1.4,3.3-3.8,2.7-6.1,1.8c-6.9-2.7-14.1-2.8-21.2-3.5c-13.6-1.4-27.2-0.8-40.8-1.1
			c-3-0.1-6-0.4-8.8-1.1c-3.5-0.9-5.7-3-5.1-7.1c0.7-5-1.1-6.5-6.1-5.3c-3.3,0.8-6.5,1.9-9.9,2.5c-11.8,2.1-23-1.7-34.4-3.4
			c-15.8-2.4-31.3-7.3-47.5-6.5c-14.4,0.7-28.3,4.1-42.2,7.7c-1.2,0.3-2.7-0.4-3.7,0.9c3.9,8.4,9.6,14.6,19.2,16.2
			c8.3,1.3,12.6,7.8,17.3,13.6c5.3,6.6,10,6.4,14.4-0.8c3.6-5.8,9.8-8.3,16.3-6.5c8.7,2.4,13.7,0.2,17.9-7.9
			c4.7-9,15.4-13.3,24.2-9.2c-2.4,0-4.2,0-6,0c-7.3,0-10.8,2.7-12.5,9.8c-1.1,4.3-2.5,8.2-5.8,11.5c-2.6,2.6-5.4,3.3-8.9,2.9
			c-3.6-0.3-7.3-0.4-11-0.3c-3.6,0.1-5.6,2.5-7.5,5.4c-6.4,9.3-13.6,11.7-22.6,4.5c-7.7-6.2-16.4-9-26-9.8
			c-7.3-0.7-11.9-4.6-13.3-11.6c-2-9.9-9.1-12.8-17.6-14.5c-13.6-2.8-26.2-0.3-38,7c-8.9,5.5-18.6,9.1-28.6,11.9
			c-5.1,1.4-9.9-1-14.6-2.5c-9.9-3.2-19.3-7.7-28.3-12.9c-13.6-7.8-27.3-5.5-40.9-0.4c-2.8,1-5.3,3.5-5.7,6.4
			c-1.7,11.7-8.8,17-20,17.3c-7.6,0.2-13.7,3.7-19.6,8c-10.3,7.4-16.9,6.6-23.9-3.7c-2.9-4.2-6.1-5.6-10.8-5.2c-2,0.2-4,0.1-6,0.2
			c-8.8,0-13.5-3.5-16.1-11.8c-3.7-11.9-4-12.1-16.3-12.2c-0.6,0-1.3-0.1-2-0.1c3.9-4,13.8-1.2,18,2.5c2.7,2.4,5.1,5,6.6,8.4
			c2.5,5.8,9.7,8.6,15.7,6.8c8.9-2.6,13.7-0.6,18,7.6c2.4,4.6,7.5,5.5,11.5,1.7c2.9-2.7,5.4-5.8,7.9-8.9c3.6-4.4,8.2-7,13.6-7.9
			c8.9-1.5,13.5-7.8,17.3-15c1-1.8-0.6-1.8-1.7-2.1c-12.4-2.8-24.8-5.4-37.3-7.1c-14.9-2.1-28.9,2.7-43.2,4.7
			c-12.9,1.8-25.6,5.8-38.8,5.5c-3.7-0.1-7.3-0.5-10.5-2.2c-2.4-1.3-4.8-0.9-7.2-0.8c-2,0-3.8,1.5-3.3,3.4c0.7,2.5,1.6,5-0.3,6.8
			c-2,1.8-4.9,2.7-7.7,2.6c-10.2-0.2-20.3,0.6-30.4,1c-12.9,0.5-26,0-38.4,4.8c-2,0.8-3.8,0.3-4.6-2.3c-0.9-2.6-3.2-3.3-5.8-3.5
			c-8.2-0.6-15.9,1-23.3,4.7c-10.5,5.2-21,10.7-32.8,12.9c-8.7,1.7-17.4,1.4-26.2,1.5c-16.7,0.2-33.1-3-49.6-4.9
			c-11.4-1.3-23.1-2.5-34.7-0.2c-0.9,0.2-1.9,0-4.1,0c13.7-4.8,23-13.9,32.5-22.5c7.7-7,14.8-14.6,20.7-23.3
			c5.7-8.4,15.3-10.4,24.7-12.2c8.4-1.6,16.9-3.1,25-7.7c-4.5-2.2-8.9-1.8-12.9-1.8c-12,0-23.2,3.9-34.3,8.4
			c-13.7,5.6-28,6.2-42.5,3.1c-13.1-2.8-26.1-1.6-38.9,1.7c-0.7,0.2-1.5,0.2-3.8,0.5c8.7-4.6,16.9-7.2,24.9-6.8
			c20.5,1,39-4.1,56.9-13.3c9.7-5,20.4-3.1,30.7-2.7c7.3,0.3,14.7,1.5,21.9,2.7c5.3,0.9,10.5,0.8,15.8,0.9c1.8,0,3-0.3,3.7-2.3
			c4.3-11.9,13.1-20.1,22.8-27.5c2.5-1.9,5.2-3.7,7.9-5.7c-6.5-1.8-11.1,1.9-15.9,5.2c-5.4,3.8-10.5,8.6-18,7.4
			c-1.1-0.2-2.2,0.1-3.2-0.8c-6.9-5.9-14.7-3-22-1.8c-10.9,1.8-21.1,6.2-32,8.1c-9.5,1.7-19,2-28.5,1.6c-6.6-0.3-13.2-0.2-19.9-0.9
			c-12.6-1.3-24.9-3.6-37.4-5.6c-11-1.7-21.7-4.8-32.9-4.7c-12.5,0.2-23.4,4.1-32.8,12.3c-0.4,0.3-0.8,0.6-1.2,0.8
			c-0.1,0.1-0.3,0-0.4-0.1c3.5-5.6,12.5-11.4,21.9-13.9c15.9-4.2,32-3.5,48.2-2.3c10.3,0.8,20.6,2.3,30.9,3.2
			c9.3,0.8,18.6,2.3,28,2.9c16.4,1,32.2-1.5,47.3-8.2c10.6-4.7,21.5-4.6,32.6-2c4.6,1.1,9.5,0.9,13.7-2.5c-3.6-3.9-7.1-4.6-12.3-2.4
			c-8,3.4-16.5,3.9-24.5-0.8c-6.9-4-14.3-2.8-21.5-1.8c-7.6,1.1-15.1,1-22.7,0.1c-4.1-0.4-8.2-1-12.2-1.4c-1.6-0.2-3.4,0.4-4.5-2
			c5.9,0,11.7,0.1,17.4,0c9.7-0.3,19.2-1.3,28.7-3.6c4.9-1.2,10-1,14.7,2.1c8.7,5.8,18.2,4.6,26.8,0.7c4.6-2.1,7.9-1.8,11.4,0.7
			c8.8,6.1,17.5,2.5,26.2-0.1c2-0.6,1.7-2.3,0.8-4.1c-1.8-3.8-3.7-7.5-4.8-11.6c-0.7-2.9,0-5.1,1.8-6.6c2-1.6,3.8,0.2,5.5,1.8
			c3.8,3.6,9.4,5.3,14.8,4.3c-2.8,2.5-5.3,4.1-8.4,3.4c-2.9-0.6-5.7-2-9.1-3.2c0.8,6.8,4.1,12.5,4,18.9c0,2.6,2.9,1.6,3.9,1.2
			c7.7-2.8,15-6.3,20.1-13.1c4.1-5.4,7.7-11.2,10.9-17.1c3.6-6.5,9.7-10.5,15.7-14.6c2.8-1.9,5.3-3.8,6.9-6.9
			c-4.5,0.3-8.7,2.8-13.4,1c-3.9-1.6-7.4-3.9-8-7.9c-2.5-15.6-11.1-28.2-19.6-40.9c-5.2-7.8-10-15.9-8.7-25.8
			c0.7-5.5,2.1-10.9,2-16.6c0-3.2-1.3-6.1-1.1-9.3c0-0.7-0.1-1.1-0.9-1.5c-9.7-4.8-11.4-14.7-15.1-23.4c-1.2-2.8-2-5.7-3-8.6
			c-1.6-4.7-3.8-5.3-7.4-1.9c-4.3,4-8.3,8.2-12.4,12.3c-10.9,11-23.9,17.2-39.6,15.5c-10.3-1.1-20.5-3-26.8-12.7
			c-3.4-5.2-4.2-11.2-5.2-17.1c-2.8-15.7-10.9-18.2-24.8-14.6c-5.2,1.3-10.5,2.2-15.9,2.7c-13,1.1-20.5-11.6-21.7-21
			c-0.8-6.6,0.7-12.7,5.8-18.7c-0.8,5.5-2.1,9.8-1.1,14.7c2,10.4,14.3,17.1,23.6,15.6c3.3-0.6,6.7-1.3,9.9-2.6
			c4.5-1.8,7.7-4.7,9.5-9.2c3.6-8.8,13.4-13.6,22.3-11c5.3,1.6,8.1,5.4,9,10.9c1.2,7.9,1.9,15.9,3.7,23.7
			c2.8,11.7,16.7,15.8,25.4,14c9.7-2.1,17.9-7,24.7-14.1c1.8-1.9,3.2-4.1,3.9-5.1c-7.4,2.7-16.9,1.7-26.3,1.4
			c-12-0.5-20.6-6.6-21.6-19.3c-0.4-5-1.4-10-2.7-14.9c-3-11.5-6.8-10.1-15.4-9.2c-4.2,0.4-8.2,1.8-12.6,0.8
			c-9.6-2-15.5-7.7-17.1-17.6c-0.7-4-1.5-8-3.5-11.6c-3.2-5.8-9.4-8.4-16.4-7c-6.3,1.2-12.6,7.8-13.1,13.6c-0.1,1.4-0.2,2.8-0.3,4.6
			c-5.1-7.6-2.3-16.9,3.1-20.8c6.6-4.7,14.2-6.1,21.9-5.3c8.3,0.9,13.5,8.2,14.3,18.3c0.2,3.1,0.6,6.2,1.2,9.3
			c2.4,10.8,9.9,14.1,21.5,11c2-0.5,4-1.3,6-1.9c8.1-2.6,12.2-0.8,15.2,7.2c2.3,6.2,3.4,12.9,5.9,19.1c4.5,11.6,10.5,15.8,22.9,16
			c10.6,0.2,20.6-2.6,30.6-5.8c6.8-2.1,13.5-1.8,20.1,0.9c1.2,0.5,2.6,1.7,3.4,0.2c0.9-1.5-0.5-2.9-1.7-3.7c-2.1-1.3-4.5-1.7-7-1.7
			c-11.2,0.1-22.3,0.2-33.5,0c-6.4-0.1-12.8-1.1-18.1-5c-8.3-6.2-11.9-15.2-13.4-25.2c-0.4-2.9-0.9-5.8-2-8.5
			c-1.8-4.2-5-6.1-9.5-6.3c-5.3-0.2-10.6,0.7-15.9,0.1c-7.3-0.8-11.2-4.6-11.6-12c-0.1-1.3-0.1-2.7,0-4c0.6-11.1-1-11.6-12.8-14.1
			c-8.5-1.8-17.4-2.3-25.1-7c-0.8-0.5-1.9-1-2.3-1.8c-2.8-6.7-9-7.6-15-9c-12.8-3-25-7.9-37.3-12.1c-14.7-5.1-30-8.2-45.4-4.8
			c-5.1,1.1-10.2,0.9-15.2,2.2c-6.7,1.8-13.2,4.2-19.7,6.5c-1.1,0.5-1.1,0-1-0.9c11.8-7.2,24.9-9.9,38.3-12.2
			c6.9-1.2,13.3-4.2,20.2-5.4c10.7-2,21.3-1.6,32-0.2c12.6,1.7,24.8,5.1,36.1,11.1c2.4,1.3,3.1,0.5,3.4-2.1c0.3-2.2,0.4-4.6,2.4-6.2
			c1.2,1.4-0.4,2.4-0.5,3.6c-0.7,6.7,0,8,6.5,9.1c15.4,2.7,30.9,3,46.4,1.2c3.6-0.4,7.3-0.3,11,0c4.9,0.4,9.5,6.2,10.1,12.3
			c0.7,6.9,2.6,9.7,9.4,9.4c10.1-0.4,15.1,5.2,18.5,13.2c4.2,9.8,11.5,15.9,21.7,17.7c8.1,1.5,16.4,0.7,24.5-1.3
			c6.1-1.5,12.5-2.4,17.2-7.2c4.3-4.4,5.2-8.8,2.7-14.8c-5.5-13.2-0.7-21.6,13.4-23.4c9.3-1.2,13.2-4.8,15.4-16
			c2.9-14.7,1.8-29.1-4.8-42.9c-3.3-6.8-8-11.8-15.5-12.9c-8.3-1.2-11.7-6.6-12.5-13.8c-1.5-13.4-6.5-25.2-15.6-35.1
			c-7.1-7.8-16.2-13.2-24.7-19.4c-10.2-7.5-20.8-14.6-29.5-23.9c-1.2-1.2-3-2.2-2.4-4.8c7.3,3.4,13.6,8.2,19.8,13
			c11.4,8.6,23.2,16.5,33.9,26c11.5,10.2,17.7,23,20.1,37.7c1.6,9.7,5.4,15.9,15.3,18.5c6,1.6,10.5,5.8,13.2,11.6
			c8.1,17.2,10.6,34.8,3.8,53c-2.7,7.1-7.6,11.7-15.2,13.1c-2.3,0.4-4.4,1.1-6.5,1.9c-6.1,2.3-7.3,4.5-5.6,10.7
			c4.9,18.4-2.8,29.7-21.9,32.6c-6.4,0.9-12.8,1.4-19.2,1.9c-13.6,1.1-22.6-5.8-29.2-16.9c-1.9-3.2-3.5-6.7-6.3-9.5
			c-3.4-3.3-7-5.5-12-5.8c-6.2-0.3-9.8-3.3-11.1-9.7c-2.5-12.4-10.6-13.5-18.9-12c-16.7,3-33,2.3-49.2-2.2c-2.1-0.6-3.9-1.9-3.4,2.9
			c0.6,5.8,2.9,5.8,7.4,6.2c8.6,0.8,17.3,1.1,25.9,0.8c7.6-0.3,15.1-1.5,22.7-1.8c7.7-0.3,14.8,6,14.3,13.5
			c-0.7,10.8,5.3,11.9,13.1,12.2c8.9,0.4,14.2,4.3,18.1,11.7c2.2,4.1,4.5,8.2,7.1,12.1c5.6,8.5,14.3,11.3,23.8,12.5
			c14,1.7,27.3-1.2,40.1-6.6c8.5-3.6,12.8-11.8,7.9-21.7c-1.8-3.7-2.9-7.7-2.3-11.7c1.5-11.1,8.2-13.4,18.7-14.9
			c7.8-1.1,12.6-4.2,15.1-11.6c7-20.6,5.1-40.4-4.9-59.5c-3.9-7.5-10.7-11.3-18.6-13c-7.6-1.6-10.8-6.6-11.9-13.6
			c-2.3-14.1-6.1-27.4-15.4-38.9c-7.4-9.1-16.9-15.7-26.2-22.4c-12.7-9.1-25.4-18.2-37.1-28.5c-2.5-2.2-4.4-5.2-7.2-8.6
			c5.2,0.6,8.3,3.3,11.4,5.5c18.1,12.7,36.3,25.4,53.1,39.8c12.4,10.6,18.7,24.9,22.3,40.5c0.8,3.6,1.3,7.4,2.1,11
			c1.2,5.8,4.7,9.6,10.3,11.1c15.9,4.3,23.2,15.9,26.9,30.7c3.7,14.9,4.5,29.8-0.3,44.6c-3.2,9.9-9.2,16.6-20.2,17.8
			c-2.9,0.3-6,1.5-8.6,3c-3.5,2-6.4,4.4-4.4,9.5c1.3,3.4,2,7.3,2.2,11c0.8,14.5-8.1,25.7-22.9,28.3c-8.9,1.6-17.9,2.4-26.9,3
			c-16.8,1.1-27.3-8.5-34.9-22c-4.1-7.2-8.8-14.5-17.2-15.2c-11.5-0.9-15.3-7.4-17.3-17.1c-1-4.6-7.3-8.6-12.6-8.7
			c-4.6-0.1-9.2,0.2-13.8,0.9c-11.5,1.8-23,1.7-34.5,0.1c-0.5-0.1-0.9,0.1-1.9,0.2c4.1,6.9,10.7,8.2,17.5,8.7
			c7.2,0.5,14.3,1.6,21.2,3.2c5.8,1.3,8.3,6.4,6.9,12.2c-1.8,7.8,2.9,13.9,10.9,13.6c4.5-0.2,8.9,0.7,13.3,1.3
			c4.5,0.6,8,3.2,9.2,8.2c1.3,5.5,2.3,11.2,4.5,16.4c6.7,15.6,19.2,20.3,34.8,17.7c7.5-1.3,15.1-2.3,22.6-1.4
			c5.6,0.7,9.8,4.1,12.8,9c4.5-6.3,0.4-12.6-8.4-14.2c-9-1.6-18.1-0.6-27.2-1.8c-13.6-1.8-24.9-6-29.4-20.7
			c-0.3-1.1-1.3-2.2-0.3-3.1c0.9-0.8,2.1-0.2,3.1,0.6c2.2,1.7,4.7,3.1,6.7,5c7.2,6.5,15.6,9.2,25.2,9.2c5.5,0,11,0.1,16.3,1.1
			c7.7,1.3,14.8,4.3,18.8,12.4c7.4-19.9,22.1-32.1,39-42.3c12.1-7.3,24.1-14.6,38.3-17.2c0.9-0.2,1.7,0.1,2.1-1.3
			c2.4-8.9,10.3-11.5,17.5-14.7c10.7-4.7,22.3-5.7,33.4-9c12.2-3.5,23.9-7.8,34.3-15.6c16.8-12.6,20.3-27.8,10.6-46.3
			c-6.6-12.5-17-21.3-27.6-29.9c-8-6.6-16.6-12.6-20.2-23c-2.6-7.5-1.5-14.9,4.4-19.9c14.1-11.9,6.3-29.5-4.5-37.4
			c-7.2-5.3-15.7-7.7-23.6-11.4c-21.3-10-33.7-27.8-39.2-50.1c-6.3-25.5,0-48.5,16.6-68.7c1.2-1.4,2.2-2.9,3.4-4.3
			c0.7-0.9,1.6-1.6,2.9-2.1c-2.7,5-5.5,10-8.1,15.1c-7.7,15.1-12.2,31-10.9,48.1c1,13.1,6.6,24.3,15.2,34.2
			c11.2,12.9,25.3,21.7,40.8,28.1c15.7,6.4,21.4,19.1,24.1,34.7c1.7,10.3-2.7,17.3-9.2,24c-4.1,4.2-3.9,7.5,0,11.8
			c3.5,3.9,7.7,6.5,12.2,8.8c14.1,7.1,24.1,18.4,32.3,31.6c5.5,8.9,8.9,18.4,8.5,29c-0.3,9.5-4.1,17.5-10.1,24.8
			c-13.2,15.9-30.8,23.3-50.4,27.5c-12.4,2.6-24.8,5.1-36.9,8.8c-2.8,0.8-5.2,2.1-7.3,4c-2,1.8-1.3,3.5,0.2,5.1
			c1.5,1.5,3.2,1.6,4.8,0.1c16.3-16.3,36.9-14.4,57.3-13.3c10.7,0.6,21.6,0.8,32-2.2c9.5-2.7,19-5.4,27.7-10.5
			c11.9-6.9,20.1-16,22.3-30.2c2.4-15.2,1-29.6-6.9-43c-9.6-16.4-25-24.6-42.5-29.9c-6.9-2.1-13.6-4.5-19.6-8.6
			c-7.5-5.1-9.6-12.1-6-20.5c1.8-4.4,4.3-8.4,7.2-12c9.6-12.2,9.7-26,6.7-40.1c-2.1-9.6-6.9-18.2-12.5-26.2
			c-12-17.3-19.1-36.3-22.1-57.2c-3.4-23.5-0.9-46,10.5-66.8c13-24,33.7-39.6,58.3-50.5c2.4-1.1,5-1.1,8.2-0.7
			c-7.5,4.1-14.7,7.6-21.6,11.8c-21.5,12.9-38.4,29.6-45.4,54.6c-4,14.1-3,28.4-1.9,42.8c0.9,12,3.5,23.5,7.6,34.7
			c4.2,11.5,11.6,20.9,18.7,30.6c9.6,13.2,13.2,28.3,11.8,44.4c-0.6,6.7-2.4,13.3-5.7,19.4c11.8-3.7,24.3-19.7,18.3-35.9
			c-3.7-10-8.8-19.4-11.9-29.6c-5.2-17.1-8.6-34.5-7.5-52.3c2.2-35.5,19.1-62.2,49.9-80.2c9.2-5.4,18.9-9.5,29-12.9
			c1.3-0.4,2.5-0.7,4.2-0.1c-12.2,5.7-23.7,11.9-34.3,19.7c-13.1,9.7-24.8,20.6-30.2,36.6c-2.9,8.6-3.2,17.7-4.6,26.6
			c-1.2,7.7-1.1,15.5-1.2,23.3c-0.2,13.2,3.1,25.5,8.6,37.2c4.7,10.1,9.5,20.3,11.1,31.4c1.9,13.1-1,25.1-10.4,34.8
			c-6.4,6.6-12.8,13-18.1,20.4c-6.1,8.4-7,13.2,4.7,17.6c10,3.8,20,8.1,28.3,14.9c16.4,13.5,30.6,29.4,28.6,52.3
			c-2.3,26.1-16.3,45.1-41,55.5c-12.5,5.2-25.5,8-39,8c-1.7,0-3,0.7-4.3,1.5c7.6,3.1,15.4,5,23.3,6.6c6.2,1.3,11.4,5.4,17.8,6.6
			c14.8,2.6,29.4,3.3,41.7-6.9c10.6-8.9,17.9-20.2,20.9-34.2c1.7-7.9-0.1-15.9,1.8-23.7c1.2-5.1,2.6-10,4-15
			c2.8-10-0.3-19.4-3.4-28.7c-3.3-9.6-9.1-17.7-16.6-24.6C572,320,566,312.8,563,303.7c-5.4-16.4,7.2-25.3,19.5-24.4
			c6.3,0.5,12.5,0.1,18.8,0.1c13.6,0.1,21.8-9.9,24.5-21.4c2.6-10.8,1.4-21.5-2.5-31.8c-8.3-21.9-13-44.4-11.3-67.9
			c1.1-16.1,5.7-31.3,14.5-45c-1.9,5.5-4.1,10.9-5.6,16.5c-4.4,16.7-3.8,33,1.8,49.4c5.1,14.6,10.3,29.3,11.8,44.8
			c1.8,18-0.2,35.9-8,52.4c-4.1,8.6-13,10.6-21.8,11.6c-6.2,0.7-12.2-1.5-18.3-1c-2,0.2-3.8,0.3-5.8,0.8c-10.2,3-13.2,10.6-7,19.3
			c4.9,6.9,10.2,13.6,15.4,20.3c5.1,6.6,9.1,14,11.4,21.8c3.3,11.1,8.9,20.9,14.1,30.9c7.7,14.7,11.3,30.6,9.2,47
			c-2.5,19.1-12,34.4-28.6,44.8c-5.9,3.7-11.8,7.3-18.7,9.3c28.3,4.9,63.5-12.8,65.2-39.2c2.6,15.2,11.8,25,24.8,32.2
			c12.9,7.1,26.7,8.4,42.1,7.7c-9.8-3.8-18-8.3-25.6-14.1c-11.8-9.1-19.1-21.1-22-35.6c-3.9-20,0.8-38.6,10.4-56.1
			c5.3-9.6,10.7-19.1,14.3-29.4c4.5-12.6,12.8-22.8,21.1-33.1c2.6-3.2,5.4-6.3,6.8-10.1c2.9-7.8-2.6-15.2-11.5-15.5
			c-6.6-0.2-13.4,0.9-19.8,0.5c-14.4-0.9-22.9-3.7-28-21.5c-3.9-13.5-5.6-27.2-4.3-41c1.3-14,5.7-27.4,10.2-40.7
			c3.5-10.4,6.7-20.8,6.6-32c-0.1-11.5-2.4-22.4-6.4-33.1c-0.4-0.9-1-1.7-0.5-3c0.4,0.2,0.9,0.4,1,0.7c6.9,13.2,10.8,27.3,11.8,42.2
			c1.5,24.2-4.3,47.1-12.3,69.7c-4.3,12.2-4.6,24.7,1.4,36.7c4.6,9.1,12,13.4,22.1,13.5c6.7,0,13.3-0.1,20,0
			c16.2,0.4,22.4,11.7,17.3,25.6c-3.2,8.7-9.3,15.6-16.2,22c-10.8,10-16.7,22.7-19.5,37.1c-1.6,8.3,0.3,15.8,2.7,23.6
			c2,6.5,2.6,13.1,2.5,19.9c-0.2,19.5,9.1,34.7,23.6,46.4c8.7,7,19.8,8.1,30.9,6.9c8.3-0.9,16.1-3.4,23.7-7.1
			c5.3-2.6,11.3-3,17.4-2.4c5.1,0.5,9.1-3.3,14-4.1c-9.5-3.7-19.4-4.6-29.2-6.1c-16.5-2.5-31.8-8.6-43.7-20.1
			c-13.1-12.7-20.4-28.8-19.6-47.5c0.5-11.3,5.2-21.4,12.2-30.3c11.5-14.6,26.5-24,43.9-30.1c10-3.5,11-7.1,5.2-16.2
			c-4.3-6.7-9.7-12.7-15.4-18c-16.1-15-16.9-32.5-10.5-51.7c3.7-10.9,9.8-20.9,13-32c3.7-13,4.1-26.2,2.6-39.7
			c-1.2-10.5-2-21-4.3-31.2c-3.4-14.7-13.7-25-24.7-34.3c-11.2-9.5-24-16.8-37.4-23c-1.1-0.5-2.3-1-3.6-1.5c2-1.5,3.8,0.1,5.4,0.6
			c20.8,7,39.7,17.1,54.5,33.7c11.8,13.2,19,28.7,21.8,46.3c5,31.1-1.8,60.2-15.2,88c-9.5,19.7,0,36.5,18.5,44.5
			c-1.5-3.3-3.1-6.1-4.1-9.1c-6.9-21.4-4-41.8,9.6-59.4c12-15.4,20.7-32,23.7-51.1c4-25.1,5.7-50.2-7.7-73.5
			c-6.6-11.5-15.6-20.8-26.1-28.7c-1.3-1-2.5-2-3.9-3.1c3.8-1.5,6.8,0.2,9.4,2.3c20.7,16.7,34.2,37.7,37.8,64.4
			c4.3,32.3-2.6,62-20.5,89.2c-6.4,9.8-12.4,19.8-14.5,31.6c-2.3,13.5-1.6,26.3,7.3,37.6c1.8,2.3,3.2,4.9,4.8,7.4
			c9.1,14.9,1.8,23-10.4,28.6c-8.2,3.8-17.1,5.8-25.4,9.4c-19.2,8.4-33,22.2-36.9,43.4c-2.9,15.6-2.3,31.3,8.7,44.3
			c7.7,9.1,18.4,13.9,29.3,18.1c13.9,5.3,28.3,8.4,43.3,6.9c6.1-0.6,12.2-1.1,18.4-0.8c9.8,0.4,19.5,1.2,28.9,4.8
			c4.9,1.9,9.3,4,12.1,8.5c0.9,1.5,2.2,1.9,3.8,1.6c1.6-0.3,2.7-1.5,3.1-2.9c0.4-1.6-0.4-3.1-1.9-4.2c-5-3.6-11.1-4.5-16.9-5.9
			c-15.9-3.7-32.1-6.6-47.5-12.2c-13.3-4.9-24.8-12.8-33.3-24.3c-9.9-13.4-10.4-28.1-3.8-43.1c6.4-14.5,16.6-26,29.2-35.4
			c4.7-3.6,10.5-5.7,15.4-9.1c6.9-4.7,10.7-10.7,2-18.3c-9-7.9-7.8-17.9-5.8-28.3c3.2-17.2,15.4-25,30-31.5
			c20.7-9.2,37.7-22.9,45.7-45c6.5-17.9,3.1-35.6-3.5-52.7c-3.3-8.6-7.7-16.7-12.4-24.6c7.8,7.9,14.3,16.6,18.8,26.8
			c13.9,32.2,4.3,68-21.3,90.5c-5.5,4.9-12.1,8.1-19.2,10.3c-10.9,3.5-20.9,8.9-26.9,19.1c-5,8.3-5.6,17.2,2.7,25.8
			c10.8,11.1,9.6,21-1.3,33.5c-6.6,7.6-15.3,13.1-22.9,19.5c-11.4,9.7-19.5,21.4-22.8,36c-1.9,8.7,0.9,16.8,6.9,23.8
			c10.2,11.7,23.7,17.6,37.9,22.3c12.5,4.1,25.6,5.5,38,9.9c5,1.8,9.8,4.2,14.4,6.9c-5.8-9-15-13.9-23.4-19.9
			c-9.1-6.5-17.9-13.5-23.9-22.9c-8.8-13.8-8.4-30.6,2.5-46.2c9.2-13.2,22.9-20.2,37.4-25.6c10.8-4,15.5-13.4,15.9-23.3
			c0.4-8.6,0.2-17.3,0.1-25.9c-0.2-12.5,5.9-22,14.8-29.9c5-4.5,10.7-8.1,16.6-11.5c18.1-10.6,26.3-26.3,24.8-47.3
			c-0.5-6.6-1.6-13-3.8-19.3c0.5-0.4,1-0.4,1.4,0.1c5.3,11.3,8.2,23.1,7.2,35.7c-1.2,15.6-8.5,27.8-22,35.6
			c-9.1,5.2-17.5,11-24.7,18.7c-9.4,10-9.8,22.4-7.9,34.4c2.8,18-2.4,31.4-17.4,41.6c-8.1,5.5-16.5,10.4-24.6,15.7
			c-18,11.9-20.8,41.2-5.7,55.5c5,4.8,10.3,9.2,16.3,12.6c12.1,6.8,20.9,16.6,28,28.2c0.6,1,1.2,2,1.8,2.9c0.7,1.1,1.6,2.3,3.1,1.9
			c1.8-0.4,1.2-2,1.2-3.3c-0.1-10.4-5.2-18.7-11.4-26.4c-7-8.7-13.9-17.4-16.1-28.7c-1.2-6-3.6-12.1,0.2-18.1c1.8-2.9,4.1-5.1,7-6.7
			c1.8-1,4-2.9,5.7-1.2c1.5,1.4,0.6,3.9-0.3,5.9c-1.3,2.9-2.2,6-2.3,9.4c-0.6,15,5.8,27.6,13.2,39.8c0.6,1,0.7,2.6,3,3.3
			c-0.5-4.6-1.6-9-2.4-13.2c-2.1-11.5,0.9-22.5,2.8-33.6c0.2-1.1,1-2,1.6-3c0.6-1.1,1.5-1.4,2.5-0.8c0.9,0.5,1,1.1,0.8,2.4
			c-1.9,10.3-1.4,20.8-1.4,31.2c0,10.4,2.4,19.9,9,28.2c3.1,3.8,7,6.4,11.5,8.3c11.4,4.8,13.9,9.8,9.9,21.5c-1.1,3.1-0.5,4.6,2,6
			c5.7,3.3,9.7,8.9,15.6,11.8c5.6,4.2,9.3,9.9,12.4,16c1.5,2.9-0.3,5.7-1.5,8.5c-8.7,19.4-24.1,32.3-41.3,43.6
			c-3.5,2.3-6.7,5-10.2,7.2c-7.9,5-12,13.2-17.5,20.8c5-3.2,8.2-7.6,11.6-11.8c4.9-6.1,9.7-12.3,16.9-16.1c0.6-0.3,1.2-0.7,1.8-0.9
			c1.3-0.5,2.9-2.2,3.9-0.5c1.1,1.9-1,2.9-2.3,3.7c-2.4,1.6-4.3,3.6-6.5,5.4c-7.1,5.5-12.2,12.7-17.4,19.8
			c-4.8,6.6-9.5,13.2-16.1,18.2c9.1-7.2,17-15.4,23.1-25.3c8.8-14.3,21.8-23.6,37.2-29.6c14.7-5.7,15-5.8,21.7-13.4
			c-7.5,7.3-16.4,11.9-26.4,14.6c-0.8,0.2-1.6,0.4-2.4,0.5c-1.5,0.2-3.3,0.6-3.9-1.1c-0.5-1.4,1-2.4,2.2-3c6.9-3.9,11.7-9.8,16.3-16
			c3-4,5.7-8.2,7.5-12.9c1.3-3.2,2.9-6.2,7.2-5.3c0.7,0.1,1.3-0.1,1.9-0.6c7.8-6.8,17.4-6.7,26.9-7.1c9.3-0.4,17.9-3.5,26.4-7.1
			c4.4-1.9,7.5-5.5,9.6-9.8c8.9-18.4,24.1-27.3,44-29.1c5.1-0.5,10.2-1.5,15.3-2.4c6.7-1.2,12.6-4,17.3-9.2
			c4.9-5.3,11.3-8.1,18.4-8.9C1112.7,432.3,1114.3,432.3,1115.9,431.2z"/>
		<path d="M937.9,427c7.8,6,7.5,13.5,4.1,21.7c-3,7.2-1.2,13.2,5.7,16.5c15.7,7.5,32,10.3,48.7,2.7c6.2-2.8,9.3-8.8,12.2-14.4
			c3.9-7.7,8.4-13,18.2-12.8c7.3,0.2,9.4-2.9,10.1-10.5c0.6-6.8,5.6-11.7,12.3-11.2c11.8,0.9,23.5,1,35.3,0.9
			c12.1,0,23.7-2.4,34.4-8c12-6.3,25-8.5,38.3-10.1c13.5-1.7,26.2,0.6,39.2,3.7c7.8,1.9,16.3,1.6,24.3,3.5
			c8.4,1.9,16.3,5.3,23.8,9.4c0.6,0.3,1.5,0.8,1.3,2.4c-9.2-4.4-18.7-7.4-28.6-9.2c-3.6-0.7-3.6-0.9-6.8,1.1c-0.7,0.4-1.3,0.3-1.9,0
			c-14.5-6-28.8-2.6-42.7,1.8c-16,5.1-31.6,11.5-48.2,15c-1.9,0.4-4.4-0.8-5.9,1.5c-14.5,4.7-29.2,3.2-43.8,0.9
			c-2.8-0.5-5.6-0.8-8.4-0.4c-5.5,0.8-9.6,3.5-11.6,9c-1,2.8-1.8,5.7-3.1,8.4c-2,4.1-5.1,7.1-9.9,7.4c-10.3,0.7-16.6,6.8-21.3,15.2
			c-2.1,3.8-4.6,7.2-7.4,10.6c-8.9,10.7-20.5,13.6-33.7,12c-5.6-0.7-11.3-1-16.9-1.7c-8.2-1.1-15.6-3.3-20.9-10.1
			c-2.6-4.4-6.6-7.7-7.4-13.6c-0.5-4,0.3-7.5,1.1-11c3.3-14.8,2.1-16.3-11.3-19.2c-12.8-2.7-19-10.2-21.7-21.5
			c-4.9-20.4-2.3-39.9,8.1-58.3c3.3-5.9,8.6-9.6,14.8-11.3c10.2-2.9,15.1-9.3,16.6-19.6c2.2-15.3,7.9-29.3,18.5-40.8
			c6.6-7.2,14.5-12.9,22.4-18.6c13.1-9.5,25.7-19.7,39.4-28.4c1.9-1.2,3.9-2.1,6.2-2.8c-1.7,4.1-4.7,7.3-7.9,10.1
			c-10.9,9.8-23,18.1-34.8,26.7c-10.2,7.5-20.9,14.5-28.6,24.9c-7.7,10.5-11.4,22.5-13.4,35.1c-1.5,9.8-4.7,13.9-14.2,15.9
			c-11.3,2.4-16.7,10.7-20.4,20.4c-6.7,17.2-7.2,34.6-0.9,52.3c3.1,8.6,9.9,10.3,17.6,11.4c13,1.9,20.1,10.6,14.2,24.7
			c-5.9,14.2,0.9,21.2,12.4,25.1c10.7,3.7,21.9,5.8,33.3,5c14.5-1.1,25-8.4,31.1-21.8c0.9-2,2-4.1,3.2-6c3.6-5.9,8.9-9.2,15.9-9
			c2.9,0.1,5.6-0.4,8.2-1.3c2.9-1,4.7-2.6,4.9-6.4c0.6-11.1,3.6-15.6,12.7-17.9c4.7-1.2,10.1,0.6,15.2,1c11.9,0.9,23.9,0.4,35.8,0.2
			c16.9-0.3,30.8-9.3,46-14.7c10.8-3.8,22-5.6,34.9-6.3c-6.1-2.6-11.3-2.2-16.2-2.3c-11.5-0.2-22.7,1.8-33.5,6.1
			c-16.1,6.4-32.5,11.4-49.7,13.4c-9.2,1-18.5,0.4-27.7-1.3c-5.3-1-10.6-1.3-15.5,2.3c-3.2,2.3-3.9,5.5-4.8,8.6
			c-1.9,6.9-6,10.1-13.2,10.8c-7.7,0.7-11.7,6.7-15.4,13.1c-4.8,8.5-11.1,15.7-21.3,18.3c-3.2,0.8-6.3,0.7-9.4,0.4
			c-8-0.8-16.1-0.4-23.9-2.9c-15.2-4.8-21.3-14.4-17.2-30.2c2.2-8.3,1.1-11-7.1-12.7c-9.9-2-17.6-6-20.8-16.2c-1.5-4.9-2-9.9-2.4-15
			c-0.8-11.5,1.1-22.3,5.6-32.8c3.4-8,8.9-13.8,17.3-15.9c7.9-2,11.3-7.2,12.2-14.5c2.7-22.6,15.3-38.8,33.5-51.3
			c12.5-8.6,24.2-18.5,37.2-26.4c1.3-0.8,2.5-1.9,5.6-1.5c-5,4.9-8.9,9.6-13.6,13.3c-11.9,9.2-24.6,17.5-36.3,26.9
			c-12.5,10-21.2,22.6-23.3,39c-0.4,2.9-1.2,5.7-2,8.6c-1.1,4.1-3.5,7.2-7.9,7.9c-13.4,2.3-19.1,11.8-22.5,23.7
			c-3.6,12.5-3.5,24.8,0.1,37.3c2.2,7.7,6.8,11.5,14.5,11.9c2.3,0.1,4.4,0.8,6.4,1.9C936.4,426.4,937.2,426.4,937.9,427z"/>
		<path d="M138.8,373.9c14.6-8.4,33-6.1,45.3,3.4c4.4,3.4,7.6,7.6,10.9,11.9c2.9,3.7,6.6,6.4,11.5,6.8c0.5,0,1.1-0.1,1.5,0.1
			c13.4,6.9,23.6-0.3,33.9-7.5c2.8-1.9,5.6-3.9,8.6-5.4c4-1.9,6.5-0.4,6.4,4.1c0,3.1-0.3,6.3-1.2,9.2c-1.9,6.3-0.5,12,2.3,17.5
			c2.5,4.8,8.5,6.5,15.8,4.7c8-2,10.8,0.4,12.3,8.5c1.7,8.8,1.5,18.6,9.5,25c6.5,5.3,13.8,9,22.4,5.1c8.2-3.7,10.3-11.3,10.9-19.3
			c0.8-10.3,4-18.4,14.2-22.9c7.8-3.5,12-19,8.5-28.2c-3.6-9.4-11.5-13.7-20.2-17c-5.1-2-10.4-3.7-15.2-6.3
			c-7.7-4.1-9.1-9.4-4.4-16.9c2.1-3.4,4.6-6.8,5.2-10.9c1.6-11.5-0.2-22-8.4-30.9c-9.3-10.1-21-17.4-31.9-25.5
			c-8.6-6.4-16.2-13.6-22.5-22.1c-8.7-11.7-20.3-16.5-34.6-15.6c-1,0.1-2,0-3.1-0.4c5.8-3.6,12.2-4.3,18.7-3.2
			c6.9,1.2,12.7,4.9,17.7,9.9c11.1,11.2,21.1,23.4,34.2,32.4c6.9,4.7,13.6,9.6,20.1,14.8c17.7,14.2,19.6,32.2,11.7,50.9
			c-4.8,11.3,0.4,14.1,8.5,15.6c11.8,2.2,21.9,6.9,27.7,18.3c6.1,12.1,2.6,23.4-3.2,34.4c-2.9,5.6-6.8,9.1-13.7,9.6
			c-4.9,0.3-4.9,5.5-5,9.2c-0.2,5.3-0.3,10.5-1.7,15.7c-4.8,17.1-22.1,18.8-34.9,9.9c-6.4-4.5-10.6-10.5-12.8-18
			c-2.1-7.3-7.3-11.6-14.3-13.9c-3.2-1.1-6.5-1.9-9.7-3.1c-5.5-2.2-8.3-6.3-8.7-12.3c-0.2-3.4-0.9-6.8-1.9-10
			c-1.4-5-3.5-5.8-8.3-3.8c-7.3,3-14.6,5.7-22.7,6.5c-12.4,1.2-22.2-2.7-28.3-13.3c-9.7-16.7-29.2-22.7-48.1-17
			C141,374.1,140.3,373.9,138.8,373.9z"/>
		<path d="M937.9,427c-0.8,0-1.5-0.1-2.3-0.1c-1.6-4.7-5.8-7.8-7.7-12.5c-4.2-10.5-6.3-20.9-0.4-31.6c5.6-10.1,14.7-14.7,25.5-16.8
			c0.2,0,0.3,0,0.5,0c10.8-1.1,13.7-5.8,9.7-15.8c-5.5-13.6-7-27.2,1.6-40.2c5.2-7.9,12.5-13.5,20.3-18.5
			c17.5-11.2,31.2-26.5,45.9-40.8c9.3-9.1,20.5-10.9,32.7-6.7c1,0.3,1.8,0.6,2,1.5c-15-1.8-28,2.8-37,14.7
			c-10.1,13.5-23.2,23.2-36.5,32.8c-8.6,6.2-16.8,12.7-23,21.4c-2.9,4.1-3.5,8.9-4.4,13.8c-1.5,8.9,1.2,16.1,5.9,23.4
			c4.4,6.8,3,10.3-3.7,15c-5.3,3.7-11.4,5.3-17.3,7.4c-12.5,4.4-21.3,14.2-20.5,24.9c0.6,9.2,3.3,17.7,12.8,22.1
			c8.4,3.9,10.2,11.7,11,19.8c0.6,5.8,1.4,11.4,5.3,16c7.2,8.6,18.6,7.1,27.6,0c6.5-5.1,7.5-12.7,9.2-20c0.4-1.8,0.8-3.5,1-5.3
			c0.8-7.9,4.2-10.6,11.7-9.3c14.2,2.4,22.4-6.7,19-21c-0.8-3.2-1.5-6.4-1.7-9.6c-0.3-4.9,1.9-6.2,6.4-4.5c5.3,2,9.1,6.2,13.8,8.9
			c4.8,2.7,9.5,5.3,15.1,6.4c4.8,0.9,8.5-1.6,12.7-2.1c8.1-0.9,12.5-6.1,17.3-11.8c13.8-16.4,36.5-21.7,55.5-9.2
			c-5.1-1.2-9-2.8-13.4-3.3c-17.7-2-31.2,4-40.6,19.4c-6.6,10.8-19.3,15.5-31.8,12.5c-6.3-1.5-12.4-3.5-18.4-6
			c-5.8-2.4-9-0.5-9.7,5.8c-0.3,2.1-1,4.3-0.9,6.3c0.2,9.9-6.2,14.1-14.3,16.1c-10.1,2.4-16.3,7.4-19.5,17.9
			c-3.1,10.2-15.6,20.7-28,20.4c-9.4-0.2-17.9-7.5-19.4-18.2c-0.6-4.6-0.9-9.2-1-13.8C948.6,429.1,947.5,428.3,937.9,427z"/>
		<path class="st0" d="M934.9,482.4c9.5,7.8,20.8,9.1,32.5,9.8c7.7,0.5,15.5,1.9,23-0.4c9.9-3.1,16.3-10.7,21.4-19.3
			c2.4-4,4.8-7.8,7.9-11.1c3.7-3.9,8.4-5.9,13.5-6.1c7.4-0.2,10-4.6,12-10.6c1.5-4.7,2.5-9.7,7.7-12.3c4.1-2.1,8.2-2.9,12.4-2.2
			c14.7,2.5,29.3,4,44.1,0.9c0.8-0.2,1.7,0,2.5,0c0,0-0.1-0.1-0.1-0.1c0.3,0.2,0.4,0.4,0.4,0.7c-0.1,0.3-0.2,0.4-0.3,0.4
			c-7.4,1.2-14.3,3.9-19.3,9.6c-5.2,6-12,8-19.2,9.3c-8.4,1.5-16.8,2.4-25.1,4.2c-12.6,2.8-22.8,10-28.1,21.6
			c-5.7,12.4-15.8,17-27.6,20.3c-7.7,2.2-15.6,1.9-23.4,2.8c-6.2,0.8-11.8,2-15.9,7.1c-0.5,0.7-1.3,1.6-2,0.8
			c-4.1-4.7-4.8,0.2-5.7,2.2c-5.8,13.3-13.9,24.6-26.9,31.8c-0.2,0.1-0.3,0.6-0.7,1.3c13.7-2.1,25.1-8.1,34.7-17.6
			c-1.4,6.3-5.9,10-11.4,12.5c-5.1,2.4-10.4,4.5-15.7,6.7c-15.3,6.2-26.7,16.7-35.2,30.8c-5.9,9.9-14.3,17.4-24.1,23.3
			c16.4-14.9,24.2-37.6,44.9-48.5c-7.7,2-15.5,8.4-21.4,16.9c-5.3,7.6-10.4,12.2-15.4,14.1c6.2-14.2,17.4-24,30.2-32.4
			c12.7-8.4,25-17.1,33.2-30.4c2.7-4.4,5.6-8.8,7.9-13.4c3.4-6.6-2.5-10.4-5.3-15c-1.6-2.6-4.1-4.6-5.5-7.4
			C935,482.7,934.9,482.4,934.9,482.4z"/>
		<path d="M369.8,186.8c-3.4,9.3-5,18.7-4.9,28.5c0.3,18.9,8.7,32.8,25,42.1c11.2,6.4,21.7,13.8,27.7,25.7c2.3,4.5,3.6,9.3,3.5,14.5
			c-0.2,8.2-0.2,16.3,0,24.5c0.4,13.9,5.6,22.8,17.8,26.4c9.4,2.8,17.4,8.7,25.4,14.3c0.9,0.7,1.9,1.5,2.5,2.5
			c1.6,2.8,5.7,5.6,3,8.8c-2.1,2.5-7,2-9.6,0.3c-13.3-8.7-28.2-15.1-39-27.6c-7.4-8.5-8.1-18.5-6.9-28.6
			c2.9-23.5-0.2-34.1-21.4-49.4c-6.6-4.7-14.7-7.1-20.2-13.6c-8.8-10.2-13.3-21.6-12.7-35.3C360.4,207.8,364.3,197.1,369.8,186.8z"
			/>
		<path d="M617.1,345.4c-1.7-12.5,6.5-18.7,15.5-24.1c3-1.8,6.4-5.1,9.5-4c6.7,2.3,12.5,6.6,16.8,12.4c13.6,18.3,6.1,36.8-10.1,49.5
			c-0.5,0.4-1.1,0.7-1.6,1.1c-6.6,5.4-6.6,5.5-12.7-0.4c-7.8-7.5-14.2-15.9-16.9-26.8C616.9,350.5,617.4,347.9,617.1,345.4z"/>
		<path class="st1" d="M1224.8,765c0.3-0.3,0.7-0.6,1-0.8c2.1,0.7,3.1,2.4,3.7,4.6C1227.9,767.5,1226.4,766.2,1224.8,765z"/>
		<path class="st2" d="M1265.8,538.9c1.4-1.1,2.7-2.2,4.1-3.2C1269.6,537.6,1267.9,538.5,1265.8,538.9z"/>
		<path d="M1111.9,432.1c0-0.4-0.1-0.7-0.1-1.1c1.4,0.1,2.7,0.2,4.1,0.2C1114.7,432.2,1114.1,435.4,1111.9,432.1z"/>
		<path class="st3" d="M39.2,418.2c0.3,0.3,0.7,0.6,1,0.9c-0.8,1.1-2.1,1.4-3.4,1.9C36.7,419.1,37.8,418.5,39.2,418.2z"/>
		<path class="st4" d="M1157.8,800c0.3-0.3,0.7-0.6,1-0.8c0.8,0.3,1.7,0.7,3.3,1.3C1160,801.2,1158.8,801.4,1157.8,800z"/>
		<path class="st5" d="M928.7,167.2c-0.5,0-0.9-0.1-1.4-0.1c-0.4-0.9-0.8-1.8-1.3-2.9C928.2,164.3,928.1,166,928.7,167.2z"/>
		<path class="st0" d="M949.8,821.6c-17.8-1.7-35-3.4-52.2,0.1c-3,0.6-5.8-1-6.4-4c-1.2-5.5-5.6-6.3-8.8-4.5
			c-9.1,5-17.4,1.3-25.9-1.1c-9.9-2.8-19.5-3.2-27.9,4.5c15.8-5.7,30.1-2,43.3,6.1c-8.2,2.4-17.2,4.2-26.5,3.2
			c-10.9-1.2-21.8-2.7-32.6-4.5c-13.3-2.2-26.4-6.3-39.8-7.1c-14.2-0.9-28.2,3.4-41.9,7c-2.7,0.7-4.4,0.3-6.7-1.1
			c-6.1-3.5-13-3.7-20.6-3c8.1-10,17.4-15.4,29.9-15.3c17.6,0.1,35.2,1.9,52.8,1.2c2.8-0.1,5.5-0.9,8.2-1.1c1.5-0.1,2.8-1.3,2.9-2.3
			c0.2-1.6-1.5-1.7-2.8-1.7c-1.6,0-1.6-0.5-1.4-2.1c1.7-10.7,4.5-21,11.9-29.2c3.9-4.3,8.2-8.2,12.6-12c7.3-6.3,9.1-14.7,10.1-23.7
			c0.6-5.4,1.3-10.7,1.9-16.1c0.1-1,0.1-2.2,1.6-1.8c11.2,2.6,22.3,0.3,33.3-1.2c10.9-1.5,21.6-1.3,32.4,1c0.8,0.2,1.6,0,3.6,0
			c-5.7-4.1-11.5-5.1-16.9-4.8c-16,1.1-32.1,2.3-48.2,1.8c-1.5-0.1-3.2,0.6-4.7-0.6c0.2-2,1.8-1.4,2.7-1.3
			c14.7,2.2,28.8,0.2,43.1-3.7c12.7-3.5,24.6,1.1,35.5,8.4c12.5,8.4,23.7,18.5,36,27.1c5.5,3.8,11.1,6.1,18,6.3
			c6.7,0.2,11.8,5.2,16.7,9.4c6.9,6,12.8,12.9,18.3,20.2c2.9,3.8,2.2,5-2.4,6.4c-4.9,1.6-9.9,0.8-14.8,1.2
			c-23.4,2.2-46.6,2.9-68-9.4c-5.8-3.3-10.4-8-15.1-12.6c-4.5-4.4-9.3-8.1-16.1-8.7c-3.2-0.3-4.9,0.9-6.1,3.3
			c-1.3,2.6-1.2,5,1.1,7.2c4.4,4.3,10.2,6.2,15.7,8.6c14.7,6.5,26.8,16.2,36.8,28.7C937.9,807.6,943.8,814.4,949.8,821.6z"/>
		<path class="st0" d="M405.2,721.9c-17.3-10.1-32.4-2.5-47.6,4.1c12.2-7.5,24.5-14.8,39-15.9c9.1-0.7,18.2-0.5,27.2,1.3
			c9.3,1.8,18.6,2.5,28,0.8c2.6-0.5,2.1,0.8,2.4,2.4c1.1,8,1.2,16,2.9,23.9c1.3,5.9,3.8,10.8,8.1,15.2c6.3,6.5,13.7,11.9,18.4,20
			c4.2,7.4,5.8,15.4,7.2,23.8c0,0-0.1,0.3-0.4,0.4c-1.7,0.4-4.8-0.8-4.8,1.8c0,1.9,2.7,2.1,4.8,2.4c13.2,1.7,26.4,1,39.6,0.2
			c10.2-0.6,20.5-1.4,30.7,0.9c7.7,1.7,11.9,8,17.9,13.8c-7.5-0.6-13.6,0.8-19.6,3.6c-4,1.9-8.5-1.2-12.7-2.1
			c-10.7-2.2-21.4-4.6-32.5-4.6c-8.5,0-16.2,3.3-24.5,4.5c-6.3,0.9-12.4,2.5-18.6,3.5c-3.8,0.6-6.7-1.9-9.1-4.2
			c-8.4-7.9-18.2-9.2-28.7-6.5c-5.3,1.4-10.6,2.7-16,4.1c-4.7,1.2-7.9-1.3-11.6-2.4c-5.6-1.6-6.9-1.3-9,4.1c-1.5,3.8-4.5,4.6-8,4
			c-15.1-2.6-30.2-2.6-45.3,0c-1.4,0.2-2.9,0-5.1,0c5.7-7.1,10.9-13.9,16.5-20.5c8.7-10.3,18.6-19.2,30.5-25.6
			c6.5-3.5,13.5-5.7,19.8-9.6c3.7-2.3,5.6-5,3.9-9.3c-1.8-4.5-5-4.6-9.3-3.1c-4.4,1.6-8.4,3.5-11.5,7c-11.1,12.7-25.3,20-41.6,22.8
			c-11.6,2-23.4,2.1-35.1,0.5c-2.8-0.4-5.7-0.3-8.5-0.2c-6.9,0.2-13.7-1.3-20.6-2.1c-3.5-0.4-1.6-2.5-0.8-3.8
			c5.4-8.6,12-16,19.5-22.8c7.1-6.4,15.7-8.6,24.7-10c14.3-2.3,27.5-7.6,40-14.8c10.9-6.3,22.7-9.9,35.6-7.5
			C402,722.1,403.2,721.9,405.2,721.9z"/>
		<path class="st0" d="M204.5,843.6c8.3-8.5,18.7-13.2,29.6-16.5c16-4.9,32.6-7.5,49.2-10.2c4.6-0.7,9.1-2.3,13.3-4.1
			c6.8-2.9,13.6-4.4,20.9-3.3c6.1,1,16-3,21.3-8c-1.5-1.2-2.5,0.4-3.4,0.9c-7.1,3.9-14.4,4.5-22.3,2.8c-4.2-0.9-8.5-0.4-12.6,1.2
			c-10.8,4.2-22.3,4.5-33.6,5.8c-21.2,2.5-41.8,7.9-59.7,20.2c-10.7,7.3-22.5,12.1-35,15.5c-0.6,0.2-1.2-0.1-1.1,0
			c22.1-25.9,49.1-45,83.1-52.6c13.4-3,27.2-4.6,40.9-3.1c32.9,3.5,61.7-6.7,88.4-24.4c4.1-2.7,7.4-6.5,11.9-8.6
			c1.4-0.6,2.9-1.6,4.7-1.2c1,0.2,2.4-0.7,2.9,1c0.4,1.5-0.8,1.8-1.7,2.5c-5.6,4.4-12.3,6.8-18.5,10.2
			c-16.9,9.3-31.1,21.8-43.5,36.5c-16.7,19.8-37.3,33.3-63,37.6c-15.8,2.6-31.8,2.3-47.8-0.6C220.7,843.8,212.7,843.3,204.5,843.6z"
			/>
		<path class="st0" d="M1111.7,847.3c-9.7-1.7-17.6-2.6-25.1-8.6c-17.7-14.3-38.2-23.1-60.9-26.8c-12-2-23.8-2.2-36-1.1
			c-11,1-22-0.1-32.6-3.7c-0.6-0.2-1.3,0-2.8,0c9.5,5.9,19.3,8.9,29.4,10.9c15.9,3.2,32,4,48.1,5.1c14.5,1,27.2,7,39.3,14.7
			c2.8,1.8,5.6,3.7,9.2,6.1c-18.1,0.5-35.1,5-52.4,4.2c-23.6-1.2-45.1-7.8-63.7-23c-8.2-6.7-14.6-14.8-21.7-22.5
			c-12.6-13.6-27-25-43.6-33.5c-4.1-2.1-8.2-3.9-12.2-6.1c-1.5-0.8-3.6-2.2-2.5-4.2c0.8-1.5,3-0.8,4.5-0.4c5.9,1.5,9.9,6.1,14.6,9.5
			c16.1,11.7,34.1,18.9,53.4,23.2c12.8,2.8,25.7,1.9,38.6,1.9c30.8-0.2,58.9,8.1,84.2,25.6c7.4,5.1,13.9,11.2,20.2,17.6
			C1103.1,839.6,1106.9,842.9,1111.7,847.3z"/>
		<path class="st0" d="M722.7,662.9c2.2-14.9,9.6-26.4,21.8-35.3c8.9-6.5,14-16.4,20.4-25.2c8-11,12.1-24,19.1-35.5
			c0.8-1.4,1.7-2.7,3.3-5.2c-0.7,9.7-4,17.4-6.4,25.2c-5.6,17.9-16.1,32.9-27.7,47.3c-10.2,12.7-21.5,24.8-28.7,39.6
			c-6.6,13.5-10.8,27.8-12.5,42.7c-0.1,1.2-0.1,2.3-1.6,3c-4.5-12.9-2.1-25.6,0.3-38.5c-3.6,5.2-6.4,10.9-10.7,15.5
			c-12.8,13.8-22.6,30.2-36.4,43c-6.2,5.8-13.3,10.7-20.1,15.8c-0.8,0.6-1.7,1.6-3.2,0.2c-14.8-13.2-29.9-26.2-41.3-42.7
			c-3.3-4.8-7.2-9.1-11.3-13.1c-5-4.9-10.7-9.1-13.5-16.1c1.9,11.3,1.1,22.4-1,33.7c-0.7-2.5-1.5-5-1.9-7.6
			c-3.9-24.4-15.4-45.4-30.4-64.5c-6.7-8.5-14.9-15.7-20.8-25c-9.5-15-14.7-31.7-19.7-48.4c-0.5-1.8-0.1-3.9-0.1-5.9
			c2.7-0.2,2.6,1.5,3.1,3.2c6.5,22.3,19.9,40.3,36.1,56.3c4.4,4.3,9.3,8,13.2,12.7c6.6,8,9.2,17.7,11.4,27.5
			c0.9,3.8,1.6,7.6,2.7,11.3c-0.2-8.9-2.3-17.5-5.4-25.9c-2.9-8.1-5.8-16.4-12.7-22.1c-3.9-3.3-7.8-6.5-10.7-10.8
			c-0.5-0.8-1.3-1.2-0.4-2.4c3.8-5.1,3.8-10.8,0-16c-0.3-0.5-0.7-1-1.1-1.6c4.7,0.3,6.1-1.4,6.5-7.7c0.2-2.9-0.7-5.9,1.8-8.7
			c0.5,8.4,0.5,16.5,0.9,24.6c0.5,10.1,3,18.7,9.6,26.4c8.7,10,11.2,22.9,14.6,35.2c0.4,1.5-0.1,2.9,2.4,2c1.3-0.5,1.9,1.7,2.2,2.8
			c2.3,7.8,6.6,13.9,12.9,19.1c12.4,10.3,21,23.9,30.5,36.7c6,8.1,12.8,15.5,21.4,20.9c1.9,1.2,3.4,1.4,5.7-0.1
			c11.3-7.5,19.5-17.9,27.1-28.9c8.3-11.9,17.2-23.3,28.8-32.3c3.7-2.9,5.4-7.2,7.3-11.4c1-2.3,0.6-6.3,5.1-6c0.4,0,1.1-3.1,1.5-4.7
			c2.2-8.2,3.8-16.7,8-24.3c1.6-3,3.4-5.9,5.8-8.5c8.6-9.4,9.8-21.1,10.3-33c0.3-7.1-0.9-14.2,1.7-21.6c0.8,5.3-0.3,10.1,1.2,14.8
			c0.7,2,0.7,4.1,3.1,5c1.1,0.4,1.2,0.9,0.3,2c-4,5.3-2.6,11.3-0.9,16.6c1,3,0.1,3.6-1.6,4.9c-12.5,10.3-19,23.7-20.8,39.6
			c-0.8,1.8-0.2,3.9-0.8,5.7c-1.2,1.5-0.5,3.1-0.6,4c-0.1-0.7-0.2-2.1,0.2-3.5C722.2,666.7,720.7,664.2,722.7,662.9z"/>
		<path class="st0" d="M403.1,685.2c5.4-0.2,10.6-0.7,14.9-4.9c-12.7,5.4-26.7-0.1-39.5,6.2c0.7-3.6,2.9-5.5,5-7.3
			c2.1-1.8,4.4-3.4,6.8-4.8c2.7-1.5,4.5-3.8,6.4-6.3c-5.1,2.9-10.1,5.8-15.7,9c0.3-8.6-6.7-16-1.6-25.1c-4.1,3.1-5.3,6.2-4.3,10.5
			c1.3,5.8,1.6,11.7,0.9,17.7c-0.1,0.9,0.3,2-0.6,2.8c-4.3,4.3-17,2.2-19.2-3.5c-4.7-12-10.1-23.7-16.2-35.1
			c-3.9-7.3-8.6-14.1-10.3-22.4c-1.7-8.5-1-16.6,3-24.3c3.6-6.9,8.1-7.2,12.2-0.8c6.3,9.8,13.1,19.2,21.6,27.3
			c9.6,9.2,20.8,15.8,33,20.8c3.7,1.5,6.6,3.5,9,7c8.6,12.5,18.2,24.3,29.2,35.6c-11.8,1.5-23.3-0.4-34.7-0.7
			C402.5,686.2,402.5,685.7,403.1,685.2z"/>
		<path class="st0" d="M879.6,687.7c-11,0.4-22,2.1-33.7,0.9c10-11.3,19.1-22.9,28.4-34.4c4.2-5.1,10-8.6,16-11.3
			c16.8-7.3,30.7-18.1,41-33.4c2.9-4.4,6.4-8.4,9.9-12.4c2.5-2.8,5-2.9,7.9,0.1c6.2,6.6,5.6,14.6,4.4,22.5
			c-1.4,9.2-5.1,17.7-9.7,25.8c-5.7,10.1-10.5,20.6-13,32.2c-2.1,9.5-15.6,12.6-22.6,5.8c-1.3-1.3-1.2-3-1.3-4.6
			c-0.5-6.3,0.9-12.5,1.1-18.8c0.1-2.5-0.5-4.6-3.8-6.9c2.8,5,1.9,9,0.5,12.7c-1.6,4-1.8,7.9-1.7,12.7c-5.8-4.1-12.1-6.4-17.4-10.7
			c4.7,7.9,15.4,9.8,19.5,19.5c-13-6.6-27.4-0.6-40-6.8c4.1,5.5,10,5.2,15.8,5.3C881.5,687.3,880.5,687.5,879.6,687.7z"/>
		<path class="st0" d="M543.2,744.8c-11.9,1.4-22.2-2.5-32.7-6c3.3,5.4,11.7,9,18.9,10.4c7.6,1.4,15-0.1,22.5,0.7
			c10.7,1.2,19.9,7,25.2,16.9c-5.3,0.1-10.1-0.9-15-1.9c-14.2-2.9-28.6-5.7-41.8-12c-4.1-2-8.2-3.8-12.5-5.3
			c-6.7-2.3-10.5,1.3-12.2,5.8c-1.4,3.7,1.5,7.9,7.1,9.5c11.4,3.4,22.2,8.4,32.6,14.1c9.4,5.2,18.5,11,26.2,20.1
			c-6.6-0.8-12.4-0.9-18.3-0.5c-13.7,1.1-27.4,2.7-41.2,2.3c-2.7-0.1-3.5-0.4-4.1-3.6c-1.6-9.1-3-18.3-5-27.4
			c-1.6-7.5-6.1-13.8-12-18.7c-6.5-5.4-7.8-12.8-8.9-20.5c-0.9-6.6-1-13.2-0.9-19.8c0-1-1.3-2.4,0.5-3c1.2-0.4,2.5,0.3,3.1,1.2
			c9.6,14.2,25.2,17,40.1,20.6C525.9,730.5,535.4,735.4,543.2,744.8z"/>
		<path class="st0" d="M768.7,742.7c-8.7,2.2-17.4,3.6-27.1,2.2c7.3-8.1,16.4-12.1,25.7-16c6.2-2.6,12.7-4,19.1-5.7
			c9.2-2.4,16.7-7.1,22.1-15c0.7-1.1,1.6-2.4,3.1-1.9c0.6,0.2,1.3,1.3,1.2,1.9c-0.4,9.7,1.2,19.4-1.5,29.1
			c-1.7,6.1-5.7,10.6-9.5,15.1c-8,9.7-12.3,20.6-14,32.9c-0.4,3.3-1.1,6.5-1,9.8c0.1,2.8-1.3,3.9-4.3,3.9c-15.4,0-30.8-1.1-46.1-2.9
			c-4.4-0.5-8.8-0.4-13.2,0.7c9.9-9.8,21.4-17,33.8-23c7.8-3.8,15.5-7.9,24.3-9.2c6.1-0.9,8.3-4.6,7.5-10c-0.7-4.5-5.1-8-10.3-8.1
			c-9.3-0.1-17.3,4.1-25.4,8c-7.8,3.8-14.8,9.4-23.4,11.8c-5.5,1.5-11,1.9-16.5,0.4c-1.9-0.5-3.5-1-1.9-4.1
			c4.8-9.6,13.3-11.5,22.6-11.7c11.6-0.2,22.8-1.3,33.1-7.1C767.8,743.6,768.2,743.1,768.7,742.7z"/>
		<path class="st0" d="M735.6,770.2c-16.8,11.9-31.6,26.5-50.1,35.8c-10.8,5.4-22.3,7.8-34.1,8.9c-21.7,2-41.6-4.6-61-13.2
			c-8.6-3.8-14.7-11.1-21.8-16.8c-8.7-7.1-17.2-14.3-27.1-20.2c3.7,1.4,7.3,3.1,11.1,4.2c8.1,2.4,16.4,3.5,24.8,3.1
			c14.2-0.8,24,7,32.5,17.1c4.6,5.4,9.2,10.7,16.5,12.6c2.2,0.6,4.4,0.8,6-0.9c1.7-1.7-0.3-3.4-0.9-4.9c-1.1-2.8-2.1-5.8-4.3-8.1
			c-0.9-1-2.3-2.7-1.2-3.9c1.1-1.2,3.1-2,4.9-1.6c1.4,0.3,3.3,0.3,4.2,1c5.3,3.9,10.4,2.1,15.6,0.3c1.1-0.4,2.3-0.3,3.4-0.4
			c4.2-0.5,3.9,1.9,2.6,4.4c-1,2-2.4,3.9-3.6,5.8c-1.9,3.2-2,6.6,0.8,9c2.4,2.1,5.1,0.3,7.5-1.2c6.8-4.1,10.7-11,16.7-16
			c9.8-8.1,20.5-13,33.3-13C719.5,771.9,727.6,772.8,735.6,770.2z"/>
		<path class="st0" d="M797,541c0,0.5-0.1,1.4,0.1,1.4c1.5,0.3,1.5-0.9,2-1.9c3.3-7.4,6.5-14.8,10.1-22
			c5.8-11.8,11.3-23.8,21.2-34.3c-2.9,0.1-3.5,1.9-5.8,2.9c6-13.4,15.6-22.5,25.4-32c1.9,2.6-0.7,3.7,0.4,5.4
			c2.3-0.2,3.6-1.7,4.8-3.7c1.2-2.3,3.6-2.7,5.9-2.5c2.4,0.3,2.1,2.5,2.2,4.3c2.2-0.3,2.1-2.3,2.8-3.6c0.7-1.3,1.5-2.2,3-2
			c1.9,0.3,2.1,1.7,2.1,3.3c-0.1,5.3-2.9,9.5-5,14.1c-4.9,10.8-11.9,20.3-20.8,27.9c-19.7,16.7-31.1,38.1-38.3,62.4
			c-5.1,17.2-15.2,31.9-24.9,46.7c-0.1,0.2-0.5,0.2-1.3,0.4c4.9-13.4,13-25.3,15.8-39.6c-3.4,0.6-3.5,3.2-4.1,5
			c-6.2,17.3-13.6,34-23,49.8c-6.7,11.2-16.3,20-26.1,28.9c31.6-30.4,45.1-69.2,53-110.8C796.5,540.6,796.7,540.6,797,541z"/>
		<path class="st0" d="M766.6,646.8c-11.3,15.3-28.4,26.5-31.6,47.2c-0.8-7.1,3.8-18.8,9.1-25.7c6.9-9,15.6-16.6,22-26
			c4-5.9,5.9-12.9,10.5-18.5c13.6-16.8,29.2-31.2,47.7-42.5c17.2-10.6,33.9-21.9,51.3-32.1c13.2-7.8,25.7-16.4,36.7-27
			c10.5-10,15.8-22.5,16.9-36.9c4.1,3,5,7.7,2.9,13.3c-3.1,8.3-9.1,14.7-14.5,21.4c-0.9,1.1-2,2.2-3.2,3.5c3.5-0.7,8.4-4.8,11.9-9.6
			c4.1-5.6,7.7-11.5,9.9-18.2c0.3-0.9,0.4-2.9,2.4-2.5c1.8,0.3,2.2,1.5,2.4,3.2c0.5,5.2-1.9,9.5-3.8,13.9
			c-5.7,13.4-16.5,22.2-27.4,31.1c-17.5,14.3-38,23-57.5,33.9c-15.9,8.9-32.8,16.1-47,27.9c-16.5,13.6-29.1,30.3-37.2,50.2
			c-2.6,6.4-5.1,12.9-6.1,19.9c-0.2,1.7-1.2,2.7-2.3,3.7c-1.2,1.1-2.3,3.1-4.1,2.1c-1.9-1.1,0.2-2.6,0.5-3.8
			C758,665,762.4,655.9,766.6,646.8z"/>
		<path class="st0" d="M641.2,841c-6.1-2.1-12.8-4-19.2-6.6c-18.5-7.4-34.6-18.4-48.5-32.6c-13.9-14.2-30.4-24.6-48.4-32.8
			c-2.4-1.1-6.2-2.9-5.4-4.7c1.3-3.1,5-1.1,7.5-0.2c11.5,4.1,21.2,11.3,30.9,18.5c13.9,10.4,27.6,20.9,43.4,28.7
			c11.4,5.6,23.5,8.3,35.7,10.7c20.7,4,38.3-4.4,55.4-14.1c16.5-9.4,30.5-22.4,46.1-33c6-4.1,12.3-7.8,19.1-10.5
			c0.7-0.3,1.5-0.7,2.3-0.8c3-0.5,7.3-2.1,8.5,1c0.9,2.5-3.6,3.5-6,4.3c-16.7,5.4-30,15.8-42.9,27.1c-9.2,8.1-18.1,16.6-27.7,24.1
			c-14.3,11-31.6,15.6-48.5,20.9C642.9,841,642.3,840.9,641.2,841z"/>
		<path class="st0" d="M481.3,680.6c-3-1.8-5.5-2-7.8-1.5c-3.8,0.8-4.9-0.8-5.6-4.2c-2.9-14.5-10.2-26.1-23.3-33.4
			c-4.3-2.4-7.7-5.3-10-9.5c-2.1-3.7-5.1-6.4-9-8c-8.3-3.3-13-9.7-16.7-17.5c-5.9-12.3-14.4-22-27.1-27.7
			c-5.3-2.4-9.4-6.8-12.6-11.7c-6-9.4-11.9-12.6-23.5-11.9c5.4,9.8,14.8,15.1,22.5,22.4c-14.8-2.7-22.5-9.4-23.4-20
			c-3.3,5-2.1,11.1,1.7,21c5.1,13.4,12.9,25,22.9,35.5c8.5,8.9,17.2,17.1,28,22.9c1,0.5,2.7,1.5,2.1,2.7c-0.9,2-2.9,0.4-3.9,0
			c-11.9-5.2-22.1-12.7-30.7-22.6c-7.1-8.2-13.9-16.6-19.3-26c-2.6-4.4-5.4-4.6-9.5-1.7c-1.5,1-2.9,2.2-4.2,3.3
			c-1.1-0.2-0.6-1.1-0.8-1.6c-1.9-4.7-2.2-8,4.2-9.5c4.6-1.1,7-5,6.8-10.2c-0.3-8.7,0.2-17.4-5.3-25c-1.8-2.5-4.5-4.2-6.1-7.1
			c-3-5.4-3.4-6.2-1.6-11.9c0.3,0,0.7-0.1,0.8,0c5.7,8.6,14.2,13,23.5,16.7c13.7,5.5,24.3,15.2,32.6,27.4
			c10.8,15.8,24.5,28.7,40.8,38.3c14.8,8.8,24.8,20.7,31.1,36.5C463,659.1,472.9,668.7,481.3,680.6z"/>
		<path class="st0" d="M904.9,588c5.5-7.2,12.7-12.4,19.7-17.9c3.4-2.6,6.8-5.3,9.9-8.2c1.5-1.5,3.6-3.4,1.8-5.9c-2-2.6-5.1-2-7-0.5
			c-4.5,3.4-9.9,5.8-13.2,10.8c-4.1,6.3-10.2,10.3-16.4,14.1c-9.4,5.7-16.2,13.7-21.6,23.1c-3.6,6.1-7.9,11.6-13.6,15.9
			c-3.5,2.7-6.6,6.1-9.7,9.4c-5.6,6.1-12.1,11.3-19.1,15.7c-13.2,8.2-19.3,20.3-21,35.5c-2.3-4.9-6.3-2.4-10.1-2.7
			c7.2-8.2,13.9-16.4,19.3-25.7c2.1-3.5,4-7.1,5.2-11c3.6-12.2,12.5-19.9,22.6-26.6c11.9-7.9,23-16.9,33.9-26.2
			c7.9-6.8,13.4-15.8,19.3-24.3c5.4-7.7,12.6-12.8,21-16.4c10.2-4.4,20.9-7.9,28.4-16.9c0.8-0.9,1.9-1.7,3-1.1
			c1.3,0.7,0.6,2,0.4,3.1c-0.8,4.3-2.5,8.1-6.2,10.8c-6.9,5-8,12.4-8.5,20.1c-0.2,2.7-0.1,5.3,0,8c0.1,5,2.1,9,6.9,10.9
			c3.8,1.5,6.6,3,4.2,7.8c-0.5,1.1-0.1,2.6-0.1,4.2c-3.5-0.4-4.7-3.7-7.1-5.2c-4.4-2.7-5.7-2.7-8.1,1.9
			c-7.1,13.5-16.5,25.3-27.7,35.7c-7.1,6.6-15.3,11.3-25,13.6c15.7-8.5,26.5-21.9,37.7-35.2c11.6-13.7,16.5-29.6,17.2-47.7
			c-2.8,1.7-3.1,4.5-4.3,6.6c-2.2,3.9-4.7,7.5-8.9,9.5c-8.5,4.1-16.2,9.2-22.9,15.9c-0.3-0.2-0.4-0.5-0.3-0.7
			C904.8,588.1,904.9,588,904.9,588z"/>
		<path class="st0" d="M779.4,456.3c-16.1,15.2-34.2,21.7-54.7,21.6c-13.8-0.1-25.6-5.8-36.3-14c-11.8-9.1-20.1-20.5-22.7-35.5
			c-2.2-12.6-0.8-24.7,4.6-36.3c2.9-6.1,6-12.2,9.5-19.2c-0.3,8.9,3.7,15.8,5.5,23.4c0.8,3.4,0.1,6.5-0.7,9.2
			c-6.9,23.6,6.7,43.7,25.6,53.2c10.4,5.2,21.1,8.7,32.8,8.2c9.6-0.4,18.4-3.7,27.1-7.6C772.6,458.2,775.4,457.6,779.4,456.3z"/>
		<path class="st0" d="M508.9,456.9c8.6,2.1,15.4,6.8,23.5,8.2c12.4,2.1,24.4,1.2,35.9-3.9c12.7-5.6,23.6-13.1,29.7-26.2
			c4.2-8.9,5.4-18.3,2.9-27.8c-1.8-6.7-1.8-13.1,1-19.5c1.6-3.5,2.2-7.5,3.3-11.2c21.4,32.8,17.5,62.9-5.3,83.9
			C569.2,489,525.5,478.7,508.9,456.9z"/>
		<path class="st0" d="M528.7,678.1c-5.9-1.2-6.2-6.4-7.5-10.2c-7.6-21.5-18.3-41.2-32.7-58.8c-4.9-6-10.6-11.6-17.8-14.7
			c-16-6.9-30.6-16.8-46.6-23.6c-19.1-8.2-36.3-19.2-52.5-31.9c-12.7-9.9-23-21.8-28.1-37.5c-1-3-0.7-5.8,1-8.4c0.5-0.7,1.2-1,2.1-1
			c1.2,0,1.1,0.8,1.3,1.6c3.3,14.1,11.9,24.6,23.4,32.8c16.7,11.9,35.3,20.8,52.7,31.7c20,12.5,40.1,25,59.5,38.4
			c11.3,7.8,19,19.3,26.4,30.8c2.2,3.4,2.8,7.3,3.6,11c2.6,12.1,10.1,22,13.7,33.6C528,673.8,529.6,675.6,528.7,678.1z"/>
		<path class="st0" d="M469.1,533.9c3.5,7.9,7.1,15.7,10.6,23.6c2.5,5.4,5,10.8,7.8,16.1c-0.1-4-2.3-7.3-3.6-10.9
			c-5-14.5-9.7-29.1-15.1-43.4c-6.9-18.3-17.3-34.4-32.7-46.9c-4.5-3.7-9.1-7.7-11.7-13.2c-0.7-1.4-2.7-2.8-0.7-4.2
			c1.7-1.1,3.6-0.1,5.1,1.4c1.5,1.5,2,4.3,5,4.1c0.3-0.8,0.2-1.7-0.4-2.6c-1.1-1.8,0.2-1.9,1.5-1.7c0.5,0.1,0.9,0.4,1.3,0.7
			c8.8,8.8,17.8,17.5,23,29.3c-2.5,0.9-1.8-2.6-4.6-1.8c14,17.7,22.2,38.3,31.6,58.3c2.1-1.8-0.3-3.1-0.3-4.7c0-1.7-1-3.4-1.6-5.1
			c-0.6-1.7-1.3-3.3-2-4.9c-8.2-17.7-16.5-35.5-26.2-52.5c-3.4-6-8.6-10.4-13.3-15.3c-1.2-1.3-3.4-2.8-1.6-4.6
			c1.8-1.8,3.1,0.5,4.5,1.5c10.9,8.3,17.5,19.5,23.2,31.8c7.7,16.6,14.9,33.2,19.6,50.9c3.2,12,4.4,24.5,8.5,36.4
			c5.5,15.9,11.4,31.7,20,46.3c5.6,9.5,14.3,16.4,20.9,25.1c-6-1.6-28.9-29-43.4-51.7c-12.2-19.1-19.4-40.1-25.6-61.6L469.1,533.9z"
			/>
		<path class="st0" d="M317.1,573.3c-3.2-5.9-6.3-12.3-6-19.7c0.2-3.9-1.7-6.8-4.9-8.4c-3.3-1.8-6.8-0.7-9.3,1.7
			c-4.3,3.9-8.9,7.7-12.3,12.4c-14.3,19.6-36,19.3-53.7,9.6c-7.9-4.3-9.6-12.7-10.8-21c-0.7-4.8-1.6-9.6-5-13.5
			c-4.7-5.4-10.8-5.6-17.4-5.5c4.5-2.2,6.8-6.4,9.9-9.9c6.8-7.6,14.2-6.2,18.5,3c2,4.3,2,8.9,2,13.5c-0.1,14,6.4,23.2,19.8,26.9
			c9.7,2.7,19,0.2,27.8-4.4c7.1-3.7,13-8.9,18.9-14c4.6-4,9.3-7.9,14.3-11.4c3.6-2.5,7.6-2.8,11.7-2.5c1.2,0.1,2,0.8,2.2,1.7
			c0.3,1.6-1.1,1.1-2,1.3c-4.4,1.1-6,4.9-4.6,8.3c1.9,4.8,1.5,9.1,0.9,13.9C316.5,561.2,317.1,567.4,317.1,573.3z"/>
		<path class="st0" d="M770,496.1c-0.7,2.8-2.7,5.4-2,8.8c5.3-10.1,13.4-20.7,19.7-25.8c1.5,4.3-0.5,7.8-2.5,11
			c-7.8,12.5-13.6,25.7-16.7,40.3c-2.4,11.3-1.5,22.5-0.2,33.6c0.8,6.8,0.1,13.6,0.8,21.1c-2.4-2.4-2.3-5.1-3.1-7.3
			c-0.5-1.2-0.7-3.1-2.3-2.5c-1.4,0.5-0.8,2.2-0.4,3.5c1.3,3.6,2.5,7.2,3.4,10.9c-5.1-4.9-6.2-11.4-6.6-17.9
			c-0.4-6.4-0.1-12.9-0.4-19.4c-2.2,8-3.1,16.2-5.5,24.2c-0.9,3-2.4,5.7-3.5,8.5c-0.6,1.5-1.5,3.4-3.5,2.9c-1.9-0.4-2-2.5-2.1-4
			c-0.2-4.8,0.6-9.6,1-14.4c1.1-11.1,2.4-22.1,4.5-33.1c2.3-12,7.6-22.7,13.5-33.2c1.6-2.8,2.6-6,5.1-8.3
			C770,495,770.6,495.1,770,496.1z"/>
		<path class="st0" d="M523.6,550.6c-3.1-2.8-1-7.3-3.5-10.7c-0.8,14.7,2.5,29.7-4.9,44.2c-0.5-10.3,0.9-19.8,1.7-29.4
			c1.1-13.4-0.5-26.5-5.2-39.2c-3.5-9.4-8.3-18-13.3-26.6c-1.6-2.8-3.3-5.8-1.9-10c8.2,7.5,14.4,16.1,19.3,25.7
			c1.2-4.8-1.6-8.3-3.6-12.2c3.9,2.6,5.6,6.8,7.8,10.6c9.2,15.8,14.8,32.6,16.3,51c0.8,9.6,2.2,19.3,2.8,28.9c0.1,1.9,0.6,4.3-2,5
			c-2.8,0.7-3-2.1-3.9-3.6c-0.8-1.3-1.2-3-2.4-4.1c-0.6-0.5-1.1-1.5-2-1.1c-0.8,0.4-1.6,0.9-1,2.2c0.7,1.4,0.3,1.3-1.2,0.9
			c-1.3-0.3-1.5-0.3-1.3-1.6c1.7-9.9,0.7-19.7-0.3-29.6c0-0.3-0.5-0.7-0.8-1C524.1,550.1,523.7,550.5,523.6,550.6L523.6,550.6z"/>
		<path class="st0" d="M584.5,705.1c4.4,2.9,7.8,6.6,10.6,10.9c7.2,11.1,14.4,22.3,24,31.6c6.4,6.3,14.2,10.7,21.1,16.2
			c1.5,1.2,2.2,0.8,3.7-0.2c18.9-12.2,34.5-27.4,45.1-47.5c2.8-5.3,6.8-9.5,12.7-12.8c-0.2,2-0.7,3.1-1.7,4.1c-1,0.9-1.8,2-2.7,2.9
			c-5.7,6-7.3,13.9-10.2,21.2c-4.7,12.1-12.4,21.8-23,29.3c-3.7,2.6-6.5,6.2-9.8,9.2c-1.3,1.2-2.7,2.3-4.2,3.3
			c-5.9,4.2-11.3,3.4-16.4-1.3c-9-8.3-19.5-14.8-27-24.8c-3.5-4.6-6.9-9.1-8.8-14.6C594.6,723,589.2,714.3,584.5,705.1z"/>
		<path class="st0" d="M703.6,495.4c0.7,1.7-0.4,2.7-1.2,3.6c-13.1,14.5-28,26.2-47.6,30.5c-2.5,0.6-5.6,2-7.6,1.2
			c-4-1.6-7.4-0.4-11.2,0c-3.2,0.3-6.7-0.9-10-1.8c-18.8-5.3-33.3-17-45.8-31.6c-0.2-0.2-0.1-0.6-0.4-2.1
			C621.5,523.7,662.7,523.6,703.6,495.4z"/>
		<path class="st0" d="M754,688.2c-0.1,2.4-2.1,3.5-3.5,4.6c-4.6,3.7-9.1,7.2-13,11.8c-10.7,12.6-17.3,27.3-22.5,42.7
			c-2.5,7.5-8.1,13.1-11.3,20.2c-0.6,1.3-2.1,2.2-4,2.5c-14.1,1.7-24.7,9.5-33.7,19.9c-1.9,2.3-4,4.4-6,6.6
			c-0.7,0.7-1.4,2.2-2.8,1.1c-1.3-0.9-1.2-1.9-0.7-3.4c2.3-7.3,7.5-11.7,14.4-14.2c15.7-5.8,24.3-18,29.2-33.1
			c3.2-9.6,9-17.6,15-25.4c8.8-11.4,18.5-22.1,29.8-31.1c1.9-1.5,4-2.9,6.4-3.4C752.3,686.8,753.8,686.5,754,688.2z"/>
		<path class="st0" d="M482.8,508.3c-3.8-7.8-7.2-15.1-10.8-22.2c-2.3-4.5-4.9-8.7-7.5-13c-0.6-1-3.3-2,0.3-2.7
			c0.5-0.1,0.2-1.7-0.5-2.6c-1.8-2.3-3.5-4.8-5.2-7.1c-0.8-1.1-2.6-2-1.6-3.7c1-1.5,2.8-1.1,4.1-0.8c9.6,2.5,18.2,6.8,25.4,14
			c6.7,6.7,7.1,15.3,7.8,23.6c1,12.1-0.7,24.3,1.2,36.3c0.5,2.9,1.2,5.8,1.4,8.7c0.1,1.9,0.3,4.5-1.9,5.1c-2.4,0.6-2.6-2.1-3.3-3.6
			c-1-2-1.2-4.3-1.2-6.7c0.1-17.9-7.3-33.7-14-49.6c-0.6-1.4-1.6-3.6-3.5-2.5c-1.6,0.9,0.1,2.8,0.7,3.9c2.9,5.8,6,11.4,8.1,17.5
			C482.8,504.5,483.1,506,482.8,508.3z"/>
		<path class="st0" d="M692.5,523.1c-9.5,19.8-24.5,33-46.3,36.6c-12.4,2.1-23.9-1.5-34.1-9.2c-9.9-7.4-16.8-17.3-24.6-28.3
			c10.3,4.9,19.1,9.9,27.2,15.9c8.3,6.1,17.4,10.1,27.7,10.7c13,0.8,23.2-5.3,32.6-13.4C680.3,530.8,686.3,526.8,692.5,523.1z"/>
		<path class="st0" d="M534.8,691.4c2.7-1.1,4.3,0.5,5.9,1.7c13.2,9.9,25.3,20.6,33.9,35.2c3.9,6.6,7.7,12.9,9.6,20.5
			c1.7,6.8,5.9,12,11.5,16.5c5.6,4.5,10.1,10.3,17.1,12.9c1.5,0.6,3,1.2,4.6,1.7c2.1,0.7,6-0.4,4,4.3c-0.2,0.4,1.1,1.5,1.7,2.3
			c1.1,1.4,2.2,2.9,3.2,4.3c1.2,1.8,1.5,4.4,0.3,5.6c-1.7,1.7-3.6-0.4-5-1.5c-3.7-3.2-7.1-6.7-8.6-11.6c-0.7-2.3-2.2-4.5-4.8-4.2
			c-3.4,0.3-5.2-1.4-7.1-3.5c-5-5.4-11.6-7.8-18.5-9.4c-2.2-0.5-3.4-1.4-4.5-3.2c-7.4-11.8-12.5-24.8-18.1-37.5
			c-3.1-6.9-6.1-13.9-10.6-20.1c-2.5-3.5-6.2-5.4-9.2-8.2C538.3,695.4,536.1,694,534.8,691.4z"/>
		<path class="st0" d="M786.8,538.5c3.6-14.6,1.2-30,2.3-45.1c1.6-23,12-30.5,33.2-37.2c1.4-0.4,3.5-1,4.5,0.6
			c1,1.6-0.8,2.7-1.6,3.8c-3.8,4.9-7.6,9.8-11.6,14.6c-8.6,10.6-12.5,23.5-16.5,36.2c-2.4,7.8-4.9,15.9-4.1,24.3
			c0.1,1.5-0.3,2.8-0.8,4.2c-0.7,1.8-1.4,4-3.3,3.8C786.1,543.5,787.2,540.7,786.8,538.5z"/>
		<path class="st0" d="M802,583.4c3-7.6,6-15.2,8.9-22.9c1-2.5,2.4-4.7,4.5-6.4c6.4-5.1,10.4-11.7,13.1-19.2
			c3.5-9.7,9.4-17.9,16.9-24.6c10.9-9.9,18-21.9,22.6-35.7c2.1-6.2,5.2-11.9,9-17.1c3.6-4.9,8.2-4.6,10.4,0.3
			c0.6,1.4,0.4,2.3-0.2,3.6c-1.5,3.3-3.3,6.4-6,8.8c-6.1,5.4-10.1,12-12.1,19.8c-2.4,9.4-7.9,16.5-15.2,22.7
			c-16.4,13.9-28.9,30.7-37,50.8C813.7,571.3,808.6,577.9,802,583.4z"/>
		<path class="st0" d="M841,588c-11,15.3-16.3,32.9-22,50.5c-4.1,12.5-11.8,22.7-21.8,31.4c-5.5,4.7-9.8,10.6-15.6,15.1
			c-6.1,4.9-12.8,8.9-18.9,13.9c-3.8,3.1-5.8,8-10.3,10.5c-1.6-3.5,0.7-5.7,2.4-7.6c5.1-5.4,10-10.9,16.5-14.9
			c16.5-10,26.6-25.3,33.7-42.8c5-12.2,8.7-24.9,17-35.5c5.8-7.4,11.1-15.2,18-21.7C840.9,586.8,841.4,587,841,588z"/>
		<path class="st0" d="M482.7,583.3c-11.1-9-17.8-21-22.7-34.1c-5.2-14.2-15.2-25-26.4-34.4c-7.9-6.6-14.9-13.1-17.2-23.6
			c-2-8.9-8.2-15.6-14-22.2c-1.7-1.9-2.9-4-3.9-6.1c-1.2-2.5-2-5.8,0.8-7.3c2.6-1.4,5.8-1.1,8.2,1.5c2.6,2.7,4.1,5.9,5.4,9.2
			c5.3,12.8,11.4,25.1,19.1,36.6c3.2,4.7,7.9,8,11.5,12.4c5.4,6.6,9.2,14,12.6,21.8c2.8,6.4,7.1,11.7,12.2,16.4
			c3.2,3,5.5,6.5,7,10.9C477.3,570.7,479.3,577.2,482.7,583.3z"/>
		<path class="st0" d="M380.9,690.4c-1.8,1-3.6,2-5.6,3c1.3,1,2.4,0.3,3.5-0.2c7.4-3.4,15.1-3.5,23-2.2c13.8,2.3,27.5,5.2,41.6,5
			c4.2-0.1,5.9,3.2,7.4,6.3c0.8,1.8-0.7,2.7-2.5,2.6c-13.3-0.2-26.3,0.3-39.2-5.2c-12-5.1-24.3-1.7-35.5,5.1
			c-7.4,4.5-12.5,11.7-19.5,16.6c-2.4,1.6-4.8,3.1-8.2,5.3c6.6-18.1,18.3-29.6,34.1-37.2C380.2,689.9,380.5,690.1,380.9,690.4z"/>
		<path class="st0" d="M908.9,695.1c-2.9-1.5-5.8-3.1-9-4.8c11.2,0.7,33.8,20.8,36.9,36.2c-5-1.6-10-5.1-16.7-11.8
			c-7.4-7.4-15.5-13.6-26.3-15c-7.6-1-15.3-2.1-22.6,2.2c-5.3,3.2-11.6,3.4-17.5,4c-6.1,0.6-12.3,0.1-18.5,0.1c-3.6,0-4-1.8-2.2-4.3
			c1.9-2.7,4.2-4.8,8.1-4.7c13.4,0.3,26.4-2.5,39.5-4.8c9.7-1.7,19-1.1,27.7,4.3C908.5,695.9,908.7,695.5,908.9,695.1z"/>
		<path class="st0" d="M514.1,670.5c-11.9-7.2-19.7-17.2-26-28.4c-5.6-9.9-9.3-20.7-15.9-30c-4.8-6.7-11.2-12-16.2-18.8
			C479.3,598.9,513.2,643.6,514.1,670.5z"/>
		<path class="st0" d="M770.3,670c0.5-27.7,31.8-66.9,57.7-76.5c-1.9,2.2-4.1,5.1-6.7,7.6c-8,7.4-13,16.4-17.7,26.2
			c-6.2,12.8-11.7,26.5-23.8,35.5C776.6,665,773.5,667.4,770.3,670z"/>
		<path class="st0" d="M478.3,588.2c-13.4-7.5-26.9-14.7-39-24.4c-5.5-4.4-10.7-9.1-15.5-14.4c-8.1-8.8-10.1-19.3-10.8-30.6
			c-0.6-9.8-0.9-19.7-4-29.2c-0.7-2.1-1.4-4.2-2.5-7.6c6.2,6.8,7.4,14.1,8.4,21.4c2.3,16.3,9.2,30.1,19.6,42.8
			c11.9,14.5,27.6,24.7,40.8,37.5c1.2,1.2,2.6,2.1,3.9,3.2C479,587.4,478.7,587.8,478.3,588.2z"/>
		<path class="st0" d="M809.7,585.7c1.3-6.6,6.2-8.6,9.8-11.3c7.9-6.2,16-12.2,23.4-18.9c11-9.9,17.4-22.8,22-36.6
			c2.8-8.4,5.1-16.9,7.9-25.2c-0.4,11.7,1,23.4-1.6,35.1c-2.9,12.6-9.6,22.3-19.5,30.2C838.9,569,825,577.4,809.7,585.7z"/>
		<path class="st0" d="M468.8,534.2c-6.1-13.4-15.5-24-27-33c-13.5-10.6-20.9-25.7-27.6-40.9c-0.6-1.3-1.5-3.4-0.4-5.2
			c1.2-1.8,3-3.1,4-0.5c5,12.8,16.2,20,25.4,29.1c11.5,11.4,18.1,25.5,22.8,40.7c1,3.2,3,6.2,3.1,9.7L468.8,534.2z"/>
		<path class="st0" d="M962.2,835.9c-2.8,0.2-6.1-0.7-7.9,2.9c-0.8,1.6-2.4,0.2-3.5,0c-18.9-3-37.9-3.1-56.9-2.9
			c-1.3,0-2.7-0.2-4,0.1c-4,1-5.5,0.2-4.2-4.3c1.5-5.3-2.6-8.6-10.3-9c-0.1-1.2,1-1,1.6-1.3c7.8-4.4,7.8-4.4,11.9,3.3
			c1.2,2.4,2.8,3.4,5.5,3.1c14.3-1.7,28.7-1.5,43.1-0.1c4.9,0.5,9.9,0.2,14.9,0.7C957.5,829.1,961,830.4,962.2,835.9z"/>
		<path class="st0" d="M820.1,568.5c8-25.4,24-45,45.7-61.8C858.7,534.2,843.7,554.4,820.1,568.5z"/>
		<path class="st0" d="M324.1,835.8c2.7-4.7,6.8-7.4,11.4-7.7c19.1-1.6,38.3-2,57.4-0.3c2.8,0.3,4.6-1.3,5.5-3.9
			c2.9-9,5-6.4,10.4-3.6c0.6,0.3,1.1,0.6,2,1.1c-3.8,1.3-8.1,1.5-9.3,6.3c-0.2,0.6-0.4,1.2-0.5,1.9c-0.5,6.6-0.5,7.1-7.4,6.3
			c-11.9-1.4-23.8,0.3-35.7,0.3c-7.3,0-14.6,1.6-21.9,2.6c-1.2,0.2-2.5,0.7-3.2-0.4C330.8,835,327.6,836.2,324.1,835.8z"/>
		<path class="st0" d="M365,475c4,10.5,8.1,20.8,13,30.8c3.6,7.3,7.8,14.1,13.9,19.5c3.1,2.8,5.3,6.2,6.1,10.3c0.2,1,2,1.9,0.6,3
			c-1,0.8-2,0.1-3.1-0.6c-14.1-10.2-28.4-20.4-33.9-38.3c-0.7-2.3-1.8-4.5-2.5-6.8C355.8,483.3,356.3,481.6,365,475z"/>
		<path class="st0" d="M654.4,776c7.4-7.2,14.8-12.7,21.4-19.1c9.5-9.3,17-19.3,18.4-33c0.2-2.3,1.8-4.6,3.2-6.5
			c1.5-1.9,3.1-5.5,5.7-4.4c1.9,0.8,1.9,4.7,1.6,7.2c-0.6,6-1.9,11.8-4.8,17.2c-3.6,6.7-6.5,13.7-10.3,20.3
			C682.2,771,670.3,776.1,654.4,776z"/>
		<path class="st0" d="M884.4,540.2c3.7-9.9,10.3-16.5,15.7-23.8c8.2-11,13.8-23,16.8-36.3c1.1-4.9,1.8-5.2,5.7-2
			c5.1,4.3,5.7,9.4,2.8,18c-2.5,7.3-7,13.3-11.6,19.2C906,525.4,896.7,533.8,884.4,540.2z"/>
		<path class="st0" d="M446,590c13.9,14.4,25.8,29.9,32.1,49.3c5.8,17.7,16.7,32,31.2,43.7c4.1,3.2,7.8,6.9,11.6,10.5
			c-11.2-5.8-32.7-24.4-43.3-47.2c-0.1,3.1,0.1,4.1,3.5,10.8c1.8,3.5,3.9,6.9,5.6,10.5c-8.5-8.4-15.2-18-20.6-28.6
			c-5.5-10.8-8.3-22.8-12.7-34c-2.1-5.3-5.4-9.8-7.3-15.1L446,590z"/>
		<path class="st0" d="M868.1,550.4c1.7-6.9,5.9-12.5,7.1-19.4c1.1-5.8,1.5-11.8,0.5-17.2c-2.7-14.7,0.7-27.7,8.7-39.9
			c1.9-2.8,3.4-5.9,4.9-8.9c1.5-3.1,4.4-3.8,6.9-2.7c2.9,1.3,1.7,4,0.7,6.4c-2.3,5.5-7,9.4-9.8,14.6c-6.5,12-8.3,24.5-3.9,37.6
			c1.2,3.6,2.2,7.2,0.9,10.9c-0.2,0.5,0,1.8-1.1,1.6c-0.8-0.2,0.2-1.6-1.4-2.1C882.9,541.4,876.6,546.4,868.1,550.4z"/>
		<path class="st0" d="M393.1,625c-14.9-4.7-38.3-29.3-41.8-47.6C368.7,580.6,383.2,597,393.1,625z"/>
		<path class="st0" d="M934.4,576.1c-3.6,9.5-8,16.9-13.4,23.8c-5.9,7.5-12.1,14.8-20,20.4c-2.2,1.6-5.2,4.2-7.4,2.4
			c-2.4-1.9-0.1-5.2,1-7.6c4.7-9.9,10.9-18.8,17.4-27.6c1.2-1.6,3.2-2.9,5.1-3.8C922.4,581.1,928.3,579.9,934.4,576.1z"/>
		<path class="st0" d="M463.9,567.6c-17.2-7.6-43.6-44-43.6-59.7c18.7,13.9,31.7,32.7,41.7,53.8
			C462.8,563.5,464.3,565.3,463.9,567.6z"/>
		<path class="st0" d="M774.5,575.9c-7.4-21.9-1.3-67,10.4-76.7C784.8,525.2,782.2,550.6,774.5,575.9z"/>
		<path class="st0" d="M415.9,549.1c-6.4-2.2-11.6-4-13.7-11.9c-1.8-6.7-2-12.2-0.4-19c3.7-15.5,1.2-30.2-9.6-42.7
			c-2-2.3-3.5-5-4.7-7.9c-1.1-2.8,0.1-5.3,2.3-6.3c2.8-1.4,3.6,1.7,4.2,3.5c2.1,6.3,5.4,11.8,9.9,16.6c2.8,3,3.7,7,4,10.8
			c0.5,7,0.7,14,0,20.9C406.6,526,409.3,537.7,415.9,549.1z"/>
		<path class="st0" d="M510.4,575.4c-8.5-24.6-10.5-50-10.9-75.5c4.1,2.3,7.9,8.2,9.4,16.9c2.3,13.1,4.5,26.2,4.1,39.6
			C512.8,562.7,510.8,568.9,510.4,575.4z"/>
		<path class="st0" d="M691.6,490c-9.1,5.2-18.5,8.5-28.6,7.8c-7-0.4-14.4-0.9-19.9-6.5c-0.8-0.8-1.1-0.8-1.7-0.3
			c-13.2,9.7-27.2,8-41.4,2.9c-2.6-0.9-5-2.1-7.5-3.8c4.5,0.3,9.1,0.5,13.6,1c11.1,1.3,21.6-0.2,31.4-5.5c3.3-1.8,5.6-1.7,8.9,0.1
			c9.8,5.2,20.3,6.9,31.4,5.5C682.4,490.7,687,490.4,691.6,490z"/>
		<path class="st0" d="M168.3,426.1c-8.3-1.6-15.5-4-22.4-7.7c-12.9-6.9-26.9-9.8-41.3-11.6c-5.4-0.7-10.8-0.5-16.1-1.3
			c18.6-4.9,37-3.9,55.1,2.6c6.9,2.5,13.8,5.2,20.9,7.4c2.8,0.9,3.9,1.6,2.8,4.6C166.7,421.9,167.7,423.7,168.3,426.1z"/>
		<path class="st0" d="M417.1,652.8c10.3,11.3,22,21,33.3,31.2c8.1,7.3,11.8,16.9,13.7,27.4c1.2,6.8,1.2,13.6,2.7,20.4
			c2.3,10.6,5.2,20.6,15.1,26.9c-6.4-2.1-10.4-7.3-14.3-11.9c-6.6-7.8-8.6-17.1-7.1-27.6c1.4-9.6-3.4-17.7-8.9-25.3
			c-7.1-9.9-16.3-17.9-24.6-26.6c-3.9-4-7.2-8.4-9.9-13.4C416.6,653.6,416.6,653.2,417.1,652.8z"/>
		<path class="st0" d="M594.4,694.2c8.9,4.7,14.5,12.6,19.6,20.8c6.5,10.5,16.4,17.6,25.3,25.6c1.9,1.7,3.9,1.2,6-0.3
			c8.2-6.3,14.9-14,21.4-22c11.1-13.5,22.7-26.6,36.4-38.4c-1.1,4.3-3.1,7.6-6.3,9.5c-8.8,5.5-14.3,14-20.8,21.6
			c-9.9,11.4-17.8,24.6-30.2,33.8c-2.5,1.9-4.4,2.1-7.1,0.3c-8.6-5.9-14.7-14.1-21-22.1C610.1,713.2,602.1,703.8,594.4,694.2z"/>
		<path class="st0" d="M890,524.1c-0.3-10.3,2.9-19,6.1-28c2.3-6.5,5-12.2,10.6-15.9c3.5-2.4,6-5.3,7.8-8.9
			C917.8,476.2,900,515.2,890,524.1z"/>
		<path class="st0" d="M613.4,506.6c8.6-0.7,16.6-3.3,24.4-6.6c2.9-1.2,5.5-1.3,8.4,0c7.7,3.6,15.8,5.9,24.4,6.2
			c-11.7,6.3-24.1,8.7-28,1.2C632.7,516.9,623.1,509.5,613.4,506.6z"/>
		<path class="st0" d="M326.2,540.7c8.4,9.8,13.9,20,9.6,32.9c-0.8,2.3-1.3,5.3-4.9,5.4c-3.5,0.2-3.9-2.8-4.8-4.8
			C321.2,563.2,321.2,552.2,326.2,540.7z"/>
		<path class="st0" d="M797.9,535.9c1.1-8.9,3.8-17.5,7.4-25.6c4.9-11.3,10.2-22.4,15.7-33.5c4.3-8.6,11.9-14.4,18.8-20.8
			c0.9-0.8,2.7-2.1,3.9-0.3c1,1.4-0.3,2.4-1.3,3.3c-6.6,6.2-13.1,12.8-17.3,20.8c-7.1,13.8-13.6,27.9-20.3,42
			c-2.4,5.1-4.5,10.3-6.8,15.5C797.5,536.9,797.5,536.5,797.9,535.9z"/>
		<path class="st0" d="M462.9,822.7c-16.2,2.6-32.1,5.5-47.3-0.4C436,811,452.7,810.9,462.9,822.7z"/>
		<path class="st0" d="M810.8,751.5c7.3-7.8,7.1-17.9,7.9-27.3c1-10.9,3.3-21.2,8.5-30.8c2-3.7,4.9-7,7.9-10
			c7.6-7.6,15.7-14.6,24.4-21c1.4,2.6-0.9,3.4-2,4.5c-10.2,10.5-21.3,20.3-29.1,33c-4.5,7.4-6.3,14.9-4.6,23.7
			c1.4,7.5-1.5,14.5-5.7,20.6C816.1,747,814.4,750.1,810.8,751.5z"/>
		<path class="st0" d="M721.4,742.4c7.6-21.5,19.2-38.7,37.6-52.4c-0.3,5.3-3.7,7.4-5.9,10.2c-6.9,8.7-13.7,17.7-16.7,28.3
			C734.2,736.4,729.5,739.9,721.4,742.4z"/>
		<path class="st0" d="M512.2,696.3c8.8,3.9,14.1,10.9,16.8,20c1.5,5,3.6,9.4,8.6,11.8c1.1,0.5,2.1,1.3,3,0.4
			c0.8-0.7,0.3-1.8,0.1-2.8c-2.5-9.1-7.1-17-13.4-24c-1.6-1.8-3-3.7-4-5.9c6.4,4.7,10.8,11,14.6,17.8c2.4,4.3,5.6,8.4,5.3,13.9
			c-0.2,3.4-1.4,4.9-4.9,4.4c-6.8-1.1-12.1-5-17.3-9c-2.3-1.8-1.2-5.3-1.8-8C517.9,708.3,515.4,702.3,512.2,696.3z"/>
		<path class="st0" d="M720.5,705.3c1.4-14.9,8.1-26.8,16.5-37.6c8.9-11.6,18.9-22.4,28.5-33.5c0.2-0.2,0.6-0.1,1.4-0.2
			c-0.9,5.6-3.8,9.8-7.2,13.9c-5,5.9-11.9,9.9-16.7,16.3c-6.7,8.9-10.4,19-11.8,29.8c-0.5,3.9-2.3,5.9-5,7.8
			C724.6,702.8,722.9,703.8,720.5,705.3z"/>
		<path class="st0" d="M728.9,617.9c1.5-18.8,0.2-37.8,6-56.2c1.4-4.5,3-8.8,5.1-13c0.5-1,1.2-2.3,2.6-1.4c1,0.6,1.4,1.4,0.8,2.9
			c-2.8,7.8-5.1,15.7-6,24.1c-0.6,5.8-1,11.6-1.2,17.3c-0.3,9.7-2.6,18.7-6.5,27.4C729,619,728.3,618.9,728.9,617.9z"/>
		<path class="st0" d="M626.3,774.5c-12,1.1-30.6-12.5-37.2-26.7C597.3,744.1,614.1,759.4,626.3,774.5z"/>
		<path class="st0" d="M555.8,620.6c-5.3-9.6-7.8-19.6-8-30.5c-0.3-12.4-0.9-24.9-6-36.6c-1-2.2-0.6-4.1-0.7-6.4
			c3.4,0.1,3.7,3.1,4.6,5c3.8,8.1,5.8,16.9,7.1,25.7C555.1,592,553.2,606.5,555.8,620.6z"/>
		<path class="st0" d="M947,567.6c-0.3-7.5,1.8-13.5,5.9-18.8c0.9-1.2,2-2.7,3.4-2.5c1.3,0.2,1.2,2.1,1.7,3.2
			c4.9,9.9,3.3,19.1-2,28.3c-1.8,3.1-3.1,2.8-5.2,0.7C947.6,575.2,946.1,571.4,947,567.6z"/>
		<path class="st0" d="M642,474.9c-4.9,8-15.8,11.1-29,9.7c11.7-3.5,21.5-9,27.6-19.4c0.7-1.2,1.4-2,2.4-0.3
			c6.3,10.5,16,16.3,27.5,19.8C659.9,485,649.3,485.2,642,474.9z"/>
		<path class="st0" d="M888.3,434.3c5.7,8.5,13.2,14.2,22.8,17.5c4.4,1.5,5.2,9.6,1.7,12.9c-1.6,1.5-3.1,0.5-4.4-0.2
			c-4.3-2.3-8.4-4.8-12.7-7.1c-5.5-2.9-4.8-8.6-5.6-13.4C889.6,440.8,888.9,437.7,888.3,434.3z"/>
		<path class="st0" d="M563.6,704.6c-4-3-6.1-6.6-9.6-8.5c-1.2-0.6-0.9-1.7-0.9-2.6c0-13.7-7.4-23.9-15.6-33.7
			c-5.4-6.4-11.6-12.2-16.3-19.2c-0.9-1.3-1.6-2.7-2.8-4.9c20.2,18.1,38,36.6,44.2,63.1C562.9,700.5,563.2,702.3,563.6,704.6z"/>
		<path class="st6" d="M397.4,572.2c2.7,11.7,14.4,15.9,20.7,25c-7.9-3.5-18.1-12-23.8-21.5c-10.7-17.8-15.5-19.8-31.7-29.7
			c5.4,0.5,9.8,2.5,13.3,5.3c5.7,4.5,11.8,7.9,18.3,10.9c7.6,3.5,10.9,11.2,14.5,18.3C405.2,577.6,400.4,576.2,397.4,572.2z"/>
		<path class="st0" d="M528.4,693.2c19.5,10.4,25.7,30.2,34.1,48.2c-5.3-0.3-14.5-7.2-15.2-12.6
			C545.4,714.5,537.3,703.7,528.4,693.2z"/>
		<path class="st6" d="M620.1,534.1c17.7,2.8,34.9,4.1,51.5-3.5C662.6,543.4,633.9,552.2,620.1,534.1z"/>
		<path class="st6" d="M423,596c6.2,4.1,12.3,8.4,19.4,11.2c3.2,1.2,3.4,0.1,3.6-2.3c0.4-4.1-2-7.1-3.9-10.2
			c-2.9-4.4-6.2-8.6-9.9-13.7c7.9,5,15,14,18.3,22.6c4.9,12.8,8.5,26,14.6,38.3c0.7,1,0,1-0.7,1c-4.2-7.7-7-16-12-23.3
			c-3.1-4.6-6.9-8.3-12.2-10.1c-7.5-2.5-13.4-7.2-18.1-13.5C422.3,595.6,422.6,595.6,423,596z"/>
		<path class="st6" d="M441.8,603c-15.9-5.5-21.5-20.1-30.8-32.9C426.1,575.7,441.2,592,441.8,603z"/>
		<path class="st0" d="M596.8,743.8c-10.1,0.3-10.3,0.3-13.6-8.5c-2.2-6-4.8-12-3.2-18.8c0.4-1.6,0.6-3.9,1.7-4.3
			c1.9-0.7,3.2,1.6,4,3c2.9,5.2,5.8,10.4,6.9,16.3C593.2,735.9,594.7,739.9,596.8,743.8z"/>
		<path class="st6" d="M355.3,723.7c10.5-7.7,20.1-16.7,33.3-19.9c7.2-1.7,14.1-1.7,21.2,0.4c12.7,3.9,25.7,5,38.9,2.8
			c0.8-0.1,1.7-0.1,2.5,0c0.3,0.1,0.6,0.5,0.9,0.8c-0.7,1.7-2,1-3,1c-15.2-0.1-30.4-0.1-45.6-1.6c-10.6-1-21.4,1.1-30.8,7.3
			C367.1,718.2,361.6,721.6,355.3,723.7z"/>
		<path class="st6" d="M866,588c-1.3,2.2-2.7,4.4-4.2,6.9c2.6,0.4,3-2.3,5.5-2.4c-3.8,5-7.9,9.1-13.5,11.4
			c-7.7,3.3-15.1,7-20.7,13.4c-1.5,1.7-2.9,3.5-4.4,5.4c-0.6-8,8.4-24.8,22.4-41.8c0.9-0.2,1.4,0,1,1c-5.7,6.9-11,14.1-14.3,22.6
			c-0.5,1.3-1.2,2.5-0.3,3.7c1.3,1.6,2.8,0.3,4-0.4c9.3-5.4,17.6-12,23.8-20.9C865.9,586.9,866.5,587,866,588z"/>
		<path class="st6" d="M411.9,645.2c-15.7-20.3-21.6-45.8-39.2-64.2C391,598.9,405,619.5,411.9,645.2z"/>
		<path class="st6" d="M418.2,640.4c4.3,4.5,10.2,5.1,15.8,5.4c9.5,0.5,16,5.7,21.4,12.3c5.1,6.2,7.9,13.8,9.5,21.7
			c0.3,1.6,1,3.7-1.3,4.8c-2.3-13.2-8.5-23.9-19.9-31.3c-4.8-3.1-10.4-4.6-16-5.2C422.7,647.5,419.7,645.2,418.2,640.4z"/>
		<path class="st6" d="M815.4,546.7c7.5-23.8,25.7-39.5,42.4-56.4c-5.5,10.8-15.1,18.3-22.6,27.5C827.7,527,826.2,540,815.4,546.7z"
			/>
		<path class="st0" d="M456,681.1c-10.5-10.2-21.8-17.7-30.3-28.9C437.3,652.4,454.1,666.4,456,681.1z"/>
		<path class="st0" d="M800.9,688.9c0.1-2.1,1.7-5.1,4.4-6.6c3.1-1.7,4.2,1.8,6.2,3.3c2,1.4,2.5,5.3,6.2,4.4
			c0.7-0.2,1.1,0.4,1.3,1.1c0.9,3-4.6,9.3-7.7,8.9C805.4,699.3,801,695.1,800.9,688.9z"/>
		<path class="st6" d="M904.9,588c0,0.4,0,0.7,0,1.1c-5.5,9.9-11,19.7-16.6,29.5c-3.8,6.7-7.7,13.5-12,20c1.5-8.5,3.4-16.8,8.4-23.9
			C891.3,605.6,897.5,596.3,904.9,588z"/>
		<path class="st6" d="M857,654.3c-7.5,8-15.1,15.5-23.7,21.9c-0.9,0.7-1.8,1.1-2.6,0.6c-0.3-0.2,0.1-1.6,0.3-2.4
			C834.2,663,845.4,654.3,857,654.3z"/>
		<path class="st6" d="M864.7,642.8c-1.6,3.8-5.3,4.2-8.5,5.2c-8.9,2.7-17.9,5.1-24.4,12.7c-5,5.8-7.9,12.6-10.7,19.6
			c-0.5,1.2-0.9,2.3-1.6,4.1c-0.9-3.5,0.9-5.9,1.8-8.3c1.8-5,3.8-10,6.2-14.8c5.1-10.1,13.5-15.4,24.9-15.2
			C856.8,646.1,860.9,645.4,864.7,642.8z"/>
		<path class="st7" d="M399.5,517.5c-1.2-19.2-5.1-37.1-22.6-49.7c3.7-1.1,5.8-1.1,7.4,1c6,7.5,12.7,14.6,15.2,24.2
			C401.5,501.1,400.6,509.3,399.5,517.5z"/>
		<path class="st6" d="M354.5,536.5c-9.8-2.1-16.6-6.6-20.9-14.4c-1.9-3.4-0.3-7,1.3-9.8c1.3-2.4,2.7,0.7,3,1.6
			c1.6,4.6,4.4,8.3,7.1,12.1C347.6,529.5,351.2,531.9,354.5,536.5z"/>
		<path class="st6" d="M757.1,591.1c4.7,4.9,3.5,9.4-0.1,13.9c-2,2.5-3.7,5.3-5.5,8c-1.8,2.7-2.7,2.1-3.7-0.7
			c-1.2-3.5-1.5-6.9,0.5-9.9C750.9,598.5,754.1,594.9,757.1,591.1z"/>
		<path class="st0" d="M483,688.3c0.1,3.8-3.9,8.2-8.7,9.5c-3.4,0.9-6,0-7.6-3.5c-1.2-2.7-1.7-4.6,2-5.4c2.5-0.6,4.9-1.7,6.7-3.7
			c1-1.2,1.7-3.1,3.9-1.6C481.3,684.7,483.3,685.6,483,688.3z"/>
		<path class="st6" d="M885.9,519.8c-1.5-0.4-1.9-1-2-1.9c-1.5-16.1,0.8-31.1,12.2-43.6c1.3-1.5,2.4-3.2,3.7-4.6
			c1-1.1,2.5-2.5,3.8-1.3c1.5,1.3,0.5,2.9-0.7,4.2c-2.3,2.4-4.7,4.7-6.8,7.3c-7.9,9.9-10.8,21.3-10.2,33.8
			C886,515.6,885.9,517.6,885.9,519.8z"/>
		<path class="st6" d="M501.4,711.7c-8.2-7-17.7-13.2-16.3-26.5C492.5,693,500.4,700.1,501.4,711.7z"/>
		<path class="st6" d="M394.5,518.7c-9.4-11-13.2-24.6-17.3-38.1C385.6,492,392.4,504.2,394.5,518.7z"/>
		<path class="st6" d="M773.2,696.2c-3.4,4.9-5.4,10.5-8.2,15.7c-1.8,3.4-4.3,6.2-7.2,8.7c-0.8,0.7-1.4,2.1-2.8,0.8
			c-0.8-0.7-0.9-1.5-0.7-2.6C756.2,707.6,764.9,702,773.2,696.2z"/>
		<path class="st0" d="M525.9,590.3c2.3,3.7,4.9,6.1,7.5,8.6c3.8,3.6,4.1,8.1,3.5,12.8c-0.2,1.4-0.9,2.9-3,1.8
			c-2.7-1.5-10.2-15.4-10-18.5C524.1,593.4,525,592.3,525.9,590.3z"/>
		<path class="st8" d="M768.6,722.7c2.7-22.3,16.4-37.9,31.8-52.5c-5.6,8.9-13.4,16.1-19.5,24.7
			C774.8,703.4,773.4,713.7,768.6,722.7z"/>
		<path class="st8" d="M440.9,503.5c12.8,11.5,20.9,26.1,27.7,42.8c-5.1-2.9-7.2-6.8-8.8-11c-4.3-11.2-10-21.3-19.2-29.3
			c-0.5-0.4-0.7-1-1.1-1.5C440,504.1,440.4,503.8,440.9,503.5z"/>
		<path class="st8" d="M374.6,466.8c0.7,3.4,2.5,5.7,4.5,7.8c2.8,3,6.3,5.4,8.3,9.2c0.8,1.5,4.6,2.4,0.9,5c-0.2,0.1,1.8,3.2,2.6,5
			c2,4.2,4.4,8.3,3.8,14.5c-3.9-14.1-12.1-24.4-20.5-34.5C371.9,470.9,372,470.9,374.6,466.8z"/>
		<path class="st6" d="M782.3,713.5c-1.2-5.3,1.9-8.7,4.1-12.4c1.7-2.8,3.8-5.3,5.8-7.9c0.4-0.6,1-1.4,2-1.1
			c1.1,0.4,0.7,1.3,0.7,2.1c0.2,3.8,0,7.2-2.8,10.4C789.2,707.9,786.8,711.5,782.3,713.5z"/>
		<path class="st6" d="M339.9,509c7.8,11.6,15.8,22.9,28.2,31.8C356.7,538.4,342.7,522.3,339.9,509z"/>
		<path class="st6" d="M876.8,612.8c7.1-10.4,13.3-21.7,25.1-27.8C893.8,594.6,887.9,606.1,876.8,612.8z"/>
		<path class="st7" d="M385.8,510.6c-8.5-11-13.1-23.9-16.6-38.1c3.6,2.1,5.3,4.5,5.9,7.6C377.2,490.7,381.2,500.7,385.8,510.6z"/>
		<path class="st0" d="M366,516c-6-4.7-10.4-10.8-13.8-17.5c-1.6-3-1.8-6.3-0.3-9.4c0.4-0.8,0.9-1.9,2-1.6c0.7,0.2,1.1,1,1.3,1.9
			c1.5,9.8,6,18.3,11.3,26.4L366,516z"/>
		<path class="st6" d="M405.9,611.5c-8.6-6.6-15-15-21.5-25.3C395.5,592.5,401,601.7,405.9,611.5z"/>
		<path class="st6" d="M755.5,666.3c-1.7,5.1-3,9-4.3,12.9c-0.4,1.2-0.8,2.6-1.6,3.5c-1.8,2.1-4.2,5.4-6.7,3.9
			c-2.5-1.5,0.2-4.7,1.4-6.7C747,675.2,750.2,670.6,755.5,666.3z"/>
		<path class="st6" d="M542.3,685.8c-11.6-2.8-9.5-13.4-13.1-20.5C536,670.4,539.9,677.3,542.3,685.8z"/>
		<path class="st8" d="M910.4,577.8c6.7-7.8,11.5-17.8,24.5-20.1C926.2,565.1,919.3,572.7,910.4,577.8z"/>
		<path class="st8" d="M801.3,507.7c1.9-13.6,8.7-24.6,17.8-34.5C812.1,484.1,807.2,496.2,801.3,507.7z"/>
		<path class="st6" d="M371,575.5c-6.6-5.9-12.7-11.3-19-16.9C359.8,557.4,368,564.7,371,575.5z"/>
		<path class="st8" d="M894.6,487.4c1.4-3.3,3.5-6.1,6.1-8.6c2.1-2.1,4.4-4.1,6.1-6.5c1.2-1.6,2.2-3.4,4.1-1.7
			c1.8,1.7-0.1,3.2-1.3,4.4c-3.1,2.9-6.4,5.6-9.5,8.6c-1.5,1.5-2.8,3.2-4.2,4.8C895.4,488,895,487.7,894.6,487.4z"/>
		<path class="st6" d="M506.7,697c7.3,11,9.4,16.3,9,23.6c-6.6-7.1-5.1-16.7-9.8-23.6C506.2,696.6,506.5,696.6,506.7,697z"/>
		<path class="st9" d="M860,634.2c4.7-3.9,9.4-7.7,13.8-12.7c-1.5,8.4-6,12.7-13.8,13.6c-0.3-0.2-0.4-0.4-0.3-0.6
			C859.8,634.3,859.9,634.2,860,634.2z"/>
		<path class="st9" d="M542.9,674.1c-6.3-8.5-13.5-16-21.2-23.2c8.2,6.6,16.8,12.9,21.6,22.8C543.1,673.9,543,674,542.9,674.1z"/>
		<path class="st7" d="M481.6,668.4c0.4-0.8,0.8-0.7,1.4-0.1c6.7,6.9,14.2,13.2,19,21.7c0.3,0.2,0.4,0.4,0.3,0.7
			c-0.1,0.2-0.2,0.3-0.3,0.3c-6.9-7.4-14-14.7-20.3-22.7L481.6,668.4z"/>
		<path class="st7" d="M424.3,634.2c-6.3-1.5-11.1-2.4-12.9-8.2c-0.3-1-0.8-2.1-0.1-2.7c1-0.9,1.7,0.3,2.4,1
			C416.9,627.2,420.1,630.2,424.3,634.2z"/>
		<path class="st10" d="M866,588c-0.3-0.3-0.5-0.6-0.8-1c4.3-7.1,8.5-14.1,12.8-21.2c0.4,0.2,0.7,0.5,1.1,0.7
			C875.7,574.2,871.1,581.3,866,588z"/>
		<path class="st7" d="M345.5,537.2c6.1,1.9,12.9,1.1,19.5,6.2C357.3,542,351.2,540.1,345.5,537.2z"/>
		<path class="st8" d="M464.3,642.9c0.2-0.3,0.5-0.7,0.7-1c3.3,5.7,6.7,11.4,10,17c-0.3,0.4-0.5,0.4-0.8,0
			C470.3,654,466.6,648.9,464.3,642.9z"/>
		<path class="st11" d="M528.7,584c2.4,4.1,4.8,8.2,7.2,12.2C530.7,593.8,529.6,589,528.7,584z"/>
		<path class="st12" d="M416.3,585c-3-3-4.8-6.7-6.1-10.7c2.5,3.4,5.4,6.6,6.9,10.7C416.8,585.4,416.6,585.3,416.3,585z"/>
		<path class="st8" d="M320.4,535c3.1,2.4-0.2,4.1,0.1,6c0,0.2-0.7,1.2-1.4,0.4c-0.6-0.6-1.3-1.1-0.8-2.1
			C318.9,537.9,319.7,536.5,320.4,535z"/>
		<path class="st13" d="M523.5,550.7c1.1,4.9,0.4,9.8,0,14.7C523.1,560.4,522.5,555.5,523.5,550.7
			C523.6,550.6,523.5,550.7,523.5,550.7z"/>
		<path class="st0" d="M547,682.9c1.9,3,2.5,6.3,2.6,9.7c-2-2.5-2.6-5.5-2.6-8.6c-0.3-0.3-0.4-0.5-0.3-0.8
			C546.8,683,546.9,682.9,547,682.9z"/>
		<path class="st11" d="M751.2,592.6c0.5-2.4,1.5-4.7,3.3-6.7C755.9,589.5,753.4,591,751.2,592.6z"/>
		<path class="st14" d="M757.3,577.9c1.8,2,2,3.8,1.5,5.7c0-1.5-4,1.7-2.2-1.9C757,580.7,757,579.5,757.3,577.9z"/>
		<path class="st13" d="M423,596c-0.4,0-0.7,0-1.1,0c-3-0.3-3.9-3-5.6-4.8C419.3,591.7,420.7,594.5,423,596z"/>
		<path class="st15" d="M502,691c0-0.3,0-0.7,0-1c1.9,2.1,3.6,4.4,4.7,7l-0.4,0.1l-0.4-0.1C504,695.4,502.4,693.6,502,691z"/>
		<path class="st16" d="M841,588c-0.3-0.3-0.6-0.7-0.9-1c1-2.1,2.8-3.5,5-5.3C844.7,584.9,841.9,585.8,841,588z"/>
		<path class="st17" d="M366.4,515.8c1.8,1.5,3.6,2.9,5.4,4.4c-0.5,0.4-1,0.9-1.4,1.3c-1.7-1.6-4-2.7-4.3-5.5L366.4,515.8z"/>
		<path class="st0" d="M895.4,494.5c-1.3,2.9-1.8,5-3.9,6.3C892.4,499,892.3,496.6,895.4,494.5z"/>
		<path class="st18" d="M852,582.1c-0.3-0.3-0.6-0.7-1-1c0.8-1.6,1.7-3,4.6-3.4C854.1,579.5,853.1,580.8,852,582.1z"/>
		<path class="st0" d="M481.7,668.3c-1-1.7-3.3-2.6-3.4-5c1.3,1.5,4.7,1.7,3.3,5.1C481.6,668.4,481.7,668.3,481.7,668.3z"/>
		<path class="st19" d="M879.6,687.7c0.4-0.6,0.8-1.2,1.2-1.7c1.3,0.4,2.6,0.8,4,1.1c0,0.2,0,0.4,0,0.6
			C883.1,687.7,881.3,687.7,879.6,687.7z"/>
		<path class="st20" d="M547,682.9c0,0.4,0,0.7,0,1.1c-1.4-1.8-2-3.8-2.1-6c0.3-0.4,0.6-0.4,0.9,0C546.1,679.6,547.5,681,547,682.9z
			"/>
		<path class="st21" d="M808.6,753.7c-1.2,2.7-2.2,3.8-4.6,4.3C805.1,756,806.2,755,808.6,753.7z"/>
		<path class="st22" d="M770,496.1c-0.3-0.3-0.5-0.7-0.8-1c0.6-1.5,1.3-2.9,3.9-3.1C771.9,493.6,771,494.8,770,496.1z"/>
		<path class="st23" d="M722.7,662.9c-1.4,1.4,0.5,3.9-1.8,5l0.1,0.1c0-2.1-0.9-4.2,0.9-6C722.2,662.3,722.5,662.6,722.7,662.9z"/>
		<path class="st14" d="M545.8,678l-0.4,0l-0.4,0c-1.2-1-1.9-2.3-2.1-3.8c0.1-0.2,0.2-0.3,0.4-0.4
			C544.9,674.7,545.1,676.5,545.8,678z"/>
		<path class="st7" d="M446.1,589.9c-1.8-0.5-2.6-1.8-2.8-3.6c1.2,1,3.1,1.5,2.7,3.7C446,590,446.1,589.9,446.1,589.9z"/>
		<path class="st24" d="M797.9,535.9c0,0.5,0.1,1,0.1,1.4c-0.4,1.2,0.9,2.9-1.1,3.6l-0.4,0.1l-0.4-0.1
			C797.4,539.5,796.1,537.2,797.9,535.9z"/>
		<path class="st17" d="M860,634.2c0,0.3,0.1,0.6,0,0.9c-0.8,1.7-2,2.4-4,1.5C857.4,635.7,858.7,635,860,634.2z"/>
		<path class="st25" d="M474.3,658.9c0.3-0.1,0.5-0.1,0.8,0c1.3,0.4,1.9,1.5,2.7,2.8C475.5,662.1,474.9,660.4,474.3,658.9z"/>
		<path class="st25" d="M728.9,617.9c0.3,0.3,0.6,0.7,0.8,1c-0.4,1-0.8,1.9-1.4,3.3C727.8,620.3,727.4,618.9,728.9,617.9z"/>
		<path class="st26" d="M417.1,652.8c0,0.4-0.1,0.8-0.1,1.2c-0.8-1.1-1.5-2.2-2.4-3.6C416.8,650.4,417.2,651.4,417.1,652.8z"/>
		<path class="st0" d="M762.5,594.9c-1.3-0.8-1.9-1.9-1.5-3.3c0.1-0.1,0.2-0.3,0.3-0.4C762.2,592.2,763.6,593.2,762.5,594.9z"/>
		<path class="st27" d="M416.3,585c0.3-0.1,0.5-0.1,0.8,0c1.2,0.4,1.9,1.1,2.1,2.5C417.2,587.6,416.9,586.1,416.3,585z"/>
		<path class="st28" d="M403.1,685.2c0,0.6,0,1.1,0,1.7c-0.9-0.1-1.8-0.2-2.7-0.2C400.9,685.4,401.9,685,403.1,685.2z"/>
		<path class="st0" d="M659,348.7c-1.2,8.7-7.5,16.8-16.4,23.4c-1.1,0.8-1.6,0.5-2.4,0c-11.7-6.4-19.5-20.1-15.1-33.4
			c2.4-7.4,8.9-10.5,15.5-13.3c0.4-0.2,1-0.2,1.4-0.1C649.7,326.5,659,337.8,659,348.7z"/>
		<path class="st29" d="M720.9,667.9c0,1.5,0,3.1,0,4.6c-0.8-1.6-2-3.2,0.1-4.5C721,668,720.9,667.9,720.9,667.9z"/>
		<path class="st30" d="M691.1,789.2c3.7-3.3,7.4-6.6,11.1-9.9c2.8-2.5,6.3-2.7,9.9-2.6c-6.7,4.5-13.7,8.3-20,13.3
			C691.1,790.5,691,790,691.1,789.2z"/>
		<path class="st31" d="M589,787c-5.6-3.7-11.2-7.5-16.9-11.2c8.1-0.4,11.6,6.4,16.9,10.3c0.3,0.2,0.4,0.4,0.3,0.6
			C589.2,786.9,589.1,787,589,787z"/>
		<path class="st32" d="M691.1,789.2c0.3,0.2,0.6,0.5,1,0.7c-1.7,1.4-3.4,2.7-5.1,4.1C687.6,791.7,688.8,789.9,691.1,789.2z"/>
		<path class="st33" d="M589,787c0-0.3,0-0.6,0-0.8c1.9,0.4,2.6,2.2,4.5,3.5C590.7,790.1,589.9,788.4,589,787z"/>
	</g>
</g>
</svg>
