<?xml version="1.0" encoding="utf-8"?>
<!-- Generator: Adobe Illustrator 24.1.1, SVG Export Plug-In . SVG Version: 6.00 Build 0)  -->
<svg version="1.1" id="Layer_1" xmlns="http://www.w3.org/2000/svg" xmlns:xlink="http://www.w3.org/1999/xlink" x="0px" y="0px"
	 viewBox="0 0 393 481.5" style="enable-background:new 0 0 393 481.5;" xml:space="preserve">
<style type="text/css">
	.st0{fill:#FEFEFE;}
	.st1{fill:#010101;}
	.st2{fill:#020202;}
	.st3{fill:#030303;}
	.st4{fill:#040404;}
	.st5{fill:#060606;}
	.st6{fill:#050505;}
	.st7{fill:#E3E3E3;}
	.st8{fill:#191919;}
	.st9{fill:#606060;}
	.st10{fill:#ACACAC;}
	.st11{fill:#8E8E8E;}
	.st12{fill:#434343;}
	.st13{fill:#FDFDFD;}
	.st14{fill:#FCFCFC;}
	.st15{fill:#FBFBFB;}
	.st16{fill:#F9F9F9;}
	.st17{fill:#FAFAFA;}
	.st18{fill:#F6F6F6;}
	.st19{fill:#F5F5F5;}
	.st20{fill:#F8F8F8;}
	.st21{fill:#F2F2F2;}
	.st22{fill:#F4F4F4;}
	.st23{fill:#0E0E0E;}
	.st24{fill:#E8E8E8;}
	.st25{fill:#E9E9E9;}
	.st26{fill:#E7E7E7;}
	.st27{fill:#EDEDED;}
	.st28{fill:#E0E0E0;}
	.st29{fill:#EAEAEA;}
	.st30{fill:#DFDFDF;}
	.st31{fill:#DCDCDC;}
	.st32{fill:#D8D8D8;}
	.st33{fill:#E6E6E6;}
	.st34{fill:#DEDEDE;}
	.st35{fill:#1E1E1E;}
	.st36{fill:#DDDDDD;}
	.st37{fill:#E2E2E2;}
	.st38{fill:#EBEBEB;}
	.st39{fill:#494949;}
	.st40{fill:#515151;}
	.st41{fill:#BEBEBE;}
	.st42{fill:#D0D0D0;}
	.st43{fill:#313131;}
	.st44{fill:#E4E4E4;}
	.st45{fill:#DADADA;}
	.st46{fill:#121212;}
	.st47{fill:#585858;}
	.st48{fill:#CBCBCB;}
	.st49{fill:#B1B1B1;}
	.st50{fill:#838383;}
	.st51{fill:#AFAFAF;}
	.st52{fill:#EEEEEE;}
	.st53{fill:#787878;}
	.st54{fill:#0C0C0C;}
	.st55{fill:#C5C5C5;}
	.st56{fill:#505050;}
	.st57{fill:#B7B7B7;}
	.st58{fill:#B5B5B5;}
	.st59{fill:#8A8A8A;}
	.st60{fill:#A1A1A1;}
	.st61{fill:#414141;}
	.st62{fill:#DBDBDB;}
	.st63{fill:#A9A9A9;}
	.st64{fill:#C0C0C0;}
	.st65{fill:#969696;}
	.st66{fill:#D3D3D3;}
	.st67{fill:#565656;}
	.st68{fill:#919191;}
	.st69{fill:#8B8B8B;}
	.st70{fill:#C3C3C3;}
	.st71{fill:#B3B3B3;}
	.st72{fill:#C9C9C9;}
	.st73{fill:#C6C6C6;}
	.st74{fill:#CFCFCF;}
	.st75{fill:#BBBBBB;}
	.st76{fill:#5A5A5A;}
	.st77{fill:#6E6E6E;}
	.st78{fill:#3D3D3D;}
	.st79{fill:#323232;}
	.st80{fill:#070707;}
	.st81{fill:#535353;}
	.st82{fill:#4C4C4C;}
	.st83{fill:#222222;}
	.st84{fill:#4E4E4E;}
	.st85{fill:#5C5C5C;}
	.st86{fill:#989898;}
	.st87{fill:#4A4A4A;}
	.st88{fill:#282828;}
</style>
<g>
	<g>
		<path class="st0" d="M0.1,240.8c0-79.5,0-158.9-0.1-238.4C0,0.3,0.5,0,2.5,0c129.4,0.1,258.7,0.1,388.1,0c2,0,2.5,0.3,2.5,2.4
			c-0.1,158.9-0.1,317.9,0,476.8c0,2-0.5,2.3-2.3,2.3c-129.4,0-258.9,0-388.3,0c-1.8,0-2.3-0.3-2.3-2.3
			C0.1,399.8,0.1,320.3,0.1,240.8z"/>
		<path d="M164.5,397c1.7-2.1,3.3-4.3,5.1-6.4c7.3-8.6,16.7-11.2,27.4-8.5c6.3,1.6,12.4,4.3,16.7,9.4c5.1,6,11.9,8,19.3,9.1
			c4.8,0.7,8.7-0.4,12.3-3.2c3.4-2.6,7.2-2.9,11.1-2.2c4.5,0.8,8.5,2.7,12.3,5.2c1.5,0.9,3,1.8,4.6,2.5c8.3,3.7,13.3,2.5,19.1-4.4
			c4-4.8,8-6.2,13.9-4c6.4,2.4,12.8,2.6,19.3,1.3c3-0.6,6.1-0.5,9.2,0.3c8,2,15.1,5.6,20.9,11.5c6,6,7.8,13.7,8.4,21.8
			c0.2,2.9,0.8,5.8,2.5,8.2c1.1,1.6,2.5,2.6,4.6,2.5c1.4,0,1.9-0.6,1.2-1.8c-1.1-2-1.4-4.4-2.2-6.5c-0.7-1.8-0.7-4-0.9-6
			c-0.2-1.9-0.8-3.5-1.5-5.1c-1.2-2.6-1.3-5.3,0.8-7.7c0.5-0.6,0.7-1.2,0.8-2c0.1-1.1,0.1-2.4,1-3c2.1-1.5,1.4-3.3,0.8-5.1
			c-1.1-3.1-2.6-6.1-4.2-9c-0.3-0.6-1-1.4,0-1.9c0.9-0.5,1.4,0.3,1.7,0.9c2.2,3.9,3.6,8.2,4.9,12.5c0.2,0.5,0.1,1.2-0.2,1.7
			c-1.4,2.4,0,4.1,1.6,5.6c3,3.1,6.1,6.1,8.8,9.5c5.2,6.8,6.6,14.2,4.5,22.4c-0.9,3.5-2.7,6.1-6.1,7.6c-3.6,1.6-7,3.4-10.7,4.6
			c-2.5,0.9-4.8,2-6.7,3.7c-3.8,3.4-8,3.3-12.4,1.7c-4.5-1.6-8.2-4.4-11.6-7.6c-4.8-4.5-8.8-9.8-12.6-15.2c-0.3-0.5-1-0.9-0.4-2.1
			c1.8,1.8,3.5,3.6,5.2,5.3c4,4,7.9,8.1,12.1,11.9c3.9,3.4,8.2,6.3,13.8,6.1c2.5-0.1,4.6-1,5.3-3.8c-5.3-0.8-9-4.1-12.4-7.7
			c-5.1-5.4-9.1-11.7-13.6-17.6c-1.7-2.2-3.6-4.4-5.5-6.4c-7.7-7.9-16.8-9.9-27.2-6.8c-4.6,1.4-5.8,1-8.6-2.9
			c-5.7-7.8-8.8-9-18.2-6.7c-3.6,0.9-6.9,0.4-10.1-1.4c-2.6-1.4-4.8-3.3-6.8-5.4c-3.7-3.8-9.7-4.9-14.4-2.6
			c-3.2,1.6-6.3,3.4-9.2,5.5c-1.9,1.3-3.6,2.9-5.9,3.7c3.9,0.4,7.6,0,11-1.7c6.8-3.4,13.2-1.8,17.3,4.5c0.4,0.6,0.7,1.1,1,1.7
			c3.2,6.7,8.7,9.7,16,9.2c4.6-0.3,8,1.1,10.3,5.3c2.7,4.8,7.3,6,12.4,5.8c2.2-0.1,4.3-0.4,6.5-0.5c6.8-0.1,10.9,2.9,12.4,9.5
			c0.8,3.2,1.1,6.6,1.7,9.8c1.4,7.5,4.5,14.3,8.1,21c-5.2-4.3-8.4-9.8-10.3-16.2c-0.9-3-1.3-6-1.5-9.1c-0.1-1-0.1-2-0.3-3
			c-1.2-7-4.4-11-12.6-9.1c-3.4,0.8-6.8,0.3-10.1-0.5c-3.3-0.8-6.1-2.5-7.5-5.7c-1.2-2.7-3.2-3.6-5.9-3.9c-3.6-0.4-7.2-0.2-10.7-0.9
			c-3.8-0.8-6.4-2.8-8.1-6.3c-1.9-4.1-4.6-7.5-8.9-9.4c-3-1.3-6-1.4-8.8,0.3c-8.3,5.1-20.8,3.8-27.8-3c-3.1-3-6.3-6-9.2-9.1
			c-12.8-13.4-26.4-10-37,0.8c-2.6,2.6-4.8,5.5-7.1,8.4c-0.7,0.9-1.4,1.7-2.1,2.4c-1,1-2.1,2.4-3.8,1.4c-1.6-0.9-1.9-2.5-1.6-4.1
			c0.3-1.7,0.7-3.4,3-3.6c0.6,0.8,0.3,1.8,0.2,2.7c0,0.5-0.1,1.1,0.4,1.3c0.5,0.2,0.9-0.2,1.3-0.6c1.6-1.8,3.1-3.7,4.6-5.6
			c2.9-3.7,6.4-6.8,10-9.7c7.9-6.2,19.1-7,27.8-0.6c4.5,3.3,8.8,6.9,12.4,11.1c6,6.9,12.9,7.5,20.4,2.7c-0.4-0.3-0.7,0.2-1,0.1
			c-6,0.6-11.1-1.7-16-4.7c-3.2-1.9-6.2-4.2-9.1-6.6c-4.9-3.9-10.1-7-16.3-8.2c-9.1-1.7-16.5,1.6-22.6,8.2c-2.8,3-5.2,6.3-7.8,9.4
			c-1.7,2-2.8,2.1-4.4,0.4c-0.1-1.4,0.4-2.5,1.1-3.7c3.3-4.8,6.3-9.7,7.5-15.6c0.9-4.7-0.1-8.9-2.3-13c-1.5-2.9-3.6-5.4-5.8-7.8
			c-2-2.2-3.8-4.6-5-7.4c-1.5-3.6-1.6-7.3,0-10.9c0.3-0.6,1-1-0.2-1.7c-4.1-2.3-4.8-4.6-3.3-9.1c0.4-1.2,2-2.7,0.2-3.7
			c-1.6-0.9-2.6,0.9-3.5,2c-1.3,1.6-2.1,3.4-2.9,5.2c-0.9,2-1.9,4.1-3.6,5.7c-1.3,1.3-2.8,2.2-4.6,0.6c-0.8-0.7-1.8-0.7-2.8-0.1
			c-1.2,0.7-2.5,1.3-3.8,1.8c-2.6,0.9-3.5,0.4-4.3-2.2c-0.4-1.4-1.5-1.5-2.5-1.4c-2.2,0.3-4.1,0.3-4.9-2.5c-0.3-1.1-1.7-1.3-2.8-1.2
			c-3.4,0.2-5.7-1.3-6.9-4.5c-0.8-2.2-2.7-3-5.1-2.7c-0.9,0.1-1.8,0.2-2.7,0.3c-0.6,0.1-1.3,0.3-1.6-0.4c-0.3-0.6,0.1-1.1,0.5-1.6
			c0.7-1.2,1.7-2,3-2.6c3.4-1.5,7-2,10.7-1.4c7.7,1.2,15.4-3.5,17.6-11c0.1-0.2,0.2-0.5-0.3-0.6c-5.4,7-13.4,7.6-21.2,7.1
			c-25.4-1.7-44.2-14.3-56.2-36.6c-5.4-10-6.3-20.8-3.8-32c1.8-8.2,3.1-16.5,2.6-25c-0.6-10.5-4.4-20-10.1-28.8
			c-5-7.8-8.6-16.1-10.3-25.2c-1.7-9.3-0.9-18.4,3.1-27.1c2.5-5.4,5.2-10.8,7.4-16.3c0.5-1.2,0.9-3.4,2.9-2.5c1.9,0.8,2,2.7,1.3,4.5
			c-1.3,3.1-2.9,6.1-3.5,9.5c-1.6,8.6,0.2,16.5,5.1,23.7c1.7,2.5,3.7,4.9,5.9,7.1c-0.7-2.5-1.5-5-2-7.6c-1.8-9.9,0.1-19.3,3.8-28.5
			c2.9-7.1,6-14.1,10.6-20.2c1.6-2.1,3.3-4.2,5.7-5.5c1.8-0.9,3.2,0,3,2c-0.2,2-1.2,3.6-2.9,4.7c-0.7,0.5-1.8,0.8-1.4,2
			c0.3,1,1.1,1.6,2.2,1.8c2.5,0.6,2.9,1.9,1.2,3.8c-0.4,0.4-0.8,0.9-1.3,1.1c-4.6,2.1-5.5,6.2-5.8,10.5c-0.3,4.4,0.4,8.7,2.2,12.9
			c2.6,5.8,4.8,11.6,7.7,17.3c0.9,1.8,1.9,3.5,3.9,4.4c3.1,1.4,5.9-0.4,5.7-3.8c-0.1-1.1-0.5-1.9-1.6-1.8c-2.7,0.3-4.7-0.4-5.8-3.1
			c-1.3-3.2-1.7-6.3,0.2-9.3c1.2-1.9,2.9-3.2,4.7-4.4c3.1-2,3.3-2.9,1.2-6c-1.6-2.2-2.8-4.5-0.9-7.2c-0.1,2.9,1.4,4.7,3.4,6.5
			c2.7,2.5,2.9,6.5,0.8,9.5c-1.5,2.2-1.4,3.4,0.6,5.1c1,0.9,2.2,1.5,3.4,2c6.5,2.9,8.3,7.2,5.8,13.9c-0.6,1.6-1.2,3-0.3,4.9
			c0.8,1.7,0.1,3.6-1.4,5c-0.8,0.7-1.8,1.2-2.6,1.9c-0.8,0.6-2.1,1.1-1,2.5c1,1.2,2.1,1.1,3.3,0.2c1.2-1,1.8-2.4,2.4-3.8
			c1.2-2.9,3.2-4.6,6.4-4.6c2.4,0,3.7-1.3,4.3-3.4c0.7-2.3,1.2-4.7,1.8-7c0.4-1.7,1.2-2.7,3.3-2.5c2.8,0.2,5.2-0.9,7.2-2.9
			c6.1-6,10-13,9.5-21.9c-0.2-3.1,1-5,4-6.1c1.9-0.6,3.6-1.6,5.3-2.6c2.1-1.2,2.6-2.9,1.4-5.1c-0.4-0.7-0.8-1.3-1.1-1.9
			c-2.6-4.7,0-9.6,5.3-10.4c0.5-0.1,1-0.1,1.5-0.1c2.8-0.3,3.7-1.4,3.6-4.3c-0.1-5.2,1.5-6.7,6.5-6.1c4.5,0.5,5.9-0.2,8-4.2
			c1.1-2.1,2-4.4,3-6.6c3.8-8.1,7.6-10.1,16.3-8.4c1.3,0.3,2.4,0.2,3.6-0.3c3-1.1,6.2-1.2,9.3-0.7c2,0.3,3.8,1.4,4.5,3.2
			c0.7,1.8,2,1.7,3.2,1.5c1.4-0.2,2.1-1.5,1.9-2.8c-0.3-2.2,0.7-3.3,2.6-3.9c0.5-0.2,0.9-0.4,1.3-0.7c0.6-0.4,1.1-1,1.1-1.8
			c0-0.2-0.2-0.5-0.4-0.5c-0.9-0.1-1.4,0.4-1.6,1.2c-0.2,0.7-0.6,1-1.3,0.8c-0.9-0.3-1-1.1-1-1.9c0.1-1.9,1-3.4,2.8-4.1
			c1.8-0.7,3.6-0.6,5.1,0.9c1.5,1.5,1.2,3.3,0.5,5.1c-0.4,1-1.4,1.6-1.4,2.8c2.5-0.7,4.2-4,3.4-6.5c-0.9-2.7-2.9-4.4-5.3-5.7
			c-4.3-2.3-5.4-7-2.6-10.9c0.5-0.7,1.6-1.5,0.6-2.3c-0.9-0.6-1.5,0.5-2,1.3c-0.7,1.2-0.8,3.3-2.9,2.7c-2-0.6-2.2-2.6-2.2-4.4
			c0.1-8.3,9-13.2,16.2-8.8c1.6,1,3,2.4,4.5,3.6c1.6,1.3,3.3,2.5,5.5,2.6c2.6,0.2,3.9-1.3,3.5-3.8c-0.4-2.7-2-4.6-4.4-5.7
			c-3.6-1.7-5.2-4.2-4.5-8.4c0.4-2.4-1.1-4.8-1.2-7.3c-0.2-4.1,1.4-7.2,4.4-8.5c1.1-0.5,1.6-0.5,1.7,1c0.6,9.5,8.4,13.9,17.6,10.9
			c8.1-2.6,15-7,19.7-14.5c2.4-3.9,5.2-7.5,8.9-10.4c2.8-2.1,5.3-1.9,7.3,0.5c1.3,1.6,0.8,5.4-0.9,5.3c-2.3-0.1-2.8,0.8-3.1,2.5
			c-0.6,3.1-0.4,6.1,1.2,9c0.7,1.2,1.9,1.6,3.1,1.9c6.3,1.5,11.6-2.6,11.9-9.3c0.1-2.5,0.3-5,1.2-7.3c0.8-2.2,2.4-3.3,5.2-3
			c-2.1,1.5-1.7,3.2-0.9,5.1c1.4,3.5,3.3,6.5,6.7,8.4c1.3,0.8,1.6,1.7,1,3.1c-0.9,2.1-0.9,4.2-0.1,6.3c0.8,2.1,0.4,4.3,0.5,6.8
			c4.3-1.6,7.9,0.1,11.6,1.9c3.1,1.5,6.2,1.6,9.2-0.5c1.3-0.9,2.8-1.6,4.6-1.3c1.5,0.2,2.2-1.5,3.2-3.2c0.2,2-0.6,2.9-1.2,3.9
			c-1.7,2.7-2.9,5.5-3.3,8.8c-0.4,3.1-4.9,6.1-9,6.3c-3.5,0.2-6.7-1.1-10-1.8c-4.9-1.1-8.5,0.2-10.9,3.9c-1,1.5-1.6,3.2-1.8,4.9
			c-0.6,8.7-5.6,14.5-12.2,19.7c-9.5,7.5-20.4,12-31.7,15.8c-3.9,1.3-7.7,2.6-11.4,4.2c-3.9,1.7-7.5,4-10,7.6
			c-1.4,2.1-3.5,3.3-6.2,3.1c-0.7-0.1-1.3-0.2-1.2,0.9c0.3,3.4-1.8,4.9-4.5,6.2c-2.1,1-4.3,1.1-6.5,1.5c-4.5,0.8-6.9,3.9-6.6,8.2
			c0.2,2.5,1.2,4.5,3.7,5.4c2.5,0.8,4.8,0,6.2-2.1c3.1-4.5,6.9-4.8,11.6-3.1c5.5,1.9,7.9,1.9,15,0.6c-2.7,2.7-5.7,3.4-9,3.2
			c-1.9-0.1-3.7-0.7-5.6-1.1c-5.3-1.1-9.1,0.9-10.2,5.4c-0.9,3.8,0.4,6.5,4,8c1.3,0.5,2.7,1,3.9,1.6c7.7,3.9,10.1,11.6,6,19.1
			c-0.7,1.2-0.6,1.8,0.4,2.8c4,4.4,4,9.7,2.3,15c-1.6,4.8-5.7,6.5-10.3,6.9c-2.1,0.2-3.3,0.5-3.4,3c-0.1,2-1.6,3.5-3.7,4
			c-2.2,0.5-2.9,1.9-3.4,3.8c-0.5,2.1-1,4.2-0.9,6.4c0,0.6-0.1,1.2,0.5,1.6c0.7,0.4,1.1-0.2,1.5-0.6c5.6-5.1,12-9.2,18.8-12.6
			c3.8-2,7-4.7,9.5-8.3c1.2-1.7,2.2-3.5,2.4-5.7c0.6-0.4,0.6,0.1,0.8,0.5c0.5,5.9-3.3,9.4-7.3,12.8c0.9,0.3,1.6,0,2.3-0.3
			c7.5-3.2,13.2-11.8,13.1-20c0-1.3-0.2-2.6-0.8-3.9c-0.2-0.5-0.4-1.3,0.1-1.6c0.7-0.4,1.3,0.1,1.7,0.6c2.6,2.9,3.8,6.4,4,10.2
			c0.4,7.7-3.3,13.7-8.8,18.4c-7.6,6.5-15.8,12.2-25.8,14.6c-6.1,1.5-9.9,4.9-10.8,11.4c-0.8,5.5-3.9,10-7.8,13.9
			c-0.2,0.2-0.4,0.5-0.6,0.9c3.7-0.9,8.2-5.4,8.9-8.7c0.9-4.4,3.5-7,7.7-8.3c1.4-0.4,2.9-0.8,4.4-0.9c4-0.3,7.6-1.5,11-3.7
			c0.6-0.1,0.8,0.1,0.7,0.7c-2.9,3-6.7,4.4-10.5,5.4c-5.2,1.3-9.2,4.1-11.7,8.9c-3.3,6.1-8.7,9.4-15.2,11.2
			c-1.3,0.4-2.7,0.9-4.1,1.4c0.6,1,1.6,1.4,2.5,1.9c7.7,4.2,15,8.8,22,14.2c2.5,1.9,4.4,1.4,5.7-1.5c1.4-2.8,1.2-5.8,0.6-8.8
			c-0.4-2.2-1-4.4-1.4-6.6c-1.7-9.1,1-15.1,9-19.7c3.3-1.9,6.6-3.8,9.8-5.9c6.7-4.6,10.8-11.3,13.8-18.5c2.1-5.1,5.7-9.2,9.4-13
			c2.7-2.8,6.5-3,10.2-3.2c4.2-0.2,8.5-0.2,12.6-1.2c4-1.1,7.3-3.1,9.3-6.9c1.8-3.3,1.6-5.9-1-8.7c-2.7-2.9-5.9-5.1-9.7-6.4
			c-2.4-0.9-4.9-1.7-7-3.1c-2.2-1.4-4.1-3.2-4.8-5.8c-0.2-0.5,0-0.6,0.5-0.6c2.1,2.8,5.1,4.4,8.4,5.5c4.5,1.5,8.9,3.2,12.8,5.9
			c5.5,3.8,6.6,7.2,4.3,13.4c-3.5,9.3-10.5,14.7-19.4,18.1c-2.7,1-5.6,1.7-8.4,2.5c-8.3,2.4-14,7.7-17.8,15.2
			c-3,5.9-7.3,10.2-13.4,12.7c-1.8,0.7-3.7,1.4-5.5,2.3c-8.4,4.1-11.6,10.3-10.2,19.5c0.4,2.4,0.6,4.8,0.8,7.2
			c0.3,3.8-0.2,7.3-3.4,9.9c-0.2,0.2-0.4,0.5-0.6,0.8c-0.1,0.2-0.1,0.5-0.1,0.7c3.3-0.1,7.1-4.5,7.5-8.6c0.2-1.8-0.1-3.5-0.5-5.2
			c-3.8-15.4,5.1-26.5,20.9-25.7c9.9,0.5,18.5-1.9,26.4-7.8c3.4-2.5,5.3-5.9,6.7-9.7c0.9-2.3,1.5-4.8,2.1-7.2
			c1.5-5.5,4.7-9.5,9.8-12.3c6.8-3.8,11.6-9.7,14.3-17c2.4-6.5,1-12.4-3.8-17.5c-2.7-2.9-6.1-4.9-9.3-7.1c-1.2-0.8-2.5-1.6-3.6-2.6
			c-2.3-1.9-3.1-4.3-1.9-7.1c0.8-1.7-0.1-1.9-1.4-1.7c-0.9,0.1-1.7,0.5-2.3,1.2c-2.6,3.1-3.3,3.1-5.9,0.1c-0.2-0.2-0.5-0.4-0.7-0.7
			c-1.4,1.9-0.4,3.7,0.4,5.7c-2.6-1.6-3.5-6.2-1.9-8c0.5-0.6,1.2-0.7,1.8-0.2c0.6,0.5,1.1,1,1.6,1.6c1.2,1.3,2.1,2.4,3.4,0
			c1-1.7,2.9-2.2,4.8-1.7c1.6,0.4,2.6,1.7,2.6,3.3c0,4.6,2.8,7.1,6.5,8.9c4.6,2.3,8.2,5.6,10.9,9.9c3.6,5.8,3.8,11.9,0.9,18.1
			c-3.2,6.5-7.5,12.2-13.5,16.4c-5.6,3.9-9.2,8.9-11.1,15.4c-2.5,8.4-8.1,14.4-15.6,18.6c-1.3,0.7-1.9,1.2-1,2.8
			c1.5,2.7,1.4,5.6,0,8.4c-2.7,5.4-7.2,9.1-11.9,12.8c1.1,0.9,2.6,0.7,3.6,1.5c2.8,2.2,3.7,5.8,2.4,9.2c-0.8,2.2-2.5,3.9-3.8,5.9
			c-1.7,2.7-1.5,5.3,1.1,6.4c7.9,3.5,7.1,14.8,1.9,20.2c-0.8,0.8-1.6,1.7-2.5,2.5c-3.5,3.2-4.1,5.8-2.2,10.2
			c0.9,2.2,2.6,4.1,2.4,6.7c-0.1,0.6,0.7,0.9,1.2,1.2c1,0.6,2.1,1.1,3,1.7c3.7,2.3,4.5,4.1,3.3,8.5c1.3,0.4,2.3,0.4,3.3-1
			c1.8-2.5,4.1-4.2,7-5.4c3.4-1.4,3.5-4.8,3.7-7.9c0.2-3.3,0.4-6.9-2.8-9c-2.1-1.4-4.6-0.8-6.9,0.4c-0.9,0.5-1.9,1.4-2.9,0.2
			c-1-1.3,0-2.2,0.8-3c2.8-3.2,6.4-3.6,10.3-2.6c4.6,1.2,7.7,4.1,9,8.8c0.9,3.2,0.5,6.4-0.3,9.6c-0.3,1.1-0.6,2.2-0.9,3.4
			c1.7,0.4,3.3,0.1,4.7-0.5c10.1-4.3,16.7-11.8,19.6-22.4c1.3-4.9-2.6-9-7.7-8.7c-0.5,0-1.1,0.2-1.3-0.3c-0.4-0.7,0.2-1.1,0.7-1.4
			c2-1.7,6.2-1.8,8.7-0.2c4.9,3,6.9,9.5,6.1,15.2c-1,7.4-4.8,12.6-9.6,18.1c-3.6,4.1-7.6,6.7-12.5,8.5c-5.1,2-9.9,4.3-14.1,7.9
			c-2.5,2.2-4,4.8-4.7,8.4c-2,10.2-6.1,19.3-17.8,21.9c-0.9,0.2-1.8,0.8-2.6,1.4c-1.7,1.3-3.6,1.9-5.8,2c-3.4,0.1-6.1,1.7-8.4,4.3
			c-5.3,6.2-11.4,11.2-19.6,13.1c-10.3,2.5-19.3-0.5-27.6-6.6c-4.5-3.4-8.5-7.4-13.3-10.5c-4-2.6-7.6-3.3-11.9-1.3l0,0
			c0.8-2.2,2.8-2.7,4.7-2.9c4-0.5,7.5,0.6,10.6,3.2c5.7,4.7,11.6,9.3,18.8,11.4c4.1,1.2,8.4,1.2,12.5-0.1c0.9-0.3,2.1-0.7,1.9-1.9
			c-0.2-1.2-1.5-0.9-2.3-0.8c-3.5,0.2-7,0.4-10.5,0.1c-4.2-0.4-7.9-2.2-11.4-4.6c-5.1-3.4-10-7.2-15.9-9.1c-3.6-1.2-7.3-1.8-11-0.7
			c-4,1.2-6.5,4.4-6.5,8.2c0,1.5,0.3,3.1,1.7,3.9c1.5,0.9,2.9,0.1,4.2-0.7c0.3-0.2,0.5-0.3,1-0.3c-0.4,1.6-1.7,2.5-3.2,2.8
			c-2.1,0.4-4,0.1-5.1-2.1c-1.1-2.1-1.2-4.3-0.8-6.6c0.2-0.9,0.5-1.8,0.1-2.9c-2.2,2.8-2.7,5.9-1.3,8.7c4.9,10.1,1.5,18.8-4,27.3
			c-0.4,1.1-0.9,2.1-2,3.1C163.1,398.7,163.4,397.4,164.5,397z"/>
		<path d="M105.4,101.2c10.3,0,20.2,0,30.5,0c-4.7,9.8-9.3,19.4-14,29.3C116.3,120.6,111,111.1,105.4,101.2z"/>
		<path d="M120.9,346.7c7.2,1.3,13.9,2.5,20.7,3.7c1,0.2,1.1,0.5,0.6,1.3c-2.8,4.2-5.7,8.4-8.5,12.5c-1,1.5-1.3-0.1-1.6-0.5
			c-2.8-4.1-5.5-8.3-8.2-12.5C123,349.9,122.1,348.6,120.9,346.7z"/>
		<path d="M323.8,84.5c-3.3-4.4-6.4-8.6-9.6-12.8c-0.8-1-0.7-1.4,0.6-1.8c3.5-1.1,6.9-2.3,10.3-3.6c1-0.4,1.5-0.1,1.9,0.8
			c1.1,2.2,2.3,4.4,3.5,6.6c0.5,0.8,0.5,1.4-0.2,2.2C328.2,78.6,326.1,81.4,323.8,84.5z"/>
		<path class="st1" d="M300.5,115.9c-8.1-2.9-15.5-5.6-22.8-8.2c0-0.2,0-0.3,0.1-0.5c4.9-1.2,9.7-2.5,14.6-3.7
			c0.5-0.1,1.1-0.5,1.5,0.3C296,107.6,298.1,111.4,300.5,115.9z"/>
		<path class="st2" d="M126.9,145.6c0,3.9-3,7.3-6.4,7.3c-3.5,0-6.4-3.3-6.4-7.2c0-3.8,3-7.3,6.4-7.3
			C123.8,138.4,127,141.9,126.9,145.6z"/>
		<path class="st1" d="M152.9,73c4.2,0.6,7.8,1.1,11.4,1.5c1.4,0.1,1.8,0.7,1.8,2c-0.1,3.9,0,7.8,0,12.4
			C161.5,83.4,157.3,78.4,152.9,73z"/>
		<path class="st1" d="M326.4,198.4c0,3-1.7,4.7-4.6,4.7c-3.5,0-5.9-2.5-5.9-6c0-2.6,2-5.2,4.2-5
			C323.2,192.3,326.6,194.2,326.4,198.4z"/>
		<path class="st1" d="M64.8,321.6c0,2.9-1.8,4.8-4.5,4.8c-3.4,0-5.8-2.5-5.9-6c0-2.5,2-5.1,4.1-5.1
			C61.8,315.2,64.8,318.2,64.8,321.6z"/>
		<path class="st1" d="M24.6,198.5c0,3.2-1.6,4.8-4.7,4.8c-3.4,0-5.7-2.4-5.7-5.9c0-2.4,2.1-5.2,4.1-5.2
			C21.5,192.1,24.6,195.1,24.6,198.5z"/>
		<path class="st3" d="M301.4,351.5c-5-0.1-7.7-2.6-7.6-7.2c0.1-3.9,3-6.7,6.8-6.7c4.7,0.1,8.1,3.2,8,7.4
			C308.6,348.9,305.7,351.5,301.4,351.5z"/>
		<path class="st1" d="M137.7,77.7c1.8-5,3.4-9.5,5.2-14.4c2.8,2.6,5.3,4.9,8.1,7.5C146.7,73,142.5,75.2,137.7,77.7z"/>
		<path class="st4" d="M327,243.7c0,4.4-2.5,7.2-6.4,7.2c-4.5,0-7.6-3.3-7.6-8.1c0-4.2,2.6-6.9,6.5-6.9
			C324.6,236,327,238.5,327,243.7z"/>
		<path class="st3" d="M8.3,221.2c-0.1-3.7,3.1-6.8,7.2-7c3.6-0.2,6.8,3.4,6.9,7.7c0.1,3.2-3.4,6.1-7.5,6.2
			C11.5,228.2,8.4,225.1,8.3,221.2z"/>
		<path class="st2" d="M114.9,373.9c-2.9,0-5-2.3-4.9-5.2c0.1-2.3,1.9-4.3,3.7-4.2c2.9,0.2,5.2,2.6,5.2,5.4
			C118.9,372.4,117.4,373.9,114.9,373.9z"/>
		<path class="st1" d="M251.7,115.3c-2,0-3.7-1.8-3.7-4.1c-0.1-2.6,2.4-5,5.1-5c2.1,0,3.7,1.7,3.7,4.1
			C257,112.8,254.5,115.2,251.7,115.3z"/>
		<path class="st3" d="M151.1,88.9c0-0.4,0-0.5,0.1-0.5c1.5-1.8,2.7-4.7,4.5-5c1.6-0.3,2.9,2.9,4.4,4.5c0.9,0.9,1.6,1.9,2.9,3.4
			C158.7,90.4,154.9,89.7,151.1,88.9z"/>
		<path class="st3" d="M148.7,75c1.9,1.9,3.5,3.6,5.2,5.2c0.7,0.7,0.5,1-0.1,1.6c-1.6,1.6-3.2,3.3-5.2,5.4
			C148.7,82.9,148.7,79.1,148.7,75z"/>
		<path class="st4" d="M333.4,203c1.8-2.7,3.5-5.2,5.5-8.2c0.7,3.2,1.4,6,2.1,8.8c0.2,0.7-0.2,0.9-0.8,0.8
			C338,204,335.8,203.6,333.4,203z"/>
		<path class="st5" d="M295.6,249c0,2.6-1.4,4.1-3.9,4c-2.5,0-4.2-1.8-4.2-4.3c0-2.4,1.6-4,4.1-4C294.4,244.8,295.6,246.1,295.6,249
			z"/>
		<path class="st6" d="M336.4,63.3c-1.9,3.2-3.6,5.8-5.3,8.6c-1.3-1.6-1.6-3.5-2.5-5.1c-0.3-0.6-0.1-0.9,0.5-1.1
			C331.4,64.9,333.6,64.2,336.4,63.3z"/>
		<path class="st7" d="M164.5,397c-0.9,1.5-1.7,3.1-3.7,4.4c0.7-2.3,1.9-3.6,3.1-4.9C164.2,396.6,164.3,396.8,164.5,397z"/>
		<path class="st8" d="M243,217.1c-0.2-0.2-0.4-0.4-0.7-0.7c1-0.8,1.9-1.7,3.2-2.8C245.2,215.6,244,216.3,243,217.1z"/>
		<path class="st9" d="M180.5,363.4c-0.2,0.9-0.8,1.3-1.8,1.6C179,364,179.5,363.4,180.5,363.4C180.5,363.5,180.5,363.4,180.5,363.4
			z"/>
		<path class="st10" d="M281.9,149.1c-0.5-0.4-0.5-1-0.3-1.6c0.7,0.1,0.7,0.7,0.8,1.1C282.3,148.9,282.1,149,281.9,149.1z"/>
		<path class="st11" d="M251.4,181.1c-0.3-0.2-0.5-0.3-0.8-0.5c-0.1-0.4-0.4-1.1,0.2-1.1C251.3,179.6,251.6,180.4,251.4,181.1z"/>
		<path class="st12" d="M281.9,149.1c0.2-0.1,0.3-0.3,0.5-0.4c0.2,0.5,0.4,0.9,0.5,1.4c-0.2,0.2-0.3,0.4-0.5,0.6
			C281.8,150.2,282,149.6,281.9,149.1z"/>
		<path class="st0" d="M158.1,190c-0.2-1.5-0.4-3-0.7-4.5c-0.4-0.5-0.4-1-0.4-1.6c0.2-2.1-0.3-4.1-0.2-6.2c0.1-1.3,0.8-2.4,0.5-3.4
			c0.1,0.9-0.4,2.1-0.6,3.3c0,1,0,2,0.2,3c0.4,3-0.6,5.9,0,8.9c0,12,5.2,21.9,12.5,31.1c6.9,8.7,15.3,15.4,24.8,21
			c9.1,5.4,18.3,10.6,26.8,16.8c3,2.2,6,4.5,8.2,7.8c-2.8,1.2-5.2,2.8-5.6,6.1c-0.2,1.5-1.3,0.7-1.9,0.6c-2.6-0.5-5.1-0.6-7.5,1
			c-0.9-6.4,1.7-8.4,8.7-7c-0.6-2.2-2.6-3.3-5.3-3.1c-4.4,0.5-7.4,5.1-6.2,9.9c0.3,1.4,0,2.2-0.9,3.2c-2.2,2.5-3.7,5.4-2.7,9
			c-2.8,0.2-5.5,0.3-7.7,2.4c-0.8,0.8-1.3,0.1-1.7-0.5c-1.7-2.6-1.7-5.4,0.3-7.9c2.1-2.7,3.8-3.1,7.8-1.5c-0.4-2.2-2-3-3.7-2.9
			c-1.9,0.1-2.2-0.9-2.4-2.3c-0.4-2.2-0.3-4.4,1.6-5.9c2.1-1.7,5.1-1.8,8.2-0.4c-0.7-2.1-1.5-2.7-3.8-2.9c-2.9-0.3-5.5,0.2-7.1,3
			c-1.3,2.3-1.4,4.8-0.7,7.3c0.3,1.2,0.3,1.8-0.6,2.8c-3.5,3.9-3.8,7.7-1.1,12.3c0.4,0.7,1.4,1.4,0.3,2.6c-1.8-2.1-4.2-3.2-6.6-4.4
			c-2.8-1.4-4.4-3.6-5.2-6.6c-0.5-2.3-0.9-4.6-2-6.7c-0.6-1.1-1.1-2.4-2.7-2.2c-0.8,0.1-0.7-0.4-0.8-0.9
			c-1.2-5.4-9.1-11.4-14.7-11.1c-1.7,0.1-3.3,0.6-3.3,2.6c0.1,2,1.8,2.1,3.3,2.2c1.2,0.1,2.4-0.3,3.7,0.1c1.6,0.5,2.5,1.4,1.9,3.1
			c-0.6,1.6-1.9,2.5-3.5,1.7c-3.9-1.9-7.4-4.3-7.6-9.3c-0.1-2.8-1.2-5-3.4-6.6c-7.7-5.9-10.2-14.2-10.8-23.4c-0.2-2.7-0.1-5.3-0.3-8
			c-0.1-1.9-0.8-3.7-2.4-4.8c-4.7-3.2-6.7-7.8-7-13.4c-0.2-4.4-1.4-8.6,0.4-13c1-2.4,0.6-4.9-1.6-6.8c-1-0.9-0.9-2-0.5-3.2
			c0.7-1.9,1.9-3.5,3.1-5.1c1-1.4,2.3-2.7-0.2-3.9c-0.2-0.1-0.2-0.8-0.2-1.2c-0.1-0.1-0.2-0.2-0.1-0.3c0-0.1,0.1-0.2,0.1-0.2
			c0.8,0.3,1.2-0.4,1.6-0.8c1.6-1.5,3.3-3,5.2-4.3c0.8-0.6,1.5-1.3,2.1-2.1c0.7-0.8,1-1.9,0.5-2.8c-0.5-1.1-1.7-0.2-2.9-0.7
			c1.8-3.1,4.3-5.1,8.1-6.2c-2.7,6.8-5.9,13.2-6.7,20.3c-0.5,1,0.3,2.1-0.1,2.8c0.1-0.2,0.2-0.8,0.6-1.2c1.6-5.7,3.4-11.4,5.7-16.9
			c1.5-3.6,3.3-7,5.7-10.1c0.3-0.4,1.1-1.2-0.4-1c-0.4,0.1-0.6,0-0.5-0.5c0.6-0.8,1.3-1.6,1-2.6c-0.6-2.3,0.6-3.9,2-5.4
			c0.5-0.8-0.1-0.7-0.6-0.6c-3.1,0.7-5,2.9-6.2,5.7c-0.5,1.1-1,2.1-2.2,2.6c-1.4,0.7-2.9,1.2-3,3.2c0,0.7-0.9,1-1.5,1.2
			c-3.9,1.2-5.7,4.2-6.6,7.8c-0.6,2.6-1.8,4.5-3.9,6.1c-1.2,0.9-2.2,2.1-3.1,3.2c-1.8,2.2-2.2,4.6-0.8,7.2c0.8,1.5,0.9,2.7-1.2,3.1
			c-1.4,0.3-1.8,1.4-1.5,2.7c0.2,1.2,0.7,2.4,0.9,3.6c0.2,0.9,0.6,2-0.4,2.5c-3.3,1.5-3.3,4.5-3.5,7.4c-0.1,1.1-0.4,1.7-1.3,2.4
			c-3.4,2.6-3.5,5.2-0.5,8.1c0.7,0.6,1.7,1.3,1.3,2.2c-0.5,1.2-1.6,0.3-2.4,0.2c-1.5-0.2-2.1,0.7-2.2,2c-0.2,2.6,0.5,4.9,1.8,7.2
			c1.5,2.8,3.2,5.4,4.3,8.4c0.5,1.4,1.2,2.9-0.1,4.2c-0.9,0.8-2.2,0.9-3.3,0.2c-1.5-1-2.5-2.5-2.1-4.5c0.2-1,0.7-1.9,0.6-2.9
			c-0.1-1-0.3-1.8-1.2-2.3c-1-0.5-1.8,0-2.5,0.6c-2.5,1.9-3.6,5.3-2.6,8.8c1.5,5.4,5.2,8.8,10.1,11c1,0.4,2,0.9,3,1.3
			c2.2,1,3.3,2.7,3.2,5.1c-0.2,2.1,0.3,4,2,5.7c-3.1,0.3-2.9,2.2-2.2,4.2c1.3,3.7,3.2,7.1,5.4,10.3c1.1,1.6,2.7,2.4,4.7,2.3
			c1.7-0.1,3.3-0.4,5-0.5c1.5-0.1,3.1-0.8,2.9,2.2c-0.2,2.7,3.9,4.1,6.4,2.4c0.5-0.4,1-0.9,1.5-1.4c0.4,0.9,0.7,1.8,1.1,2.6
			c1.5,3.7,4.4,5.6,8.3,5.6c2.4,0,3.7,0.8,4.6,2.9c1.2,2.9,2.6,3.5,5.7,3.1c1.2-0.2,2.5-0.4,3.7-0.5c2.7-0.3,3.9,0.1,6.4,2.5
			c-4,2.2-3.1,6.4-4,9.8c-0.4,1.5-0.8,2.8-1.7,4.1c-1.9,3.1-2.7,6.4-1.5,10c0.2,0.7,0.2,1.3,0,1.9c-0.8,2.2-1.2,4.3-0.2,6.9
			c-1.5-0.7-2.6-1.3-4.1-2c1.2,2.9,4.6,3.2,5.4,6c-1.5,0.2-2.2-1.1-3.4-1.1c-5.1-2-9.8-4.8-14.5-7.6c-0.2-0.1-0.3-0.3-0.6-0.2
			c0.1,0.1,0.3,0.1,0.4,0.2c4,2.5,8.1,4.7,12.4,6.8c0.7,0.3,1.4,0.6,1.7,1.4c1.4,1.2,3.4,1.7,4,4c-2.7,0-4.9-1.6-8-2
			c2.9,1.9,5.4,3.4,7.7,5.1c1,0.7,2.6,1.7,1.5,3.1c-1,1.2-2.5,0.3-3.5-0.6c-5.6-4.8-11.9-8.5-18.4-11.8c-4.4-2.2-8.1-5.2-11.2-9
			c-0.9-1.1-1.7-2.4-3.2-2.9c2.9,4.8,5.8,9.6,11,12.4c4,2.1,8,4,12,6.1c3.3,1.8,6.5,3.7,9.1,6.5c1.2,1.2,2.6,2,4.3,2.5
			c2.6,0.8,2.9,1.2,4.1,4c-3.3-0.9-6.3-2.2-9.3-3.7c-4.8-2.4-9.6-4.9-14.6-7c-7.6-3.2-14.2-8-20-13.8c-9.2-9.2-17.6-19.1-23.4-30.9
			c-1.7-3.4-1.7-6.5,0.9-9.6c3.6-4.3,3.7-9.5,2.2-14.7c-1.4-4.9-3.6-9.3-8-12.3c-0.7-0.5-0.5-0.8-0.4-1.4c0.7-4.5-0.1-6.4-4.2-8.6
			c-2.7-1.4-4.3-3.2-4-6.4c0.1-1.3-0.1-2.7-0.1-4c0-2.9,0.5-5.6,3.3-7.3c1-0.6,1.8-1.7,2.6-2.6c3.3-4,3.2-7.7-0.2-11.6
			c-5.1-5.9-3.5-11.1,4.3-12.7c4-0.8,7.3-5.9,6-10.4c-0.5-1.7-1.5-3.1-2.4-4.6c-1.4-2.3-0.7-3.5,1.8-3.5c1.3,0,3,0.7,3.3-1.1
			c0.3-1.7-1-2.9-2.4-3.8c-0.6-0.4-1.3-0.4-2.5-0.8c11.6-16.6,23.4-32.7,40-45.6c0,2.2-0.1,3.7,0,5.3c0.2,3.8,1.6,6.9,5,9
			c1.8,1.1,3.5,2.2,5.3,3.3c3,1.8,3.2,2.8,1,5.6c-2.6,3.5-4.9,7.1-6.8,11c-3.8,7.3-4.5,15.2-5,23.2c0,0.6-0.1,1.2-0.1,1.7
			c-0.3,1.5,0,3.1-0.2,4.7C158.7,189.2,159.1,189.9,158.1,190z"/>
		<path class="st0" d="M214.5,76.6c1.4,1.1,1.3,2.4,0.4,3.7c-0.6,1-1.3,1.9-1.9,2.9c-0.6,0.9-0.6,1.9,0.3,2.7
			c0.9,0.9,1.9,0.9,2.9,0.3c0.1-0.1,0.3-0.2,0.4-0.3c4.6-3.2,5.6-13.3,1.8-17.3c-0.7-0.7-1.4-1.4-2.1-2.1c-1.5-1.4-2-3-1.3-4.9
			c0.2-0.4,0.2-0.8,0.3-1.2c0.7-2.1,0.4-4-1.8-5.1c-1.9-1-4-0.3-5.5,1.6c-0.4,0.5-0.3,2-1.5,1.4c-1.2-0.6-1-1.8-0.5-2.9
			c3.2-7.7,12.2-8.3,15.9-3.2c2.6,3.7,6.2,6.1,11.2,4.3c2.4-0.8,3.8-2.4,3.9-4.9c0-2.6-0.1-5.2-3-6.6c-1-0.5-2.1-0.9-3.1-1.5
			c-2.8-1.6-3.4-3-2.8-6.1c0.4-1.7,0.2-3.1-1.2-4.5c-2-2.1-1.6-6.9,0.6-10c0.6,1.3-0.1,2.8,0.4,4.1c0.6,4.5,1.9,8.8,4.6,12.5
			c3.1,4.3,7.3,6.5,12.5,6.5c6.5-0.1,12.5-1.5,17.3-6.4c0.6-0.6,1.1-1.2,1.6-1.9c0.4-0.5,0.7-1.1,1.1-2c-1,0-1.3,0.7-1.7,1.1
			c-3.6,3.3-7.8,5.6-12.6,6.8c-4.1,1-7.9,0-11.2-2.6c0-0.9,0.5-0.7,1.1-0.5c11.3,2.9,19.3-2.5,26.6-10.3c-1.3-0.6-1.9,0.4-2.6,0.9
			c-5.3,3.5-10.6,6.9-16.9,8.2c-4.4,0.9-8.5,0.2-12.1-2.8c0.1-0.7,0.6-0.6,0.8-0.5c4.9,1.9,9.4,0.5,14-1.3
			c10.5-3.9,18.6-10.4,23.2-20.9c0.9-2,2.1-3.8,4.3-4.7c2.6-1,4.5,0,4.8,2.5c-2.6-1.1-4.4-0.5-5.8,2.1c-2.2,3.9-1.8,9.8,1.1,12.9
			c3.3,3.6,7.5,4,12,2.7c4.9-1.4,7.8-5,8-9.6c0.1-2.8,0-5.7,0.2-8.6c0.9,3.1,3,5.4,4.7,7.9c2.6,3.7,2.9,7.7,1,11.8
			c-0.7,1.4-1.5,2.8-2.5,4c-5.3,6.9-7.8,14.7-8.5,23.3c-0.7,8.1-5.3,14.2-11.3,19.3c-5,4.2-11,6.7-16.8,9.6
			c-7.7,3.8-15.5,7.6-23,11.9c-3.3,1.9-6.3,4.3-9.4,6.6c-1.9,1.4-3.2,1.5-4.7-0.8c-2.1-3.2-6.3-3.2-8.6-0.1c-1,1.4-1.9,1.6-3.2,0.4
			c-1-1-2.2-1.6-4.2-1.7c6.4-3.2,12.3-6,18-9.3c9.9-5.7,19.8-11.5,28.2-19.5c7.2-6.8,12.7-14.5,14.8-24.3c0.3-1.5,0.8-2.9,1.2-4.3
			c1.7-6.9,5.9-11.4,12.7-13.4c0.3-0.1,0.6-0.2,1-0.5c-7-1-14.5,4.3-15.8,11.9c-2.5,14.3-10.9,25-21.3,33.9
			c-12,10.3-25.9,17.6-40.6,23.4c-0.2-0.1-0.2-0.2-0.2-0.3c0-0.1,0.1-0.2,0.1-0.2c3.9-4.6,3.8-7.2-0.5-11.2c-0.8-0.7-0.7-1.1-0.4-2
			c0.7-2.7,1.8-5.1,4-6.9c1.1-0.9,1.4-2.2,0.9-3.6C213.8,76.6,213.9,76.4,214.5,76.6z"/>
		<path class="st0" d="M265.1,304c-0.9-0.3-1.4-1.5-2.9-0.9c2,2.1,2.1,4.6,2.1,7.2c-0.1,7.3,3.2,12.7,9.9,16c2.5,1.2,2.8,1,2.8-1.7
			c0-0.5-0.3-1.1,0.4-1.3c0.5-0.2,1.1,0.2,1.3,0.6c2.2,4.3,5.7,8,6.8,12.9c0.5,2.5-0.4,4.5-2.6,6c-5.7,3.6-10.7,7.8-14.3,13.7
			c-1.4,2.2-3.6,3.6-6,4.7c-1.3,0.6-2.5,0.6-3.8,0c-2.1-1-4.4-1.6-6.7-1.7c-1.1-0.1-2.1,0.1-3.1,0.5c-10.7,4.1-21.2,3.4-30.7-2.7
			c-5.2-3.4-8.5-8.9-8.1-15.7c0.2-3.1-0.7-5.5-2.9-7.8c-3.7-3.9-3.6-5.2-0.8-9.8c2-3.3,1.3-7-2-9.5c-0.7-0.5-1.6-0.9-2.3-1.4
			c-0.7-0.5-1.2-1.3-0.8-2.2c0.4-0.9,1.2-1.2,2.1-0.8c2.2,1,4.1,0.1,5.9-0.8c4.5-2.1,9.1-3.9,13.9-5.4c6.8-2.1,13-0.5,18.7,3.4
			c1.8,1.2,3.5,2.6,5.4,3.7c-1.6-2.5-3.7-4.4-6-6.1c-5.5-3.8-7.1-9.2-6.7-15.4c0.3-3.3,0.7-6.6,1.9-9.8c1.5-3.8,4.5-4.3,6.7-0.9
			c3.4,5.2,8,9.3,12.6,13.5c3.9,3.5,7.1,7.4,9.5,12L265.1,304z"/>
		<path class="st0" d="M195.8,160.9c-2.6,5.2-4.6,10.1-4.3,15.6c0.2,2.5,1,5,1.3,7.6c0.4,3.3-1.5,5.2-4.3,4.3
			c-1.2-0.4-2.1-1-2.3-2.3c-0.2-1.4,0.5-2.4,1.6-3.1c0.8-0.5,1.9-0.9,2.3-1.8c0.6-1.4,0.2-2.7-1.1-3.4c-3.7-2-8.5,0.2-9.5,4.3
			c-1.8,6.9,0.3,11.9,6.6,15.9c4.7,3,6.4,7.5,4.6,12.8c-1.2,3.6-2.7,6.9-7.3,7c-1.4,0-1.7,1.4-1.9,2.5c-0.3,1.6-0.5,3.3-1.1,4.9
			c-0.8,2.6-2.1,2.7-4,0.8c-9.4-9.5-13.8-21.4-15.5-34.3c-1.8-13.5,1.4-26,8.6-37.6c1.1-1.8,2.6-3.4,4.3-4.8c1-0.8,1.7-1.1,2,0.5
			c0.7,3,2.9,4.1,5.6,4.4c2.7,0.3,5.5,0.5,8.2,0.8c1.7,0.2,2.7,1.3,2.4,2.9C191.8,160.5,193,161.3,195.8,160.9z"/>
		<path class="st0" d="M154,112c0-0.1-0.1-0.2-0.1-0.2c-0.1-5.3-0.1-5.3,5-6c4-0.5,6.4-2.8,8.1-6.2c1.4-2.7,2.5-5.6,4.3-8.2
			c3.2-4.5,5.9-5.6,11.5-4.3c-0.8,1.1-1.5,2.1-2.3,3.2c1.4,0.6,1.8-0.6,2.5-1.2c4-3.3,8.2-5.4,13.5-3.2c1.2,0.5,2.5,0.9,2.6,2.4
			c0.2,1.6-1.3,1.7-2.2,2.3c-5,2.9-7.9,7.4-8.8,13c-0.3,1.8-1.5,3.1-2,4.6c-1.6,5.2-2,10.5-0.2,15.7c1.9,5.5,5.5,9.8,10.1,13.3
			c1.2,0.9,2.6,1.5,4.1,1.7c3.5,0.5,5.1,3,4.1,6.4c-0.6,1.8-1.3,3.6-2.4,5.2c-1.5,2.3-3.6,2.6-5.3,0.5c-2.9-3.7-6.6-4.4-10.9-3.5
			c-3.6,0.7-5.6-0.7-6-4.3c-0.4-2.9-1.8-4.7-4.6-5.6c-1-0.3-2-0.8-3-1.3c-4.9-2.5-6.1-4.7-5.2-10.2c0.5-3.3,0.9-6.6,0.2-9.9
			c-0.4-1.7,0.2-3.2,1.6-4.2c2.5-1.6,3.3-4,3.8-6.7c0.4-2,0.9-4.1,1.3-6.1c0.4-2.1,1.5-3.8,3-6c-4.1,1.3-6.6,3.8-7.1,7.3
			c-0.7,5-3.2,8.4-7.2,11.1c-0.5,0.1-0.7,0-0.5-0.5c0.3-0.6,0.6-1.2,1-2.2c-2.4,1-4.2,3-6.6,2.5C155.4,111.1,154.7,111.6,154,112
			L154,112z"/>
		<path class="st0" d="M54.6,236.1c1.7-13.4-1.1-25.6-7.7-36.6c-4.5-7.6-8-15.6-10.7-24c-3.1-9.8-2.3-19.3,1.8-28.7
			c0.3-0.6,0.7-1.1,1-1.7c0.2-0.4,0.6-0.6,1-0.5c0.5,0.1,0.5,0.6,0.4,1c-0.5,12.2,6.1,21,13.5,29.6c4.8,5.6,10.1,10.8,13.2,17.7
			c3.2,7.1,4.9,14.3,3.1,22C68.2,224.1,61.8,230.2,54.6,236.1z"/>
		<path class="st0" d="M132.9,184c0.4,0.7,0.6,1.6,1.1,2.2c2.2,2.9,1.9,5.8-0.3,8.5c-0.9,1.2-1,2.2-0.5,3.4
			c1.3,3.3,1.7,6.8,1.7,10.3c0,4.3,1.7,7.7,5,10.1c3.3,2.4,4.4,5.7,3.9,9.4c-1.7,11.9,2.7,20.9,12.2,27.8c1.8,1.3,1.9,3.4,2.3,5.3
			c0.3,1.4,0.4,2.9,0.7,4.6c-2.9-0.8-5.4-0.2-8,0.2c-3.1,0.4-6.2,1.5-9.4,1.4c-1.1,0-2.1-0.7-2.7-1.6c-1-1.4-1.9-2.8-2.9-4.5
			c1.4,0.1,1.9,1.1,2.8,1.5c1.9,0.9,3.6,0.8,5-0.7c1.5-1.6,0.6-3.1-0.3-4.5c-1.2-1.8-3-2.9-4.8-3.9c-3.4-1.9-5.7-4.2-4.8-8.5
			c0.4-1.9-1.1-3.1-2.6-3.9c-2.3-1.4-4.7-2.5-6.9-3.9c-4.8-3-7.1-7.3-6.9-12.9c0-0.5,0-1,0.2-1.5c0.3-0.8,0.6-1.9,1.8-1.4
			c1,0.4,0.7,1.4,0.4,2.2c-0.1,0.4-0.5,0.7-0.6,1.1c-0.8,2-0.6,4,0.9,5.5c1.7,1.7,4,2.1,6.3,1.2c2.1-0.8,2.3-2.7,2.3-4.5
			c-0.1-3.4-1.7-6.2-3.4-9c-1-1.6-2.2-3.2-2.4-5.1c-0.1-1.7-0.1-3.4,2.5-3.3c2.1,0.1,1.8-1.6,1.7-2.8c-0.1-1.3-1.1-2.2-2-3.1
			c-2.5-2.3-2.5-2.9,0.7-4.9c0.7,2.7,1.4,5.4,3.3,7.9c0-0.7,0.1-1.1,0-1.4c-2.1-4.1-1-8.5-1.4-12.8c-0.2-1.8,1-3.1,2.4-4.2
			c0.8-0.7,1.8-1.2,2.2-2.3C132.6,185.4,131.6,184.3,132.9,184z"/>
		<path class="st0" d="M371.8,410.2c2.1,4.4,6,6.7,8.8,10.1c3.9,4.7,7.2,9.6,7.4,16c0.5,11.7-7.3,18.5-19.3,17.5
			c-9-0.8-15.6-6.2-21-13c-2.8-3.4-5.1-7.2-7.6-10.8c-7.7-11.3-18.2-16.2-31.8-13.9c-4.6,0.8-8.2-0.1-10.5-4.5
			c-0.5-1-1.4-1.9-2.2-2.7c-1-1.1-3.2-2.7-3-3c1.4-2.2,1.5-4.9,3-7.1c1.9-2.8,5.4-4.1,9.1-2.4c5.9,2.7,12,2.6,18.1,2.2
			c11.3-0.9,21,2.4,29.4,9.8c4.1,3.6,6.2,8.4,7.6,13.5c1.2,4.2,2,8.4,3.1,12.6c0.3,1.2,1,2.3,1.2,3.5c0.1,0.8,2.5,1.7,0,2.5
			c0.1,0.4,0.2,0.8,0.4,1.1c2.6,3.3,5.8,5.7,10.1,6.2c2.6,0.3,4.5-0.9,6-2.9c4.2-5.9,3.3-13.2-2.2-17.9c-2.2-1.8-4.6-3.3-6.9-5
			c-2.6-1.9-3.1-3.6-1.9-6.5c3.3,4.3,7.7,7.2,11,11.2c4.8,5.8,4.9,13.5,0.6,19.7c-2.7,3.9-7.8,4.7-11.6,1.8
			c-1.8-1.4-3.4-2.9-5.1-4.4c-3.6-3.1-5.4-6.9-4.9-11.7c0.2-2-0.1-4-0.8-5.9c-3.9-10.2-13.6-22.6-30.3-22.9
			c-4.2-0.1-8.5,0.1-12.7,0.1c-2.2,0-4.3,0-6.5-0.4c-2.1-0.5-4.3-0.1-6.4,0.7c-1.6,0.6-2.6,1.7-2.8,3.5c-0.1,1.9,0.7,3.2,2.4,4
			c3,1.5,6.2,2,9.5,1.9c18.8-0.4,31.2,10,40.6,24.7c4.5,7,10.4,11.1,17.9,13.3c7.9,2.3,14.9-3.9,15.4-12.9c0.3-7.3-2.8-13-8.2-17.6
			c-2-1.7-4-3.5-5.4-5.8C371.6,413.3,371,412.1,371.8,410.2z"/>
		<path class="st0" d="M117.6,191.1c0.5-0.1,1.1-0.3,1.7-0.4c-1.6,2.4-2.2,2.7-7.2,3.8c-4.3,1-6.7,4.3-5.9,8.6
			c0.3,1.6,1.1,2.9,2.1,4.2c0.9,1,1.8,2,2.5,3.1c2.1,3.2,1.8,5.9-0.8,8.5c-1.4,1.4-3.1,2.5-4.6,3.8c-5.7,4.8-6.1,9-1.9,15.1
			c2.1,3.1,1.9,7,0.9,10.5c-0.4,1.5-1.9,1.9-3.4,2.2c-4.6,0.8-5.2,1.4-6.3,6.1c-1.4,6.2-5.4,9.6-11.7,9.8c-5.6,0.2-9.8-2.8-11.5-8.8
			c-2.1-7.5-2-15.1,1-23.1c0.5,3.5,1.1,6.4,2.1,9.1c1.5,4.2,4,5.9,8.4,5.2c3.9-0.6,7.6-1.7,11.2-3.4c4-1.9,4.7-3.7,3.6-8
			c-0.7-2.6-0.2-5.1,1-7.5c2.5-4.8,2.2-8-1.1-12.1c-0.7-0.8-1.4-1.7-1.9-2.6c-1.7-2.8-1.4-4.8,1-7.1c1.4-1.4,3-2.6,4-4.4
			c0.7-1.4,1-2.8,0.8-4.3c-0.4-4.6,0.2-5.5,4.5-7.5c2.3-1.1,4.6-2,6.7-3.2c3.2-1.8,4-3.6,3.2-7.2c-0.3-1.4-0.6-2.8-0.7-4.2
			c-0.1-1.6,0.5-2.9,2.1-3.6c0.7-0.3,1.6-0.6,2.1,0.1c0.6,0.9-0.5,1-0.9,1.4c-1.4,1.6-1.2,3.4-0.6,5.2c0.6,1.8,1.4,3.6,1.3,5.5
			c0,2.2-0.8,3.9-3,4.6C116.2,191.4,116.3,191.4,117.6,191.1z"/>
		<path class="st0" d="M264.1,298.4c-6.2-6.5-12.6-12.1-18.1-18.7c-1.5-1.8-1.8-4.5-4.1-5.7c-0.5-0.3-0.2-0.7-0.1-1
			c1.8-4.2,2-8.6,1.7-13c-0.1-1.5,0.6-2.2,1.9-2.4c5.2-1.1,9.7-3.8,14.4-6.2c1.3-0.6,2.5-1.3,4-1.3c2.3-0.1,4.7-0.2,6,2.1
			c1.3,2.5,1.3,5.2-0.3,7.6c-0.8,1.2-1.9,2.3-2.8,3.5c-2.6,3.2-2.2,6.3,1.1,8.8c0.4,0.3,0.8,0.7,1.2,0.8c2.9,1.1,5.1,2.7,5.1,6.3
			c0,3.9-0.7,7.4-4,10C267,291.3,265.1,294.2,264.1,298.4z"/>
		<path class="st0" d="M80.4,173.8c1.2,0,2,0,2.8,0c2.7-0.2,5.2-0.9,6.3-3.7c1.1-2.7,0.8-5.4-0.9-7.8c-0.7-1.1-1.9-2.1-3.1-1.2
			c-2.3,1.6-3.9,0.9-5.3-1c-1.4-2-1.2-4.6,0.4-6.4c0.3-0.4,0.7-0.8,1.1-1c1.3-0.8,2.7-1.5,4.4-2.4c-0.2,1.1-0.4,1.8-0.5,2.5
			c-0.6,3.6,0.5,5.3,4.1,6.1c6.9,1.6,9.2,8.6,4.7,14.1c-0.8,1-1,1.4-0.1,2.4c2.1,2.6,1.4,4.4-1.9,5.3c-1.9,0.5-3.4,1.6-3.4,3.8
			c-0.1,2.4,1.6,3.7,3.5,4.7c1.8,1,3.4,0.4,4.7-1c1.4-1.5,2.2-3.3,3.1-5.1c1.2-2.3,2.7-3.5,5.6-2.9c2.9,0.6,4.8-0.7,5.9-3.7
			c0.8-2.2,1.1-4.5,1.2-6.9c0.1-2.4,1-2.9,3.2-1.9c0.2,0.1,0.4,0.3,0.7,0.3c2.6,0.8,2.6,0.8,0.8,2.9c-0.2,0.3-0.4,0.6-0.7,0.7
			c-4.8,2.1-4.5,6.2-4.2,10.4c0.3,4.3-0.3,5-4.4,6.6c-1.3,0.5-2.6,1-3.9,1.5c-3.4,1.4-5.6,3.8-5.8,7.6c-0.2,3.6-2.1,6.2-4.6,8.5
			c-3.8,3.3-3.9,4.2-1.5,8.5c1.2,2.1,2.2,4.3,2.7,6.7c0.7,3.5-0.8,5.7-4.3,6.2c-5.8,0.9-8.4-1-9.2-6.9c-0.8-6.4,0.5-12.6,1.5-18.8
			c1.1-6.7,1.7-13.4,0.2-20.1C82.9,179,81.9,176.4,80.4,173.8z"/>
		<path class="st0" d="M51,262.1c1.4,6,3,11.9,7.8,16.2c0.8,0.7,0.6,1.7,0.9,2.5c0.7,2.2,1.2,4.5,2.9,6.2c1.7,1.1,3.8,1.3,5.5,2.4
			c2.4-0.1,4.8,0,7.2-0.2c2.9-0.3,5.3,0.6,6.9,3c1.5,2.3,3.5,3.8,6.3,3.9c1.1,0,1.3,0.7,1.4,1.6c1.1,6,3.8,8.5,9.6,9.8
			c9.2,2,18.6-1.9,22.1-10.5c0.2-0.4,0.3-1,1-1c0.6,0.1,0.7,0.6,0.9,1.1c0.6,1.7-0.2,3.1-1.2,4.3c-2.1,2.6-4.7,4.6-7.9,6.1
			c1.7,0.6,2.1,0.6,3.7-0.2c2.5-1.3,4.5-3.1,6.2-5.3c0.4-0.5,0.6-1.7,1.6-0.9c0.8,0.6,0.8,1.5,0.4,2.3c-0.5,0.8-1.1,1.5-1.8,2
			c-4.8,3.2-9.7,6.1-15.5,7.1c-0.6,0.6-1.3,0-1.8,0.2c2.6,0.6,5.2,0.7,7.8,0.3c5-0.6,9.1-3.1,13-6.1c-1.5,3.9-5.1,5-9,6.6
			c4.2,0.7,6.8-1.5,9.4-3.5c0.5-0.1,0.7,0.1,0.6,0.6c-2,3.3-5.1,5.3-8.8,5.9c-13.9,2.2-27.1,1-39.1-7.1c-6.5-4.4-13.1-8.5-18.2-14.6
			c-7.4-8.9-11.8-19-12.4-30.6C50.4,263.3,49.8,262.5,51,262.1z"/>
		<path class="st0" d="M201.7,174.4c-2.7,9.5,0.9,17.8,4,26.4c3.4,9.2,5.2,18.8,3.3,28.6c-1.3,6.5-6,9.4-12.5,8.4
			c-5.5-0.8-10.3-3.1-14.7-6.4c-0.9-0.7-1.3-1.3-0.3-2.3c1.5-1.5,1.5-3.6,1.4-5.6c-0.1-2.9,0.5-3.7,3.4-4c1.7-0.2,3.2-0.9,4.6-1.8
			c1.8-1.1,3.5-2.3,5.5-3c3-1.1,3.9-3.3,4.1-6.2c0.3-5.5-0.8-10.8-1.8-16.1c-1-5.5-1.3-10.9,1.3-16
			C200.4,175.7,200.6,174.8,201.7,174.4z"/>
		<path class="st0" d="M223.7,185.6c0.5,5.7-0.3,7.5-3.8,8.6c0.5-4.3-1-8.1-2.7-12c-2.8-6.5-3.1-13.1,0.8-19.6
			c2.2-3.6,3.8-7.5,5.8-11.3c2.4-4.4,5.8-4.8,9.1-1.1c3.2,3.6,5.2,9.8,0.9,14.7c-1.4,1.6,0,2.1,1,2.9c3.5,2.5,5.2,8.3,3.6,12.8
			c-1.3,3.9-5.7,6.6-10.1,6.3C226.7,186.8,225.2,186.2,223.7,185.6z"/>
		<path class="st0" d="M217,109.4c0.5-0.7,0.8-1.2,1.3-1.6c1.2-1.1,2.4-2.8,4.2-1.8c1.6,0.9,3.6,2,3.5,4.4c-0.1,2.4-1.4,3.9-3.7,4.5
			c-2.7,0.6-5.4,0.9-8.1,1.5c-6.2,1.4-8.6,5.2-7.4,11.4c1.4,6.7,4.3,12.1,12,13.1c1.5,0.2,1.1,1.5,1.6,2.2c2,3.2,2,3.2-1.5,5.3
			c-3.2,1.9-6.7,3.3-9.7,5.5c-6,4.3-9.3,10.1-9.8,17.4c-0.3,3.9-2.2,7.3-2.5,11.6c-1.8-10.3,0.2-20.3,6.2-31.5
			c1.2-2.2,2.4-4.4,3-6.8c0.9-3.4,0.4-6.2-2.5-8.7c-8.6-7.2-7.9-15.6-3.3-22.3c1.5-2.3,3.5-3.5,6.3-3.3c0.6,0,1.3,0.4,1.9-0.6
			C211.3,104.5,213.1,104.4,217,109.4z"/>
		<path class="st0" d="M77.6,212.6c-1.5,6.1-4.1,11.7-6.3,17.5c-2.7,6.9-4.5,13.9-3.8,21.4c0.3,3.3-0.4,6.6-1.3,9.9
			c-0.5,1.8-0.4,3.2,1.3,4.3c1.4,0.9,2.2,2.3,3,3.9c4,7.8,9.6,10.3,17.8,8.9c3.2-0.5,5.3-2.6,6.7-5.5c1-2.1,1.9-4.2,2.9-6.3
			c0.9-1.9,2.2-3,4.5-2.8c1,0.1,2.2,0,3.2-0.4c1.9-0.8,2.8-0.3,2.7,1.8c-6.2,1.4-9.1,5.5-8.1,12c0.3,2.2,0.8,4.4,1.1,6.6
			c0.7,4.4-3.9,9.6-8.4,9.7c-0.9,0-0.9-0.5-1-1.1c-0.2-1.2-0.4-2.5-0.7-3.7c-1.2-4.8-4.5-7.4-9.3-8.1c-13.6-2-21.3-10.5-22.6-24.2
			c-0.7-7.3,1.6-13.8,4.8-20c4.2-8.3,8.6-16.5,12.8-24.8C78,211.5,77.7,212.1,77.6,212.6z"/>
		<path class="st0" d="M103.7,328.5c2.7-2,5.3-1.7,8-1.3c5.5,0.7,11,0.4,15.8-2.8c2.4-1.6,4-3.9,4.6-6.8c0.1-0.7,0.4-1.4,0.8-2.1
			c1.5-2.9,3.1-3.2,5.5-1c1.3,1.2,2.5,2.7,3.7,4.1c2.7,3.2,5.2,6.5,9.1,8.8c-4.2,1.1-6.1,4.2-7.5,7.7c-0.7,1.6-1.2,3.3-2.2,4.7
			c-1.1,1.6-2.5,2.5-4.4,1.4c-1.8-1-3.5-0.8-5.2,0c-1.8,0.9-3.4,0.7-4.6-1c-0.8-1.2-1.9-1.4-3.1-0.9c-2.2,0.9-3.5,0.2-4.4-1.8
			c-0.8-2-2.3-2.7-4.4-2.3c-1.3,0.3-2.7,0.1-3.1-1.3C110.9,329.6,107.8,328.5,103.7,328.5z"/>
		<path class="st0" d="M180.5,355.1c5.5-1.5,10.5-0.1,15.5,2.2c4.6,2.1,8.7,5.2,13,7.9c5,3.1,10.2,4.3,16,2.9
			c1.4-0.4,2.8-0.8,3.8-1.8c1.6-1.7,3.3-1.5,5.3-1.3c5.3,0.4,10.7,0.3,15.6-2.3c0.6-0.3,1.4-0.8,2.1-0.1c0.7,0.7,0.6,1.6,0.2,2.3
			c-0.5,1-1.1,2.1-1.9,2.9c-9.1,10.2-20.5,14.1-33.9,11.7c-4-0.7-7.3-3.5-10.6-5.9c-0.1-0.4,0.1-0.7,0.6-0.5
			c5.8,3.3,12.1,4.5,18.7,4.1c2.7-0.2,5.2-1,6.9-3.4c1.2-1.9,0.7-3.1-1.5-3c-2.6,0.1-5.3,0.6-7.9,0.8c-6.9,0.5-12.9-1.6-18.3-5.9
			c-5.9-4.8-12.3-8.5-19.9-9.5C182.9,355.2,181.4,356.5,180.5,355.1z"/>
		<path class="st0" d="M198.8,347.9c-4.9-2.4-9.9-4.9-12-10c-1.4-3.5-3.1-7.1-3.6-11c-0.3-2.3-1-4.3-1.9-6.4c-0.7-1.7-1.2-3.5-0.1-5
			c1.3-1.6,1-3,0.4-4.7c-1.3-3.7-0.8-7,2.4-9.7c1.4-1.2,1.4-3.1,2.4-4.6c1.7-2.5,2.9-2.5,4.3,0.1c0.8,1.4,1.3,2.9,1.1,4.5
			c-0.1,1.4-0.1,2.8,0.5,4.1c0.3,0.7,0.3,1.5-0.1,2.2c-2.5,5-2.5,10.3-1.8,15.6c0.4,3.3,0.7,6.6,1.2,9.9
			C192.5,338.7,195.2,343.6,198.8,347.9z"/>
		<path class="st0" d="M209.5,290.2c0-1.7,0-3.4,0-5c0.1-6.4,6-11.5,11.9-10.3c2.9,0.6,3.7,2.6,1.8,4.9c-2,2.5-2.5,5.4-2.6,8.4
			c0,1.1-0.2,1.2-1.2,1.2c-8.2-0.4-11.6,2.9-11.7,11.2c0,1.2,0,2.5-0.2,3.7c-0.4,1.9-1.5,3.4-3.5,3.7c-2,0.3-4,0.5-4.5,3
			c-0.5,2.6,0.9,4,3.2,5.1c-1.2,1.3-2.4,2.4-4.1,1.4c-1.8-1.1-3-2.7-2.4-5c0.4-1.8,1.4-3.4,2.3-4.9c0.8-1.4,1.5-2.8,1.6-4.4
			c0-0.9,0.2-1.9-1-2.2c-0.7-0.2-1-0.8-1.2-1.5c-0.8-2.6,0.7-7.3,3-9.1C203.2,288.6,206.5,288.5,209.5,290.2z"/>
		<path class="st0" d="M79.2,218.3c0.1,0.6,0.3,1.3,0.3,1.9c0.3,8.9,7.3,10.6,13.9,9.5c0.6-0.1,1.2-0.9,1.8-0.2
			c0.5,0.5-0.2,1-0.4,1.6c-0.4,1.2-0.2,2.5,0,3.7c1.1,5.9-0.1,7.9-5.8,9.9c-2.5,0.9-5.1,1.6-7.8,1.4c-2.7-0.2-4.6-1.3-5.4-4
			c-1.7-5.4-2.8-10.8-0.1-16.2c1.2-2.4,2.1-5,3.1-7.6C78.9,218.3,79,218.3,79.2,218.3z"/>
		<path class="st0" d="M276.2,230c-0.9,5.4-4,10-8.3,13.8c-5.8,5.2-12.7,8.7-20.2,11.1c-1.5,0.5-3.1,0.7-4.4-0.6c-1-1-2.1-2-1.9-3.6
			c0.3-1.7,1.9-1.8,3.1-2c7.8-1.5,13.9-5.2,18-12.2c1.4-2.4,2.3-4.8,2.1-7.6c-0.1-1.2,0.2-1.6,1.4-1.7c2.1-0.1,4.1-0.5,6.1-1
			C275,225.3,276.4,226.5,276.2,230z"/>
		<path class="st0" d="M271.5,86.6c4.1-2.1,8.3-4.2,12-7c6.6-4.9,10.6-11.5,11.7-19.6c0.6-4.5,2.6-7.8,5.8-10.6
			c2.7-2.3,4.9-4.9,6.5-8.1c1.2-2.4,5.5-3.3,9-2c0.7,0.3,1.4,0.6,2,1c4.3,2.2,8.5,3,12.8-0.3c-0.7,2.7-1.9,3.6-4.7,3.4
			c-2.2-0.1-4.4,0-6.4,1.3c3.7-0.4,7.5,1.1,11-1.3c0.5,2.4-0.4,3.9-2.4,5.1c-3,1.8-6.2,2.3-9.6,1.2c-1.6-0.5-3.2-1-4.8-1.5
			c-6.4-1.7-12.5,1.3-15,7.5c-1.1,2.7-1.6,5.6-2,8.5c-0.6,4-2.4,7.3-5.2,10c-5.9,5.6-12.7,9.9-20.3,12.9
			C271.6,87.3,271.5,87.1,271.5,86.6z"/>
		<path class="st0" d="M237,403.9c-7.8,5.7-14.9,5-21.4-2c-3.9-4.2-8.2-8-12.8-11.4c-9.2-6.8-20.9-4.8-28,1.5
			c-4.5,3.9-8.7,8.2-12.3,13c-0.9,1.1-1.7,3.4-3.4,2.5c-1.6-0.9-0.4-2.8,0-4.3c0.1-0.2,0-0.5,0-0.7c0,0-0.1,0.1-0.1,0.1
			c1.8,1.3,3,0.5,4.1-1c2.3-2.9,4.6-5.9,7.1-8.7c8.3-9.7,19.5-12,31-6.6c4.5,2.1,8.3,5.2,12.2,8.2c5.2,3.9,10.5,7.5,17.1,8.7
			c1.7,0.3,3.3,0.2,5,0.3C236,403.3,236.8,402.7,237,403.9z"/>
		<path class="st0" d="M69.3,258.7c0.1,0.2,0.3,0.4,0.3,0.6c4.2,9.5,11.1,10.4,19.6,7.9c4.7-1.4,6.7-5.5,7.7-10
			c0.7-3.1,2.7-4.6,5.5-5.4c1.4-0.4,2.4,0.1,3.1,1.4c1.3,2.3,1.2,5,1.9,7.4c0.2,0.8-0.3,1-0.9,1.1c-1,0.1-2,0.3-3,0.3
			c-4.9,0.1-6.9,1.3-8.5,6.1c-1.3,3.9-3.7,6.6-7.7,7.8c-4.3,1.4-8,0.4-11.2-2.8c-1.5-1.5-2.7-3.3-3.7-5.3c-0.7-1.5-1.6-2.9-3.3-3.4
			c-1.1-0.4-1.4-1.2-0.9-2.4C68.7,260.9,68.9,259.8,69.3,258.7z"/>
		<path class="st0" d="M261.6,182.1c-1,6.6-5.1,11.4-9.8,15.7c-6.2,5.7-13.3,10.1-21.7,11.9c-6.1,1.3-10.7,4.6-12.4,11.2
			c-0.7,2.8-2.2,5.4-3.3,8c-0.5,0.1-0.7,0-0.5-0.5c0.3-8.5,4.5-15.1,10.2-21c2.4-2.5,5.2-4.4,8-6.3c3-1.9,5.9-3.6,9.7-3.9
			c10.1-0.8,16.3-6.6,19.2-16.1C262,181,261.7,181.6,261.6,182.1z"/>
		<path class="st0" d="M191,349c5.7-1.7,9.6,2.5,14.1,4.5c2.5,1.1,4.9,2.5,7.6,3c0.5,0.1,1,0.2,1.4,0.5c4.4,3.4,9.6,4.8,14.9,6.1
			c-3.8,3.8-9.8,4.6-15.2,2.1c-3.1-1.5-5.7-3.6-8.6-5.4c-5.9-3.6-12.1-6.1-19.1-6.8c-0.6-0.6-1.9,0.5-2.2-0.9
			c1.1-1.2,2.8-1.2,4.2-1.8c0.8-0.3,1.6-0.6,2.3-1C190.6,349.1,190.8,349.1,191,349z"/>
		<path class="st0" d="M106.2,240.4c2.1,0.5,3.6,1.1,4.8,2.3c1.4,1.4,1.4,2.8,0.6,4.5c-1.5,2.9-1.3,3.5,1.5,5.1
			c6.7,4,9.5,13.3,6.2,20.4c-0.7,1.4-1.5,2.5-3.1,2.4c-1.5-0.1-2-1.2-2.5-2.5C109.8,262.4,107.4,251.8,106.2,240.4z"/>
		<path class="st0" d="M66,227.5c-2.3,4.4-4.3,8.7-6.3,13c-4.9,11-2.3,30.4,9.8,39.4c0.1,0.1,0.2,0.2,0.4,0.5
			c-2.3,0.1-4.1-0.7-5.8-1.8c-10.7-7.5-14.5-18.7-10.6-31.1c2.2-7,5.9-13.2,10.5-18.8C64.5,228.2,64.8,227.4,66,227.5z"/>
		<path class="st0" d="M210.6,352.7c-3.1-0.1-5.4-1.4-7.2-3.3c-5.5-5.6-13.2-19-10.2-30.2c2.6,2.5,5.5,4.4,4.4,8.9
			c-0.7,3,1.2,5.7,4.2,6.8c4.4,1.5,6.1,4.7,6.7,8.9C209,346.7,209.5,349.6,210.6,352.7z"/>
		<path class="st0" d="M299.5,183.8c-2.2,2.8-4.6,3.9-6.9,5.1c-4.2,2.1-8.7,3.3-13.1,4.7c-7.2,2.2-9.5,3.6-14.5,8.8
			c-0.2-1.2,0-2.2,0.3-3.2c2-7.3,8.7-12.9,16.2-13.8c2.9-0.3,5.8-0.5,8.7-0.4C293.1,185.1,296,184.3,299.5,183.8z"/>
		<path class="st13" d="M309,317.1c3.8-3.3,8.7-5.4,11.2-10.3c-7.2,6.8-15.7,11-25.5,13c0.5-1.6,1.2-2.3,2.8-2.2
			c2.6,0.1,4.9-1,7.1-2.2c5.9-3.3,10.8-7.7,14.9-13c3-4,4.5-8.5,3.6-13.5c-0.4-2.3-1.4-4.2-3.9-5.9c3.1,0.6,4.7,2,6.1,4
			c1,1.5,1.7,3.2,1.7,4.9c0,7.7-1.8,14.7-8.1,19.8c-0.7,0.6-1.6,1.1-2,1.9c-2.1,4.4-6.1,6.2-10.2,7.8c-2,0.8-3.8,2.1-6.1,1.9
			l0.1,0.1c1-0.7,2-1.4,3-2.1c0.3-0.5,0.8-0.9,1.1-1.4c0.1-0.2,0.3-0.3,0.5-0.4c0.5-0.3,1-0.3,1.4-0.6l0.2,0
			C307.3,317.8,308.2,317.5,309,317.1z"/>
		<path class="st0" d="M242.5,247.2c-0.8-0.1-2,0.1-2.4-1.1c-0.5-1.3,0.4-2.3,1.4-2.9c1.7-1.1,3.5-1.9,5-3.3c2.6-2.5,4.7-5.1,4-9.1
			c-0.3-1.4,0.4-2.4,1.9-2.8c2.3-0.6,4.6-0.8,6.9-0.8c1.7,0,2.3,1,2.2,2.6C260.3,238.4,251,247,242.5,247.2z"/>
		<path class="st0" d="M172.2,264.1c4.8,1.5,6.8,5.7,5.6,11.9c0.4,0.1,0.6-0.1,0.8-0.4c2.9-2.8,3.3-2.7,4.5,1.1
			c0.3,0.9,0.6,1.7,0.7,2.6c0.2,1.1,0.3,2.3,0.5,3.7c-1.1,0-2.2-0.2-3.2,0c-3.9,1.2-6.6,0.5-8.3-3.6c-0.9-2-3.2-2.3-5.4-2.4
			c-4.7,0-6.3-1.6-6.8-6.5c1.6,1.4,3.1,2.8,5.3,2.9c2.1,0.1,3.9-0.5,5.5-1.9C173.6,269.8,173.9,267.3,172.2,264.1z"/>
		<path class="st13" d="M209,98.9c0.8-1.9,0.7-3.8-0.9-5.2c-1.9-1.6-4-1.5-6.1-0.6c-4.6,2-7.2,5.6-7.5,10.6c-0.2,3.2,0.6,6.3,2,9.1
			c0.7,1.4,0.8,2.5,0.2,3.8c-0.2,0.4-0.1,0.9-0.3,1.2c-0.6,0.9,0.2,2.6-1.1,2.7c-1.1,0.1-1.9-1.2-2.5-2.2
			c-6.6-9.9-2.5-26.3,10.9-28.2c2.4-0.4,4.9,0.8,6.5,3.3c1.1,1.7,1.4,3.4,0.1,5.1C210,98.8,209.8,99.1,209,98.9z"/>
		<path class="st13" d="M154,112c0,1.2,0.1,2.3,0.1,3.5c0.1,1.9-0.4,3.2-2.7,3.3c-1.6,0.1-2.6,1.3-3,2.9c-0.6,2.3-1,4.5-0.5,6.9
			c0.4,1.6,0.1,3.1-1,4.4c-4.7,5.5-9.4,11-14.6,17c1.4-4,2.1-7.4,2.3-10.9c0.1-2.2,1.5-3.6,3.6-4.2c1.8-0.5,3.7-0.9,5.3-2
			c3-2,3.5-4.4,1.5-7.4c-0.6-0.9-1.2-1.8-1.8-2.7c-1.1-1.8-1.3-3.6,0.2-5.3c1.5-1.8,3.3-2.8,5.7-2.3c3.1,0.7,3.5,0.6,4.4-2.4
			C153.6,112.5,153.6,112.1,154,112C154,112,154,112,154,112z"/>
		<path class="st13" d="M280.9,296.1c2.2-1.9,4.6-2.4,7.3-1.8c6,1.3,9.9,6.9,9.1,13.3c-0.8,6.1-2.9,11.5-8.4,15.2
			c-2.2,1.5-3.7,3.5-4.2,6.3c-3.5-3-3.7-5.1-0.7-8.2c1.6-1.7,3.4-3.1,5.2-4.7c4.6-4.3,5.7-10.2,3-15.9c-2.1-4.3-5-5.6-9.6-4.2
			C282.1,296.1,281.7,296.6,280.9,296.1z"/>
		<path class="st13" d="M194.9,185.5c0.5,3.1,0.8,6.3,1.4,9.3c0.3,1.7,0,2.7-1.9,2.9c-4.6,0.5-8.5-0.8-11.6-4.4
			c-2.8-3.2-3.4-7-1.8-10.9c1.2-3.2,4.4-4.7,6.9-3.5c0.4,0.2,1,0.4,0.9,1c-0.1,0.5-0.4,0.8-0.9,1c-2.9,1.2-3.9,3-3.1,5.9
			c0.6,2.5,2.1,3.5,5,3.2c3.4-0.3,4.2-1.1,4.6-4.6C194.6,185.4,194.8,185.4,194.9,185.5z"/>
		<path class="st13" d="M106.3,304.4c2.1-3.6,1.3-7.4,0.5-11c-1-4.8-2.4-9.5-3.5-14.2c-0.5-2.2-0.6-4.4-0.2-6.7
			c0.3-1.5,1-2.8,2.4-3.5c2.9-1.5,5.3-0.3,5.5,3c0,0.2,0,0.5-0.1,0.6c-3.2,2.3-2.2,5.6-2.2,8.6c0.1,4.4,0.6,8.8,0.8,13.2
			c0.1,2.8-0.3,5.4-1.4,8C107.8,303.3,107.4,304.3,106.3,304.4z"/>
		<path class="st13" d="M207.7,176.8c0.3,4.5,2.5,8.4,4.1,12.5c3.1,7.9,4.3,16.2,3.2,24.7c-0.3,2.1-1.1,4-2.5,6.1
			c-0.3-3-0.6-5.6-0.9-8.2c-0.3-2.3-0.9-4.6-1.6-6.8c-0.9-2.8-2.2-5.1-0.3-8.4c1.6-2.8,0.5-6.5-0.4-9.7
			C208.3,183.8,207,180.5,207.7,176.8z"/>
		<path class="st13" d="M165.3,338.4c-1.6,0.1-2.8,0.9-4.1,1.7c-2.5,1.6-6.5,1.2-8.5-0.8c-0.6-0.6-1.1-1.4-1.1-2.2
			c-0.1-2.6,1.2-4.7,2.9-6.3c1.5-1.4,3.3-0.4,4.9,0.3c3.4,1.6,6.6,3.4,9.9,5.1c0.7,0.4,1.8,0.8,0.2,1.4
			C168.3,338.8,166.8,338.4,165.3,338.4z"/>
		<path class="st13" d="M235.1,301.6c-4.5-1.1-8.7-1.1-12.8-0.7c-1.8,0.2-2.1-0.5-2-2c0.3-5.4,5.1-9.4,10.8-9.1
			c1.1,0.1,1,0.6,1.1,1.2C232.5,294.6,233.6,298,235.1,301.6z"/>
		<path class="st13" d="M188.2,109.9c1.1,5.3,2.6,10,7,13.1c0.4,0.3,0.4,0.7,0.4,1.1c0.2,3.2,1,6.2,2.6,9.1
			C189.6,132.8,183.2,118.1,188.2,109.9z"/>
		<path class="st13" d="M209.9,100.9c0,0.1,0,0.3,0,0.4c-3.4,1.8-6.9,3.3-10.5,4.6c-2.2,0.8-3.3,0-3.5-2.4c-0.3-3.3,3.1-8.2,6.3-9.1
			c2.4-0.7,4.3,0.9,4.2,3.7C206.5,101.3,207.2,101.8,209.9,100.9z"/>
		<path class="st13" d="M117.1,288.1c-0.2,3.8-1.8,6.2-4,8.3c-1.2,1.1-1.8,0.2-1.8-0.7c0-5.6-1.1-11.1-0.6-16.6
			c0.1-0.7,0.2-1.7,1-1.8c0.7-0.1,1.1,0.6,1.5,1.1C115,281.6,116.6,284.9,117.1,288.1z"/>
		<path class="st14" d="M177.6,144.5c-3.9-3.6-9.2-4.9-13.3-8.1c-4.1-3.3-4.2-4.6-1.9-9.4c1.2-2.4,1.8-5,1.6-7.7
			c-0.3-3.9,0.7-7.2,3.6-9.8c1-0.9,1.7-2.2,2.5-3.4c0.4,0,0.7,0,0.4,0.5c-0.2,1.5-1.1,2.6-2.1,3.6c-2.4,2.4-2.9,5.2-2.2,8.3
			c0.4,1.6,0.2,3.1-0.5,4.6c-0.9,2.1-1.7,4.4-1.7,6.7c-0.2,4.8,1.9,7.1,6.7,8.4C174,139,176.7,140.8,177.6,144.5L177.6,144.5z"/>
		<path class="st13" d="M220.6,291.2c-2,2.7-2.5,5.7-2.5,8.8c0,0.7,0.2,1.6-1.1,1.4c-1.7-0.3-3,0.7-4.3,1.5c-2,1.2-3.2,0.5-3.1-1.8
			c0.2-2.9,1.1-5.7,3-8C214.7,290.6,217.3,290.1,220.6,291.2z"/>
		<path class="st14" d="M161.5,113c0.5,8.2-5.9,12.1-10.6,17.1c-1.8-3.1-1.8-6.7,0-8.6c0.8-0.8,1.7-1.3,2.8-1.5
			c2.9-0.5,3.1-0.8,2.5-3.7c-0.5-2.5,0.1-3.5,2-3.5c1,0,1.6,0.2,1.2,1.5c-0.5,1.4-0.7,2.9-0.1,4.9c0.7-2.3,1.3-4.2,1.9-6.1
			C161.2,112.8,161.3,112.8,161.5,113z"/>
		<path class="st14" d="M203.2,181.4c-0.5-3.1-0.1-6.7,2-10c0.4-0.7,0.8-1.8,1.8-1.2c1,0.5,0.4,1.5,0.1,2.2
			c-1.8,4.4-1.5,8.7,0.2,13.1c1.1,2.8,1.3,5.6,0.5,8.5c-0.2,0.8-0.6,1.7-1.6,1.7c-1,0-0.9-1-1.1-1.7
			C203.8,190,203.4,186.1,203.2,181.4z"/>
		<path class="st14" d="M193.9,314.5c1.9,5.6,6.1,6.8,10.2,3.1c1.4,2.2,1.5,3,0.5,4.9c-1.9,3.5-2.5,6.8,0.2,10.2
			c0.4,0.5,0.9,1.2,0.5,2.1c-4.6-2-6-4.3-5.7-9.1c0.1-1.2-0.4-2.1-1.1-2.9c-1.3-1.5-2.7-3-4.1-4.4c-1.2-1.2-1.8-2.6-1.4-4.3
			C193.5,313.9,193.8,314.1,193.9,314.5z"/>
		<path class="st15" d="M137,170.5c0,0.2,0,0.3,0,0.5c-1.5,1.1-2.1,2.6-1.7,4.3c0.3,1.2-0.4,1.4-1,2.3c-0.3-1.6-0.4-2.9-0.7-4.1
			c-0.5-2.5,0.1-4.7,2.3-6.1c2.7-1.8,3.8-4.4,4.6-7.4c1-3.6,2.9-6.6,6.9-7.4c1.1-0.2,1.2-0.9,1.2-1.8c0.1-1.5,0.8-2.5,2.4-2.6
			c1.2,3.5-1,4.8-3.7,6.1c-2.4,1.1-4.3,2.8-5.4,5.3c-0.9,2.2-0.6,2.7,2,2.7C142.3,165.6,138.6,167.2,137,170.5z"/>
		<path class="st15" d="M179.9,346.4c-4.2,1-8.3,2.4-12.2,4.3c-3.8,1.9-6.3,5-7.8,9.4c-0.8-1.3-0.4-2.1-0.2-2.9
			c1.6-5,4.8-8.4,9.7-10.3c4.2-1.6,8.7-2.1,12.8-4.1c1-0.5,1.9,0.4,2.5,1.1c0.6,0.8-1,0.3-0.7,1
			C182.9,346.3,181.4,346.2,179.9,346.4z"/>
		<path class="st14" d="M223.1,289.2c0-5.9,4-10,9.5-10c1.6,0,1.9,0.5,1.5,1.9c-0.5,1.6-1,3.2-1.3,4.8c-0.2,0.9-0.6,1.1-1.5,1.1
			C227.1,287.1,226.5,287.3,223.1,289.2z"/>
		<path class="st13" d="M225.4,273.8c0.1-3.7,1.9-5.5,5-5.6c0.4,0,0.8,0,1.1,0.3c1.9,2.4,2.7,5.2,2.9,8.3c0,0.7-0.4,0.8-1,0.7
			c-1.8-0.3-3.6-0.2-5.4-0.4C226.1,276.9,225.6,275,225.4,273.8z"/>
		<path class="st13" d="M242,262.1c-0.1,3.5-1.2,6.5-4.4,8.4c-1.8,1.1-3,0.4-3.2-1.7c-0.2-1.7,0.5-3.1,1.4-4.4
			c1.4-2.1,2.7-4.4,3.5-6.8c0.2-0.5,0.2-1.3,1-1.2c0.7,0.1,0.9,0.7,1,1.3C241.8,259.1,242.1,260.6,242,262.1z"/>
		<path class="st14" d="M185.2,293.6c-0.1-4,1.8-5.4,5.4-3.7c1,0.5,1.9,1,2.8,1.5c1.9,1.1,3.4,2.4,2.7,5.1c-0.5,1.9,0,3.8,1.1,5.5
			c0.6,1,0.4,1.8-0.5,2.3c-0.9,0.5-1.6-0.1-2.1-0.8c-0.8-1.2-1.1-2.6-1.3-4c-0.2-0.7-0.3-1.5-0.4-2.2
			C191.6,291.9,190.2,291.2,185.2,293.6z"/>
		<path class="st16" d="M63.1,286.4c-0.8-1.6-1.4-3.1-1.4-5.2c1.2,1.1,2.3,2.1,3.4,3c3.2,2.5,6.8,3.4,10.7,1.6
			c1.5-0.7,2.9-0.9,4.2,0.2c2.8,2.2,5.4,4.5,8,7c-2.6,0-4.8-1.1-6.3-2.9c-2.7-3-5.7-3.2-9.2-2.2c-1.1,0.3-2.3,0.5-3.4,0.7
			C65.9,289.2,64.3,288.6,63.1,286.4z"/>
		<path class="st15" d="M177.5,144.5c2,4,5.2,5.5,9.6,5.1c3.2-0.3,5.9,1.3,7.4,4.4c0.2,0.5,0,0.6-0.5,0.5c-1.7-1.1-3.7-1.3-5.7-1.5
			c-2.2-0.2-4.5-0.4-6.7-0.4C178.1,152.6,176.2,147.7,177.5,144.5C177.6,144.5,177.5,144.5,177.5,144.5z"/>
		<path class="st16" d="M191,349c0,0.2,0,0.3,0,0.5c-1-0.1-1.8,0.3-2.6,0.7c-1.4,0.5-2.7,1-4.1,1.4c-0.4,0.1-0.7,0.5-1.1,0.6
			c-0.9,0.1-1.6,0.4-2.3,0.9c-0.3,0.1-0.6,0.1-0.9-0.1c-5.7-0.3-11.7,3.9-14.1,9.9c-0.9-0.1-0.6-0.5-0.4-1c1-4.1,3.2-7.1,7.2-8.9
			c3.5-1.6,7.2-2.5,10.9-3.5c2-0.6,4-1.1,5.7-2.3c1.3-0.9,2.2-0.5,3.2,0.4C192.4,348.5,191.1,348.1,191,349z"/>
		<path class="st17" d="M369.1,443.2c3.5,0.8,6.1,0.7,8.4-1.4c2.7-2.4,3.2-5,1.4-8.2c-1.1-1.8-2.6-3.2-4.1-4.6
			c-1.2-1.1-2.4-2.2-3.3-3.7c3.4-0.3,8.5,4.9,9.4,7.9c1.1,3.7-0.1,8.8-2.8,11C375.4,446.2,372.3,446,369.1,443.2z"/>
		<path class="st16" d="M177.1,341.6c0.5-0.2,1-0.6,1.6-0.7c0.7-0.1,1.4,0.3,1.7,0.8c0.4,0.8-0.5,1.2-1.1,1.3
			c-2.2,0.5-4.4,0.9-6.6,1.4c-7.1,1.5-12.4,5.2-15.1,12.7c-0.3-1.4-0.2-2.4,0.2-3.3c2.4-5.3,5.7-9.5,12-10.4
			c0.7-0.1,1.4-0.4,2.2-0.5c0.6-0.7,1.4-0.9,2.3-1C175.2,341.6,176.2,341.6,177.1,341.6z"/>
		<path class="st14" d="M240.4,241.2c0.1-4.8,2.5-8,5.9-10.4c1.4-1,2.1-0.1,2.3,1.3c0.2,2.2-0.9,4-2.4,5.5
			C244.7,239.2,242.8,240.3,240.4,241.2z"/>
		<path class="st15" d="M275.4,319.8c-0.3,0.9,0.1,2.3-1.2,2.8c-1.4,0.5-2.5-0.4-3.3-1.2c-2-2.1-2.1-5-2.3-7.7
			c-0.1-0.7,0.3-0.8,0.9-0.7C272,313.3,275.4,317.1,275.4,319.8z"/>
		<path class="st14" d="M103.1,289.6c2.2,3.9,2.5,6,0.9,7.3c-2.3,1.9-5.5,1.5-8.9-1.3C98.2,294.1,101.2,292.7,103.1,289.6z"/>
		<path class="st18" d="M163.9,357.3c1.5-4.2,5-5.9,8.8-7.2c2.8-1,5.6-1.9,8.3-3.1c0.7-1.1,2.1-1,3-1.6c1.3,0.3,2.7-1.7,4.1,0.3
			c-3.4,1.9-7.1,3-10.7,4.4c-2.9,1.1-5.8,1.9-8.4,3.5c-2,1.2-3.6,2.9-4.9,4.8C163.8,358,163.8,357.7,163.9,357.3z"/>
		<path class="st19" d="M170.5,342.5c-7.7-0.2-11.3,5.2-14.6,11.1c-0.4-0.9-0.5-1.5-0.2-2c2.4-4.1,5.4-7.8,9.7-10.1
			c1.4-0.8,3-1,4.6-1c1.6,0,3.3,0.1,4.7-1.1c0.9-0.9,1.7,0.2,2.4,0.6c0.6,0.5-0.2,0.7-0.4,1.1c-0.6,0.7-1.5,0.9-2.3,1.1
			C173,342.5,171.7,342,170.5,342.5z"/>
		<path class="st17" d="M209.7,160.9c0.5-1,1.1-1.9,1.3-2.9c1.2-4.2,5.2-5.2,8.2-7.4c0.3-0.2,0.9-0.5,1.4-0.1
			c0.6,0.4,0.2,0.9-0.1,1.3c-2.8,3.9-6.8,6.5-10.3,9.7C210,161.3,209.9,161.1,209.7,160.9z"/>
		<path class="st17" d="M215.4,183.1c2.2,5.2,3.7,10.5,1.8,16.4c-0.9-3.7-1.8-7-3.3-10.2c-0.9-1.9,0.7-3.5,0.6-5.3
			C214.9,183.8,214.5,182.8,215.4,183.1z"/>
		<path class="st16" d="M92.6,295.4c3.1,4.4,6.3,7.4,11.3,8.4c-1.3,2-3,1.8-4.8,1.3C94.4,303.7,92.6,301.3,92.6,295.4z"/>
		<path class="st20" d="M109.1,305.6c4.8-3.5,9.5-7.1,10.6-13.6C122.9,296.5,116.8,304.4,109.1,305.6z"/>
		<path class="st16" d="M135.1,255.5c0-1.3,0.2-2.1,1.4-1.3c1.9,1.2,3.8,2.4,5.1,4.3c0.6,0.9,1,1.8,0.1,2.7c-0.9,1-1.9,0.9-2.9,0.2
			C136.6,259.8,135.4,257.8,135.1,255.5z"/>
		<path class="st18" d="M258,214.1c-2.1,4.7-11.3,10.4-15.7,10.2C247.8,221.4,252.7,218.1,258,214.1z"/>
		<path class="st16" d="M210,172.7c2.2,3.8,4,7.6,2.4,12.8C210.7,181,208.6,177.2,210,172.7z"/>
		<path class="st21" d="M305,319.7c0,0.1,0,0.2,0,0.2c-0.6,0.4-1.3,0.6-2,0.7c-4.5,1.9-9,3.6-14.2,4.4c4.9-3.6,10.6-3.9,15.6-6.1
			C305,318.9,305.3,319.1,305,319.7z"/>
		<path class="st21" d="M203.1,169.5c4.8-4.6,10.1-7.8,14.4-12.2C216.5,160.4,207.2,168.3,203.1,169.5z"/>
		<path class="st21" d="M274.2,352.2c2.9-4,5.8-6.7,10.3-8.4C282.1,347.9,278.7,350.2,274.2,352.2z"/>
		<path class="st22" d="M39.5,139c1-2.6,2.1-5.2,3.1-7.8c0.2-0.6,0.6-1.2,1-1.7c0.5-0.6,1-1.7,1.9-1.3c1.1,0.5,0.2,1.6-0.1,2.2
			c-1.7,3.1-3.1,6.4-5.3,9.2C39.6,139.6,39.3,139.5,39.5,139z"/>
		<path class="st23" d="M163.2,315.4c4.8,2.7,9.7,5.3,14.5,8c-0.2,0.2-0.4,0.4-0.7,0.6c-4.9-2.5-10.1-4.6-14.5-8
			C162.5,315.4,162.6,315.2,163.2,315.4z"/>
		<path class="st18" d="M265.1,304l0.2,0c2.6,2.5,3.5,5.5,2.1,8.9c-0.7,0.7,0.7,2.1-0.8,2.5C265.3,311.7,265.7,307.8,265.1,304z"/>
		<path class="st24" d="M86,286.5c1.4,1.9,3.3,3.6,3.6,6.2c-2.8-3.1-5.5-6.1-9.7-7.9c2.1-0.3,2.1-0.3,4,0.2
			C84.9,285.2,85.7,285.4,86,286.5z"/>
		<path class="st25" d="M170.1,338c1.1-0.3,2.3-1.1,3.5,0.5c-3.8,2-8.6,1-12,4c-0.5,0.2-0.7-0.1-0.5-0.5c1.4-1.4,3.2-2.3,5-3.1
			C167.2,337.7,168.7,338.3,170.1,338z"/>
		<path class="st26" d="M194.1,184c-0.6-4.4-2.2-8.7-0.6-13.2c1.2,4,0.9,8,1.1,12.1C194.7,183.4,195,184,194.1,184z"/>
		<path class="st21" d="M201.8,168.6c0.4-3.8,2.2-6.1,4.2-8.3c0.2-0.2,0.6-0.2,0.9-0.2c0.1,0,0.3,0.5,0.2,0.6
			C205.9,163.5,204.8,166.3,201.8,168.6z"/>
		<path class="st27" d="M194.1,154.5c0.2-0.2,0.3-0.3,0.5-0.5c1,1,1.1,2.5,1.8,3.8c0.2,0.5,1.1,1.1,0.4,1.7c-0.7,0.6-1.6,0.3-2.3,0
			c-0.8-0.4-0.9-1.1-0.4-1.9C194.3,156.6,194.8,155.6,194.1,154.5z"/>
		<path class="st28" d="M103.9,234.8c-2.3-3.6-2.3-5.1,0-8.3C103.9,229.2,103.9,231.8,103.9,234.8z"/>
		<path class="st29" d="M279.5,351c-1.8,2.4-4.2,3.9-7.2,4.6C274.3,353.4,276.9,352.2,279.5,351z"/>
		<path class="st30" d="M75.2,283.1c-3.2,1.3-5.7,0.8-8.4-0.9c1.6-0.7,2.8,0,4,0.2C72.2,282.6,73.5,282.8,75.2,283.1z"/>
		<path class="st25" d="M212.1,172.5c-0.9-3.1-1.1-6,2.1-8.8c-0.9,3-1.7,5.6-1.6,8.3C212.8,172.5,212.5,172.6,212.1,172.5z"/>
		<path class="st29" d="M100.7,299.9c1.1,0,2.2,0.1,3.2,0.1c0.6,0,1.2,0.1,1,1c-0.2,0.6-0.3,1.2-1.1,1c-1.5-0.3-2.9-0.8-4.2-1.5
			C99.6,299.4,100.2,299.8,100.7,299.9z"/>
		<path class="st24" d="M202.5,108c0.9-0.5,1.7-1.1,2.6-1.4c0.6-0.2,1.4-1.2,1.8-0.2c0.3,0.7-0.5,1.8-1.4,2
			c-0.8,0.2-1.6,0.1-2.5,0.2C202.5,108.8,202.4,108.5,202.5,108z"/>
		<path class="st31" d="M132.9,184c-0.6,0.5,0,1.5-0.8,2c0.1-1.2,0-2.3-0.6-3.3c-0.7-1.5-0.1-2.4,1.4-3.1
			C132.9,181.2,132.9,182.6,132.9,184z"/>
		<path class="st32" d="M97,227.7c0.9-2,0.3-4.2,1.1-6.1C98.8,223.8,98.9,225.9,97,227.7z"/>
		<path class="st33" d="M133.3,254.9c0.9,2.2,1.3,4.2,3,5.8C133.8,260.1,132.5,257.8,133.3,254.9z"/>
		<path class="st34" d="M170.9,263.2c-1.7-0.8-3.8,0.5-5.6-1C167.6,260.7,169.2,262,170.9,263.2z"/>
		<path class="st34" d="M271.5,86.6c0.2,0.2,0.4,0.3,0.6,0.5c-2.1,1.2-4.2,2.4-6.7,2.8c-0.1-0.1-0.2-0.2-0.1-0.3
			c0-0.1,0.1-0.1,0.1-0.1C267.3,88.2,269.4,87.5,271.5,86.6z"/>
		<path class="st33" d="M192.7,208.4c0.4-2.2,0.9-4.4,1.3-6.6c0.9,2.4,0.5,4.6-0.7,6.7C193.1,208.5,192.9,208.5,192.7,208.4z"/>
		<path class="st35" d="M63.1,286.4c1.6,1.7,3.6,2.4,5.9,2.2c-0.3,0.3-0.7,0.5-1,0.8c-2.2-0.1-4.2-0.5-5.5-2.4
			C62.7,286.8,62.9,286.6,63.1,286.4z"/>
		<path class="st36" d="M110.1,302.6c-0.1-2.4,2.1-2.4,3.2-3.4c0,0,0.4,0.3,0.5,0.5c0.3,0.4-0.2,0.6-0.4,0.7
			C112.4,301.1,111.5,302,110.1,302.6z"/>
		<path class="st37" d="M156,147c0.2,0.2,0.3,0.3,0.5,0.5c-1.1,1-1.8,3.4-4.3,1.2C153.7,148.1,154.8,147.6,156,147z"/>
		<path class="st38" d="M153,146.6c0.6-1.6,0.6-3.1,2.2-4.4C154.8,144,156.6,146.3,153,146.6z"/>
		<path class="st19" d="M158.1,190c1-1.9-0.3-4.1,0.8-6c0,3.2,0.1,6.3,0.1,9.5c-0.2,0.2-0.3,0.2-0.5-0.1
			C158.4,192.3,158.3,191.2,158.1,190z"/>
		<path class="st39" d="M157.4,184c0,0.5,0,1,0,1.5c-0.9,1.3,0,2.7-0.5,4c-0.7-3-0.4-6-0.4-9C158.2,181.4,156.7,183,157.4,184z"/>
		<path class="st31" d="M35.1,150.2c-0.5,1.8-1,3.6-1.5,5.4c-0.5-0.2-0.2-0.8-0.5-1.1c0.2-1.8,0.7-3.4,1.5-5
			C35.2,149.5,35.3,149.7,35.1,150.2z"/>
		<path class="st40" d="M115.1,313.1c-3,0.9-5.9,0.6-9.1-0.3c1.2-0.5,2.1-0.3,3.1-0.2C111,313.7,113.1,312.6,115.1,313.1z"/>
		<path class="st41" d="M33,161c0,1.4,0,2.8,0,4.1c-1-1.7-1-3.5-0.5-5.3C32.9,160.1,32.7,160.7,33,161z"/>
		<path class="st25" d="M86.2,284.4c1.6,0.7,2.7,1.8,3.4,3.8c-1.6-0.3-1.9-1.8-3-2.2c-0.5-0.2-1.1-0.4-1.2-1.2
			C85.5,284.4,85.7,284.2,86.2,284.4z"/>
		<path class="st42" d="M214.5,76.6c-0.2,0.2-0.3,0.4-0.5,0.6c-1.2-1.2-2.3,0-3.6,0.3C211.4,75.2,212.3,75,214.5,76.6z"/>
		<path class="st43" d="M184,345.3c-0.7,1.2-1.9,1.2-3,1.6c-0.3-0.2-0.7-0.3-1-0.5c1.3-0.7,2.6-1.2,4.1-1.4l0.1,0.1L184,345.3z"/>
		<path class="st44" d="M196.4,206.9c0.2-0.9,0.4-1.7,0.6-2.6c0.1-0.4,0.1-0.9,0.7-0.7c0.5,0.1,0.4,0.7,0.3,1c-0.3,1-0.7,2-1,3
			C196.4,207.6,196.2,207.4,196.4,206.9z"/>
		<path class="st45" d="M180.5,355.1c1,0.9,2.5-0.2,3.5,0.8c-1.9,0-3.8,0-5.6,0c0-0.1-0.1-0.2-0.1-0.3
			C179,355.4,179.8,355.3,180.5,355.1z"/>
		<path class="st46" d="M170.1,338c-1.3,0.8-2.8,0.4-4.1,0.8c-0.2-0.2-0.4-0.3-0.7-0.5c1.3-0.5,2.8-0.7,4.2-0.8
			C169.7,337.7,169.9,337.9,170.1,338z"/>
		<path class="st34" d="M33,161c-0.2-0.4-0.3-0.7-0.5-1.1c0-1.3-0.2-2.7,0.5-4c0.5,0.2,0.2,0.8,0.5,1.1
			C33.3,158.3,33.1,159.7,33,161z"/>
		<path class="st47" d="M69.8,284.9c1,0.7,2.1,0,3.7,0.2c-1.8,1.2-3.1,1.3-4.5,0.4C69.1,285.1,69.4,284.9,69.8,284.9z"/>
		<path class="st48" d="M290.7,327.4c0.9-1,1.9-1.6,3.3-1.5C293,326.7,292.1,327.5,290.7,327.4z"/>
		<path class="st49" d="M77.6,212.6c-0.2-0.4,0-0.9-0.5-1.1c0.1-0.8,0.3-1.5,1.3-2C78.5,210.7,78.2,211.7,77.6,212.6z"/>
		<path class="st21" d="M193.9,314.5c-0.3-0.2-0.5-0.3-0.8-0.5c-0.2-1.1,0.2-2,0.5-3c0.5-0.1,0.7,0.1,0.5,0.6
			C194,312.6,194,313.5,193.9,314.5z"/>
		<path class="st50" d="M183.1,351.9c0.3-0.1,0.7-0.3,1-0.4c0,0.1,0,0.2,0,0.2c0.2,1.2,1.4,0.6,2,1.2c-1.3,0-2.7,0.1-4,0.1
			c-0.1-0.2-0.2-0.4-0.1-0.6C182.3,352.2,182.7,352.1,183.1,351.9z"/>
		<path class="st51" d="M196.4,206.9c0.2,0.2,0.4,0.4,0.6,0.6c-0.1,0.8-0.4,1.5-1.2,2.2C195.3,208.4,196,207.7,196.4,206.9z"/>
		<path class="st52" d="M309,317.1c-0.5,0.9-1.2,1.5-2.3,1.5C306.8,317.1,307.8,317,309,317.1z"/>
		<path class="st53" d="M51,262.1c-0.6,0.5-0.2,1.3-0.5,2c-0.2-1.2-0.3-2.4-0.6-3.9C50.8,260.8,51.1,261.3,51,262.1z"/>
		<path class="st54" d="M170.5,342.5c1.3-0.6,2.7-0.4,4-0.6c0.1,0.1,0.2,0.2,0.1,0.4c0,0.1-0.1,0.2-0.1,0.2
			c-0.8,0.2-1.7,0.3-2.5,0.5C171.6,342.4,171,342.6,170.5,342.5z"/>
		<path class="st55" d="M206.1,372.9c-0.2,0.2-0.4,0.4-0.6,0.5c-0.8-0.4-1.6-0.8-2.1-1.9C204.7,371.5,205.4,372.3,206.1,372.9z"/>
		<path class="st21" d="M165.5,361.9c0.1,0.3,0.3,0.7,0.4,1c-0.2,0.9-0.4,1.9-0.6,2.8C165,364.4,164.8,363.1,165.5,361.9z"/>
		<path class="st52" d="M300.4,323c-0.4,1.5-1.6,1.4-2.9,1.2C298.5,323.8,299.5,323.4,300.4,323C300.5,323.1,300.4,323,300.4,323z"
			/>
		<path class="st56" d="M145.5,175.5c0.1,0.8-0.2,1.4-0.9,2.5c-0.1-1.7-0.2-2.9,0.4-4.1C145.3,174.4,144.8,175.1,145.5,175.5z"/>
		<path class="st57" d="M227.9,27.1c-0.8-1.3-0.4-2.7-0.4-4.1c0-0.1,0-0.2,0-0.2c0.1-0.2,0.4-0.4,0.4-0.1
			C228,24.1,227.9,25.6,227.9,27.1z"/>
		<path class="st35" d="M85.6,285c0.3,0.3,0.7,0.7,1,1c-0.2,0.2-0.4,0.4-0.6,0.5c-0.7-0.5-1.4-1-2.1-1.5c0.2-0.2,0.4-0.3,0.6-0.5
			C85.1,284.2,85.3,284.6,85.6,285z"/>
		<path class="st58" d="M265.5,89.6c0.1,0.1,0.1,0.3,0,0.4c-0.4,1-1.5,0.7-2.2,1.1C263.6,89.9,264.5,89.6,265.5,89.6z"/>
		<path class="st59" d="M215.4,183.1c-0.6,0-0.5,0.7-0.9,1c0-1,0-2,0-3c0.1,0,0.2,0,0.2-0.1C215,181.7,215.2,182.4,215.4,183.1z"/>
		<path class="st9" d="M266.6,315.4c0.8-0.6,0-1.9,0.8-2.5c0,1.2,0,2.4,0,3.6C266.7,316.5,266.6,316,266.6,315.4z"/>
		<path class="st60" d="M194.1,184c0.2-0.4,0.4-0.7,0.6-1.1c0.5,0.8,0.4,1.8,0.3,2.7c-0.2,0-0.3,0-0.5,0
			C193.9,185.1,194,184.5,194.1,184z"/>
		<path class="st61" d="M174.5,342.4c0-0.2,0-0.4,0-0.5c0.7-0.3,1.4-0.5,2.1-0.8c0.2,0.2,0.4,0.3,0.5,0.5
			C176.3,342.2,175.4,342.3,174.5,342.4z"/>
		<path class="st62" d="M161,342c0.2,0.2,0.4,0.4,0.5,0.5c-0.7,0.6-1.3,1.5-2.6,1.4C159.5,342.9,160.2,342.4,161,342z"/>
		<path class="st58" d="M85.6,285c-0.3-0.1-0.7-0.3-1-0.4c-0.3-0.3-0.8-0.6-0.7-0.8c0.1-0.5,0.6-0.2,0.9-0.1c0.5,0.2,1,0.5,1.4,0.7
			C86,284.6,85.8,284.8,85.6,285z"/>
		<path class="st63" d="M212.1,172.5c0.2-0.2,0.3-0.4,0.5-0.6c0.5,1,0.5,2,0.3,3.1c-0.1,0-0.2,0-0.3-0.1
			C212.4,174.1,212.3,173.3,212.1,172.5z"/>
		<path class="st34" d="M240.6,40.5c-0.4,0.2-0.7,0.3-1.1,0.5c-0.6-0.4-1.3-0.8-2.3-1.4C238.7,39.6,239.7,39.9,240.6,40.5z"/>
		<path class="st64" d="M305,319.7c-0.2-0.3-0.4-0.5-0.6-0.8c0.6-0.7,1.3-0.8,2.1-0.4C306.6,319.8,305.5,319.4,305,319.7z"/>
		<path class="st65" d="M117.6,191.1c-0.6,0.5-1.3,0.6-2.1,0.3c-0.1-0.1-0.3-0.4-0.3-0.5c0.2-0.4,0.5-0.3,0.8-0.2
			C116.3,191.4,117.1,190.8,117.6,191.1z"/>
		<path class="st66" d="M129,310.5c-0.2-0.2-0.4-0.4-0.6-0.6c0.3-0.6,0.7-1.2,1.4-1.4C130.3,309.5,129.7,310,129,310.5z"/>
		<path class="st67" d="M158.6,193.5c0.1,0.1,0.3,0.1,0.5,0.1c0.6,0.4,0.5,1,0.3,1.6C158.3,194.9,158.5,194.2,158.6,193.5z"/>
		<path class="st10" d="M261.6,182.1c-0.2-0.3-0.3-0.7-0.5-1c0-0.7,0.2-1.2,0.8-1.8C262.1,180.3,262.2,181.3,261.6,182.1z"/>
		<path class="st68" d="M37.3,144.7c-0.2,0.6,0,1.4-0.9,1.7C36.1,145.6,36.4,145,37.3,144.7z"/>
		<path class="st69" d="M170.6,104.6c0.2-0.6,0.3-1.2,0.7-2.3c0.3,1.3,0.4,2.1-0.2,2.8C170.8,105,170.7,104.8,170.6,104.6z"/>
		<path class="st70" d="M194.1,311.6c-0.2-0.2-0.3-0.4-0.5-0.6c0.2-0.6,0.1-1.5,1.4-1.6C194.7,310.3,194.4,310.9,194.1,311.6z"/>
		<path class="st71" d="M161.5,113l-0.2,0.1l-0.2,0c0.1-0.7,0.3-1.5,1-2c0.2,0.2,0.3,0.3,0.5,0.5C162.3,112.1,162.1,112.7,161.5,113
			z"/>
		<path class="st72" d="M39.5,139c0.2,0.2,0.3,0.4,0.5,0.6c-0.2,0.6-0.3,1.3-1.2,1.6C38.7,140.2,38.9,139.6,39.5,139z"/>
		<path class="st34" d="M198.3,209.1c0.5,0.9,0.1,1.4-0.6,1.9C197.2,210.1,197.8,209.6,198.3,209.1z"/>
		<path class="st72" d="M238.1,272.9c0.7-0.5,1.2-1.3,1.7-0.6c0.5,0.6-0.2,0.8-0.7,0.9C238.9,273.1,238.6,273,238.1,272.9z"/>
		<path class="st73" d="M69.8,284.9c-0.3,0.2-0.5,0.4-0.8,0.7c-0.4-0.3-1.3-0.4-0.8-1C68.5,284.1,69.3,284.4,69.8,284.9z"/>
		<path class="st64" d="M163.9,357.3c0.1,0.3,0.1,0.6,0.2,1c0,0.7-0.3,1.2-1,1.6C163.2,358.9,163.3,358,163.9,357.3z"/>
		<path d="M303,320.6c0.6-0.4,1.2-0.8,2-0.7c-0.3,0.7-0.9,0.9-1.5,1C303.3,320.9,303.2,320.8,303,320.6z"/>
		<path class="st48" d="M35.1,150.2c-0.2-0.2-0.3-0.4-0.5-0.7c0.2-0.6,0.2-1.3,1.2-1.6C35.8,148.9,35.6,149.6,35.1,150.2z"/>
		<path class="st74" d="M237,403.9c-0.4-0.6-1.1-0.2-1.5-0.5c0.5-0.2,1.1-0.4,1.7-0.5c0.3,0,0.8-0.2,0.8,0.2
			C237.8,403.7,237.4,403.8,237,403.9z"/>
		<path class="st44" d="M170.6,104.6c0.2,0.2,0.3,0.3,0.5,0.5c-0.1,0.5,0,1.1-0.5,1.5c-0.1-0.2-0.3-0.3-0.4-0.5
			C170.3,105.6,170.5,105.1,170.6,104.6z"/>
		<path class="st75" d="M100.7,299.9c-0.4,0.2-0.7,0.3-1.1,0.5c-0.4-0.2-1.2-0.5-0.9-0.8C99.2,299.2,100.1,299.5,100.7,299.9z"/>
		<path class="st41" d="M213.9,228.4c0.2,0.2,0.3,0.4,0.5,0.5c-0.2,0.4-0.4,0.8-0.6,1.4C213.4,229.5,213.5,228.9,213.9,228.4z"/>
		<path class="st76" d="M212.6,174.9c0.1,0,0.2,0,0.3,0.1c0.9,0.3,0.5,1,0.7,1.7C212.6,176.3,213,175.4,212.6,174.9z"/>
		<path class="st77" d="M158.4,138.4c0.4-0.5,1-0.5,1.6-0.3c0,0.7-0.5,0.8-1,0.9C158.8,138.8,158.6,138.6,158.4,138.4z"/>
		<path class="st0" d="M33.4,157c-0.2-0.4-0.3-0.7-0.5-1.1c0.1-0.5,0.1-0.9,0.2-1.4c0.2,0.4,0.3,0.7,0.5,1.1
			C33.6,156.1,33.5,156.6,33.4,157z"/>
		<path class="st70" d="M202.5,108c0.2,0.2,0.4,0.4,0.6,0.6c-0.5,0.4-1.2,1-1.6,0.4C201.1,108.5,202,108.2,202.5,108z"/>
		<path class="st78" d="M182.1,352.5c-0.1,0.1-0.1,0.3-0.1,0.5c-0.6,0.7-1.3,0.6-2,0.1c0.2,0,0.5-0.1,0.7-0.1
			C181.2,352.9,181.5,352,182.1,352.5z"/>
		<path class="st14" d="M124.4,146.7c-0.2,1.6-0.6,3.4-2.8,3.6c-2.3,0.2-4.8-2.1-5-4.3c-0.1-2,1.8-4.4,3.6-4.5
			C122.2,141.4,124.4,144,124.4,146.7z"/>
		<path class="st13" d="M302,349.7c-3.6,0-5.9-1.9-5.8-4.7c0.1-2.4,2.7-4.8,5.1-4.9c3.3-0.1,6.1,2.6,6,5.7
			C307.3,348.2,305.2,349.7,302,349.7z"/>
		<path class="st13" d="M325.7,243.8c0,3.2-1.9,5.1-5.1,5.1c-3-0.1-5.2-2.4-5.2-5.5c0-3.6,2.1-6,5.2-6
			C323.6,237.5,325.7,240.1,325.7,243.8z"/>
		<path class="st13" d="M20.3,220.8c0,3.2-1.8,5-4.9,5c-2.8,0-4.8-2-4.8-4.6c0.1-3.1,2.4-5.3,5.7-5.3
			C18.7,215.8,20.3,217.8,20.3,220.8z"/>
		<path class="st16" d="M289.4,248.7c0-1.4,0.5-2.3,2-2.2c1.6,0,2.7,0.8,2.7,2.5c0,1.4-0.7,2.5-2.3,2.4
			C290.3,251.4,289.3,250.4,289.4,248.7z"/>
		<path class="st50" d="M157.4,184c-0.9-1,0-2.4-0.9-3.5c0-1,0-2,0-3c0.1,0,0.2,0,0.3,0C157.1,179.7,157.3,181.9,157.4,184z"/>
		<path class="st64" d="M156.9,177.6c-0.1,0-0.2,0-0.3,0c0.2-1.2,0.3-2.4,0.5-4.3C157.7,175.2,157.6,176.4,156.9,177.6z"/>
		<path class="st79" d="M163.2,315.4c-0.2,0.2-0.4,0.3-0.6,0.5c-0.6-0.4-1.5-0.6-1.7-1.7C161.9,314.4,162.6,314.8,163.2,315.4z"/>
		<path class="st1" d="M236.9,336.4c-3.5,0.9-5.9-0.5-8-3.5c1.7,0.5,3.1,1.1,4.6,1.4c1.7,0.4,3.5,0.2,5.1-0.5
			c5.8-2.7,12.3-0.8,15.8,4.7c1.5,2.3,2.8,4.9,3.2,8.2c-3.6-2-7-1.5-10.5-1.1c-3.8,0.5-6.7-1.9-8.9-5c-1.2-1.8-1.2-1.8-3.1-1.1
			c0.2-1.5,1.4-1.9,2.3-2.6c2.2-1.9,5-2,7.2-2.4C242.2,334.2,239.6,335.8,236.9,336.4z"/>
		<path class="st2" d="M251,358.4c-1.7,0.4-3.4,0.8-5.1,1.2c-12.5,2.7-23.3-7.6-21.4-18.9c0.2-1.2-0.4-2-1-3
			c-0.4-0.8-1.4-1.3-1.5-2.8c2.2,1.3,3.5,2.9,4,5c0.2,1,0.4,2,0.4,3c0.2,10.5,7.9,13.6,14.9,13.9c3.6,0.2,7-1.1,10.6-1.3
			c0.5-0.1,1.1-0.4,1.1,0.6c-1,0.4-2.1,0.8-3.1,1.2c0,0.1,0,0.3,0,0.4c1.5,0,3.1,0,4.6,0C253.6,359.1,252,357.6,251,358.4z"/>
		<path class="st80" d="M234.8,324.6c-2.6-1.3-5.3-2.7-7.9-4c-3.5-1.7-6.8-3.7-10.9-4c-1.7-0.1-3.1-1-3.7-2.8c-0.4-1.1,0-1.5,1-1.1
			c7.7,3.1,15.4,6.5,22.2,11.4C235.5,324.6,235.3,324.8,234.8,324.6z"/>
		<path class="st6" d="M257.5,298.5c-3-3-6.7-5.1-9.9-7.9c-3.8-3.2-6.7-7.1-9.4-11.5c2.1,0.1,3.2,1.3,4.1,2.6
			c2.8,4.7,6.9,8,11.2,11.1c1.9,1.3,3.5,3,4.4,5.2C257.9,298.4,257.8,298.5,257.5,298.5z"/>
		<path class="st52" d="M236.9,336.4c2.8-1.5,5.4-3.6,9.2-1.6c-3.1,0.5-5.9,1.2-8.6,2.1C237.3,336.7,237.1,336.6,236.9,336.4z"/>
		<path class="st81" d="M251,358.4c1-0.9,2.5,0.1,3.5-0.9c0.8-0.2,1.4,0.1,2,0.9C254.4,358.4,252.7,358.4,251,358.4z"/>
		<path class="st82" d="M253,355.9c-0.4-0.2-0.7-0.4-1.1-0.6c0.9-0.6,1.9-0.4,3-0.3C254.3,355.7,253.7,356,253,355.9z"/>
		<path class="st47" d="M237,325c0.6,0.2,1.2,0.5,1.3,1.3c-0.8,0.1-1.4-0.3-1.9-0.8C236.5,325.2,236.8,325.2,237,325z"/>
		<path class="st83" d="M237,325c-0.2,0.2-0.4,0.3-0.5,0.5c-0.5-0.3-1.1-0.6-1.6-0.9c0.2-0.2,0.4-0.3,0.7-0.5
			C236,324.4,236.5,324.7,237,325z"/>
		<path class="st84" d="M257.5,298.5c0.1-0.1,0.2-0.2,0.3-0.3c0.8,0.2,0.8,0.9,1,1.5C258,299.7,257.7,299.1,257.5,298.5z"/>
		<path class="st85" d="M249.9,313.5c-0.5-0.4-1-0.8-1.6-1.4c1.4-0.2,1.7,0.7,2.2,1.4C250.4,313.7,250.2,313.7,249.9,313.5z"/>
		<path class="st86" d="M249.9,313.5c0.2,0,0.4,0,0.6,0c0.5,0.3,1,0.6,0.8,1.3C250.6,314.6,250.3,314,249.9,313.5z"/>
		<path class="st43" d="M184,351.8l0.1-0.1c0,0-0.1-0.1-0.1-0.1c1.4-0.8,2.8-1.6,4.5-1.3l0-0.1C187.3,351.6,185.7,351.8,184,351.8z"
			/>
		<path class="st87" d="M188.5,350.1C188.5,350.1,188.5,350.2,188.5,350.1c0.6-1,1.4-1.5,2.5-0.6C190.2,350,189.5,350.8,188.5,350.1
			z"/>
		<path class="st88" d="M182.1,352.5c-0.5,0.1-0.9,0.3-1.4,0.4c0.4-1.3,1.3-1.2,2.3-1C183,352.5,182.5,352.5,182.1,352.5z"/>
		<path class="st14" d="M254.5,343.1c-2.1-0.4-4,0-5.9,0.2c-3.1,0.4-5.5-1.4-6.1-4.2c-0.3-1.4,0.2-2.3,1.7-2.5
			C247.6,336.3,253.7,337.9,254.5,343.1z"/>
	</g>
</g>
</svg>
