<svg id="Layer_1" data-name="Layer 1" xmlns="http://www.w3.org/2000/svg" viewBox="0 0 611 636"><defs><style>.cls-1{fill:#fefefe;}.cls-2{fill:#010e16;}.cls-3{fill:#d3d5d7;}.cls-4{fill:#f6f6f7;}.cls-5{fill:#e4e6e6;}.cls-6{fill:#eceded;}.cls-7{fill:#eff0f0;}.cls-8{fill:#e7e8e9;}.cls-9{fill:#f4f4f5;}.cls-10{fill:#f3f4f4;}.cls-11{fill:#cacdcf;}.cls-12{fill:#858b8f;}.cls-13{fill:#e8e9ea;}.cls-14{fill:#72797e;}.cls-15{fill:#dbddde;}.cls-16{fill:#e4e5e6;}</style></defs><path class="cls-1" d="M610.83,317.92q0,157,.09,313.91c0,3.42-.67,4.09-4.09,4.09q-301.41-.15-602.82,0c-3.42,0-4.09-.67-4.09-4.09Q.09,317.92-.08,4C-.08.59.59-.08,4-.08q301.41.17,602.82,0c3.42,0,4.1.67,4.09,4.09Q610.74,161,610.83,317.92Z" transform="translate(0.08 0.08)"/><path class="cls-2" d="M18.85,285.91c5.46-37.46,16.77-73,35.78-105.82C93.1,113.58,149.32,69.34,222.41,46c34.24-10.94,69.42-13.77,104.87-11.71,121.88,7.08,223.39,91.35,257.86,203.27a283.66,283.66,0,0,1,11.8,61.08c5.79,72.43-11.56,138.65-54.42,197.37C500,554.29,443,591.37,372.57,607.92a285.88,285.88,0,0,1-84.63,6.64C158.75,606,54.08,515,24.83,393.58c-7.28-30.22-8.44-60.72-7.73-91.5C17.39,296.66,16.1,291.07,18.85,285.91Z" transform="translate(0.08 0.08)"/><path class="cls-3" d="M18.85,285.91Q18,294,17.1,302.08C15.73,296.48,14.39,290.88,18.85,285.91Z" transform="translate(0.08 0.08)"/><path class="cls-1" d="M23,359.91c-2-4.18-1.59-8.82-1.83-13.14-5.09-95.17,27-175.27,98.35-238.85,39-34.72,84.89-56,136-65.78a265.33,265.33,0,0,1,73.34-4c57.15,5.08,108.54,24.57,154.16,60.1,42.23,32.89,72.35,74.25,92.08,123.52A266.33,266.33,0,0,1,593,297.09c7.3,80.08-15.49,151-66.59,212.41C484.68,559.61,431,590.92,367.24,605c-26.95,5.94-54.21,8.21-81.69,5.79-57.17-5-108.9-24.6-154.25-60-52.79-41.2-86.58-94.84-103-159.59-.52-2.06-.78-4.19-1.16-6.29,2.84-5.12.31-9.91-.93-14.77a36.85,36.85,0,0,1-1.87-9.53c0-.15,0-.3,0-.45l-.47.14A.8.8,0,0,1,23,359.91Z" transform="translate(0.08 0.08)"/><path class="cls-4" d="M27,369.9c1.41,5,5.9,9.94.14,15A106.7,106.7,0,0,1,23.71,366C26.63,365.76,25.84,368.65,27,369.9Z" transform="translate(0.08 0.08)"/><path class="cls-5" d="M27,369.9c-1.58-.9-1.39-3.29-3.29-3.93l-.47-1.11c.77-1.58-.32-3.44.75-5,0-.17,0-.38.09-.48a3.85,3.85,0,0,1,.63-.5Q25.85,364.4,27,369.9Z" transform="translate(0.08 0.08)"/><path class="cls-6" d="M24,359.89c-.18,1.66.58,3.47-.75,5L23,359.91Z" transform="translate(0.08 0.08)"/><path d="M154.7,137c14.68-14.6,32-24.53,52.42-28.32a151.33,151.33,0,0,1,46.2-1.81c4.56.56,9.1.7,13.43,2.41,9.25,3.65,14.44,10.81,16.06,20.22,2.31,13.43.91,26.86-.66,40.35q-1.66,14.41-3.27,28.86c-1,9.26-2.52,18.47-3.73,27.71-1.13,8.6-2.1,17.22-3.23,25.81-1.55,11.83-3.34,23.63-4.74,35.48-1,8.28-2.09,16.54-3.14,24.81-1.4,10.88-2.65,21.77-4,32.65a277.6,277.6,0,0,1-6.12,34.63c-.75,3-2,5.81-2.82,8.71-2.77,9.27-9.2,13.58-18.3,14.37-8.55.74-15.21-2.61-20.34-9.65-6.84-9.37-10.12-20.32-14.5-30.79-2.72-6.49-5.65-12.87-10-18.5-6.26-8.15-14.93-10.53-22.68-.47-6.24,8.09-11.91,16.57-17.95,24.79-3.57,4.86-7.92,6.13-13.33,3.69s-9.32-6.65-12.48-11.58A72,72,0,0,1,110.06,322c-.31-20.82-.67-41.67.08-62.47.79-21.75,1.14-43.66,7.81-64.76,2.16-6.85,5.29-13.26,8.43-19.68,2-6.62,6.47-11.74,10.42-17.17C142.22,150.48,147.15,142.6,154.7,137Z" transform="translate(0.08 0.08)"/><path d="M504.83,298.4c.32,15.67.19,31.3-5,46.35-3.47,10.09-8.24,19.39-17.7,25.32-6,3.77-11.51,2.62-15.74-3.12-5.65-7.67-11-15.5-16.71-23.16-9.47-12.81-18.1-8.14-24.76,1.28s-9.86,20.11-14.15,30.48c-2.91,7-6,14-11.57,19.65-12,12.28-30.44,8.5-36.3-7.67-4.42-12.17-6.36-24.87-8-37.64-1.57-12-3.38-24-4.9-36-1.48-11.71-2.61-23.46-4.12-35.16-1.46-11.34-3.3-22.63-4.8-34-1.19-8.93-2-17.9-3.18-26.84-1.18-9.24-2.64-18.45-3.74-27.69-.72-6-1.59-12.05-2.08-18.07-.84-10.18-2.31-20.34-2.18-30.6a56.86,56.86,0,0,1,2.31-16c4.23-13.7,13.76-18.08,26.46-19.51a147.16,147.16,0,0,1,17.76-.8c29.46.33,57.38,5.55,79.21,28.05,17.33,17.85,32.54,37,40.54,61,3.31,9.9,4.73,20.19,5.84,30.61,1.7,15.87,1.48,31.76,2,47.65C504.32,281.17,504.76,289.78,504.83,298.4Z" transform="translate(0.08 0.08)"/><path d="M309.13,600.71c-67.36-.81-125.55-21-176.21-61.73-34.48-27.74-60.35-62.31-78.74-102.54-1.75-3.83-.53-6.72,2.67-7.36,23.74-4.8,47.44-6.62,69.55,6.17,7.63,4.41,13.81,10.95,20.21,17,23.23,22,46.2,44.22,69.45,66.19,22.75,21.49,47.9,39.2,77.27,50.95,13.53,5.42,25.22,2.26,37.25-3.06,23.62-10.45,44.57-24.89,63.67-42.23C421,499.81,446.34,474,472.89,449.47c9.73-9,19.55-17.75,33-21.06,13.21-3.25,26.48-3,39.86-1.77,4.1.38,8.1,1.2,12.14,1.88,3.78.64,3.59,2,2.36,4.88a258.71,258.71,0,0,1-26.12,47.43q-58.56,83.74-157.2,110.74A234.25,234.25,0,0,1,334.4,599C325.18,599.77,315.94,600,309.13,600.71Z" transform="translate(0.08 0.08)"/><path d="M160.86,112.94c-11,8.6-21.36,17.89-29.94,29-3.29,5-7.7,9.11-10.7,14.3-4.35,6.42-8.31,13.07-12.18,19.78q-1.11,2.36-2.2,4.73c-4.64,5.71-5.71,13.2-9.59,19.28-8.06,25.25-9.5,51.27-8.1,77.42,1,19,4.87,37.74,9.25,56.31,2.66,11.27,2.87,22.25-3.8,32.87-6,9.61-14.53,13.43-25.16,14.17-1.16.08-2.31.21-3.46.32-6,0-12,1.14-18-.09-4,.56-5.84-1.4-6.79-5.16-3.83-15.24-7.07-30.5-8.41-46.25a228.78,228.78,0,0,1-.57-35.29A237.61,237.61,0,0,1,62.56,191c12.08-21,27.32-39.34,44.29-56.61,24.8-25.25,52.73-45.8,84.9-60.53a284.6,284.6,0,0,1,68.27-21,261.39,261.39,0,0,1,63.12-3.62c56.5,3.56,107.63,22.49,152.42,57.26,45.15,35.05,76.37,80.38,95.54,134.07a182.38,182.38,0,0,1,9.84,45.28c.88,9.86,2.26,19.7,1.81,29.58-1,20.83-3.81,41.4-10,61.39-.67,2.16-1.59,3.4-4.33,3.67a99.18,99.18,0,0,1-32.7-1.93c-9.49-2.25-19.39-16.55-19.94-26.75-.66-11.95,3.29-23,5.47-34.46,2-10.66,3.6-21.34,4.78-32.13a218.9,218.9,0,0,0,.7-32.87,182.73,182.73,0,0,0-17.13-69.64c-10.4-22.61-24.21-42.4-42.77-58.88-3.83-3.41-7.25-7.32-11.78-9.89a24,24,0,0,1-6.83-4.37c-3.1-2.3-6-4.8-9.61-6.41a5.71,5.71,0,0,1-2.34-1.31,14.09,14.09,0,0,0-5.89-3.92c-1.89-.68-3.85-1.24-5.21-2.88a5.81,5.81,0,0,0-4-1.87c-3.75-2-7.86-3.27-11.62-5.27a32.65,32.65,0,0,1-3.57-1.6c-11.29-3.72-23-4.49-34.74-5.2-7.73-.47-15.08,1.45-22.58,2.5-2,.28-3.91.87-5.74-.42-6.7.5-12.43-2-18.24-5.09C312,71.26,299.4,70.21,287,79.47c-7.24,5.4-15.78,4-24.06,2.69-5,.89-9.81-.63-14.73-.87-23.82-1.2-45.48,5.28-65.71,17.58Q171.45,105.59,160.86,112.94Z" transform="translate(0.08 0.08)"/><path d="M309,549.9c-17.53.32-30.78-6.32-43.53-14.09C247.76,525,232,511.7,216.52,498c-11.94-10.59-24.24-20.81-35.23-32.4-8-8.47-15.1-17.6-18.75-29.11-3.29-10.35-.22-19.64,3.6-28.82,2-4.68,8.6-6.15,14.82-4.27,12.46,3.76,21.09,12.49,28.79,22.34,10.88,13.92,18.07,29.9,25.12,45.94a59.67,59.67,0,0,0,4.44,8.16c4.81,7.52,18.4,7.29,22.58-1.93a99.75,99.75,0,0,0,8-27.43c1.61-11.33,3.38-22.64,4.82-34,1.25-9.76,2.07-19.58,3.2-29.35,1.22-10.58,2.62-21.13,3.85-31.71.79-6.85,1.43-13.71,2.13-20.57,1.4-13.68,2.88-27.34,4.81-41,2.45-17.3,6.4-34.23,10.28-51.2.83-3.67,1.72-7.68,7.22-7.87,4.56-.15,6.67,1.8,7.68,5.83,4,15.77,7.43,31.63,10.05,47.7,2.74,16.84,4.25,33.81,6.06,50.76,1.6,15,3.31,29.95,5,44.93,2.34,21.16,5.06,42.28,8,63.37a114.09,114.09,0,0,0,8.74,30.77c4.11,9.25,19,8.79,23.38.5,5.68-10.83,9.75-22.39,15.81-33,8.28-14.54,17.17-28.61,31.7-37.87,5-3.2,10.43-5.28,16.67-5,4.4.21,7,2.1,8.67,6,6.55,15.06,5.09,29.19-4.2,42.73C435.6,463.44,425,473,414.45,482.6,401,494.71,387.62,506.86,373.32,518c-15.9,12.34-32.1,24.09-51.76,30A41.71,41.71,0,0,1,309,549.9Z" transform="translate(0.08 0.08)"/><path class="cls-7" d="M160.86,112.94C178.42,98,198.1,87.11,220.74,82.13a94.34,94.34,0,0,1,42.19,0c-.9,1.12-1.08,2.1-3.51,2.11-17.37.13-35-2.2-51.92,3.8A42.48,42.48,0,0,0,200.13,91c-11.71,6.81-24,12.57-35.33,20.07C163.59,111.85,162.56,113.13,160.86,112.94Z" transform="translate(0.08 0.08)"/><path class="cls-8" d="M409.91,86.94l12,5.12c1.07.89,2.45,1.22,3.62,1.94,1.23,2,3.81,1.73,5.39,3.15,2,1.23,3.48,3.4,6,3.84l2,1.16c1.06,1.12,3.28,1.59,2.22,3.92a6,6,0,0,1-5.2-.1A37.65,37.65,0,0,0,425,99.24c-1-.37-1.85-2.06-3-3.07-2.76-2.45-6-3.14-9.21-4.25-2.39-.82-4.74-1.65-6.5-3.84A7.59,7.59,0,0,0,400,85.56c-10.41.53-20.47-2.16-30.72-3.09-8.11-.73-15.56,2.07-23.37,2.78-2.15.19-3.17.32-3-2.09,11.92-1.8,23.79-3.91,35.95-3.17,9.67.58,19.09,2.18,28.11,5.82A3.24,3.24,0,0,0,409.91,86.94Z" transform="translate(0.08 0.08)"/><path class="cls-9" d="M154.7,137a299.7,299.7,0,0,0-24.63,32.45c-1.24,1.89-2.46,3.79-3.69,5.69-2.25-1.21-.69-2.65,0-3.72,3.19-5,6.24-10.11,9.89-14.76,4.84-6.16,7.61-14,14.92-18.23C152.35,137.71,153.3,136.91,154.7,137Z" transform="translate(0.08 0.08)"/><path class="cls-10" d="M47,381l18,.09c-4.13,2-8.63.09-12.9,1.63l8,.54c-2,2.7-12.44,5.81-14.94,4.38-1.44-.82-1.28-2.58-2.09-3.78.94-1.44,3.26-.11,4-2C47,381.6,47,381.31,47,381Z" transform="translate(0.08 0.08)"/><path class="cls-10" d="M435.9,106a9.16,9.16,0,0,1,5,0c1.4-1.07,2.38-.16,3.38.7,0,3,4.73,3.7,3.62,7.28C443.51,113.64,436.82,109.18,435.9,106Z" transform="translate(0.08 0.08)"/><path class="cls-11" d="M96.25,200c1.17-3.35,2.3-6.73,3.54-10.06,1.31-3.53,2.18-7.37,6-9.22C104.4,188,100.64,194.19,96.25,200Z" transform="translate(0.08 0.08)"/><path class="cls-12" d="M108,176A71.92,71.92,0,0,1,119.94,156c.4-.53.78-.52,1.14,0A125,125,0,0,1,108,176Z" transform="translate(0.08 0.08)"/><path class="cls-13" d="M447.88,114c-.45-2.84-5.38-3.09-4-7,2.18-.7,3.2,1.73,5.06,1.89,2.2,1.47,4.57,2.75,6.12,5Z" transform="translate(0.08 0.08)"/><path class="cls-14" d="M121.08,156l-1.14,0c3-5.2,6.3-10.14,11-14C129.19,147.71,124.36,151.31,121.08,156Z" transform="translate(0.08 0.08)"/><path class="cls-4" d="M50.33,411.83c.14,1.27-1,1.54-1.88,1.52-1.18,0-2.82.57-3.23-1.34-.33-1.57.61-2,2-2.1S49.79,410.13,50.33,411.83Z" transform="translate(0.08 0.08)"/><path class="cls-15" d="M47,381.9c.44,2.45.44,2.45-4,2C43.29,381.09,45.47,382.16,47,381.9Z" transform="translate(0.08 0.08)"/><path class="cls-16" d="M448.92,108.88c-2.54,1.64-3.1-2-5.06-1.89l-3-1c-.67-1.27-1.34-2.55-2-3.83C442.82,103.5,445.79,106.3,448.92,108.88Z" transform="translate(0.08 0.08)"/><path class="cls-16" d="M436.92,101c-3.81,1.55-4.38-2-6-3.84A8.82,8.82,0,0,1,436.92,101Z" transform="translate(0.08 0.08)"/><path class="cls-16" d="M409.91,86.94c-1.85,1.88-2.3.11-3-1.13C407.94,86.18,409.28,85.62,409.91,86.94Z" transform="translate(0.08 0.08)"/><path class="cls-16" d="M425.51,94a3.3,3.3,0,0,1-3.62-1.94A5.35,5.35,0,0,1,425.51,94Z" transform="translate(0.08 0.08)"/></svg>